<svg width="317" height="56" viewBox="0 0 317 56" fill="none" xmlns="http://www.w3.org/2000/svg">
<path d="M22.6601 0H33.6731C33.8091 0.32248 34.1059 0.207821 34.3384 0.225736C40.6568 0.68951 46.9102 1.80743 52.9987 3.56162C54.4759 3.98442 55.5311 4.83362 55.9496 6.37078C55.9746 6.46036 56.0712 6.5356 56.132 6.61801V7.49946C55.0125 8.85746 54.1612 10.391 53.1311 11.8243C46.167 21.6348 37.6291 29.6144 26.6626 34.7562C20.773 37.5101 14.4643 39.2554 7.99868 39.9195C7.63113 39.9966 7.24833 39.9469 6.91256 39.7784C6.5768 39.6099 6.30785 39.3326 6.14947 38.9915C2.37819 32.7816 0.333152 25.6744 0.226244 18.4065C0.165438 14.8448 0.226244 11.2796 0.226244 7.71445C0.226244 5.53949 1.22775 4.18149 3.31304 3.58311C8.76798 1.98986 14.3626 0.923204 20.0204 0.397726C20.9003 0.318897 21.8267 0.440723 22.6601 0ZM29.9604 2.58343C26.1848 2.64507 22.418 2.96591 18.6862 3.5437C14.3296 4.15319 10.0167 5.04244 5.7739 6.20595C3.98549 6.70042 3.01617 7.71445 2.79083 9.53109C2.20065 14.3038 2.76579 18.9905 3.91037 23.6163C3.96045 23.8241 3.99622 24.1538 4.22513 24.1323C4.5542 24.0964 4.41828 23.7274 4.43974 23.5124C4.51128 22.8209 4.55778 22.1221 4.56493 21.4234C4.55096 19.7733 4.62977 18.1236 4.801 16.4823C5.33753 12.2829 8.29198 7.96526 13.0885 7.01574C13.9505 6.84733 14.7947 6.58576 15.6531 6.40661C20.7214 5.33167 25.8649 4.81571 30.9941 4.19224C32.3042 4.07328 33.6053 3.86981 34.8893 3.58311C35.0609 3.54012 35.3006 3.5222 35.2899 3.2893C35.2791 3.0564 35.0466 3.03131 34.8893 2.97398C34.6777 2.91236 34.4627 2.8633 34.2454 2.82708C32.761 2.50818 31.2516 2.61567 29.9604 2.58343Z" fill="#8C82FF"/>
<path d="M29.961 2.58496C31.2522 2.61721 32.7617 2.50255 34.2532 2.82861C34.4681 2.86511 34.6807 2.91417 34.8899 2.97552C35.0473 3.03285 35.2905 3.06152 35.3012 3.27292C35.3119 3.48432 35.0723 3.52374 34.9006 3.56673C33.6133 3.8575 32.3087 4.06456 30.9947 4.18661C25.8655 4.81008 20.7221 5.33679 15.6537 6.40098C14.7953 6.58013 13.9511 6.8417 13.0891 7.01011C8.2926 7.95963 5.33815 12.2773 4.80162 16.4839C4.63013 18.1275 4.55131 19.7796 4.56555 21.4321C4.56555 22.1488 4.5119 22.8296 4.44037 23.5211C4.4189 23.7361 4.55482 24.1052 4.22576 24.141C3.99684 24.1625 3.96107 23.8328 3.911 23.625C2.76641 18.992 2.20127 14.3053 2.79145 9.53262C3.01679 7.71598 3.97538 6.70196 5.77452 6.20749C10.0173 5.04397 14.3303 4.15472 18.6869 3.54524C22.4186 2.96745 26.1855 2.6466 29.961 2.58496Z" fill="white"/>
<path d="M28.0686 55.9998C27.3401 55.9709 26.6222 55.8145 25.9475 55.5376C19.6663 53.0842 14.0975 49.0958 9.74809 43.9355C9.6967 43.8823 9.65002 43.8248 9.60859 43.7635C9.46552 43.5234 9.08638 43.3407 9.2223 43.0469C9.35822 42.7531 9.74451 42.8427 10.0271 42.8247C14.9292 42.4866 19.7797 41.6119 24.4918 40.2162C36.2202 36.7657 46.5143 30.9001 55.0665 22.0606C55.3061 21.8169 55.5243 21.2866 55.8569 21.455C56.093 21.5733 55.9142 22.1394 55.8569 22.4977C54.8375 30.7389 51.6935 38.0484 46.2639 44.3547C41.9632 49.3636 36.4876 53.2236 30.3291 55.5878C29.608 55.8657 28.8412 56.0055 28.0686 55.9998Z" fill="#8C82FF"/>
<path d="M84.6087 23.9045C84.5515 25.2088 84.5229 26.4246 84.5229 27.5521C84.5229 28.6844 84.5515 29.8991 84.6087 31.2033C84.6946 33.6088 85.4242 35.5568 86.7977 37.0474C88.1712 38.538 90.1445 39.2832 92.7174 39.2832C93.9096 39.3133 95.0979 39.1363 96.2298 38.7601C97.0947 38.464 97.8966 38.0082 98.5941 37.4164C99.1958 36.8911 99.6829 36.2471 100.025 35.5246C100.351 34.836 100.605 34.1155 100.783 33.3747C100.803 33.2315 100.851 33.094 100.926 32.9706C101.002 32.8473 101.101 32.7409 101.219 32.6581C101.421 32.5088 101.663 32.425 101.913 32.418H103.924C104.176 32.4208 104.417 32.5225 104.596 32.7013C104.774 32.8801 104.876 33.1218 104.879 33.3747C104.821 34.4531 104.572 35.5125 104.142 36.5028C103.638 37.6952 102.909 38.7792 101.996 39.6953C100.926 40.7661 99.6593 41.618 98.265 42.2035C96.5102 42.9147 94.6276 43.255 92.7353 43.2032C91.0176 43.2316 89.3105 42.93 87.7062 42.3146C86.2832 41.7572 84.9865 40.9189 83.8933 39.8494C82.8289 38.7939 81.9946 37.5287 81.4432 36.1337C80.8496 34.6307 80.5263 33.0342 80.4882 31.4183C80.4024 28.8409 80.4024 26.2634 80.4882 23.6859C80.5347 22.0766 80.8628 20.4878 81.4575 18.9921C82.0013 17.5913 82.8309 16.3196 83.8933 15.2585C84.9822 14.1948 86.2725 13.3603 87.6884 12.804C89.2921 12.1869 90.9996 11.8852 92.7174 11.9154C94.6135 11.8571 96.5011 12.1926 98.2615 12.9008C99.655 13.4876 100.922 14.3394 101.992 15.409C102.907 16.3255 103.636 17.4109 104.138 18.6051C104.568 19.5953 104.818 20.6547 104.875 21.7332C104.873 21.9854 104.772 22.2267 104.594 22.405C104.416 22.5834 104.175 22.6844 103.924 22.6863H101.931C101.681 22.6806 101.439 22.598 101.237 22.4498C101.119 22.3667 101.02 22.2602 100.945 22.1369C100.87 22.0136 100.821 21.8762 100.801 21.7332C100.622 20.9925 100.368 20.2722 100.043 19.5833C99.7007 18.8618 99.2136 18.219 98.612 17.695C97.9147 17.102 97.1128 16.6451 96.2477 16.3477C95.1156 15.9729 93.9272 15.7971 92.7353 15.8282C90.1647 15.8282 88.1915 16.5735 86.8156 18.064C85.4397 19.5546 84.7041 21.5014 84.6087 23.9045Z" fill="#8C82FF"/>
<path d="M116.714 49.9704C116.611 50.2257 116.464 50.4609 116.281 50.6655C116.177 50.7816 116.05 50.8738 115.907 50.9357C115.764 50.9976 115.61 51.0276 115.455 51.0238H113.666C113.529 51.0243 113.394 50.9977 113.267 50.9454C113.141 50.8932 113.026 50.8164 112.929 50.7195C112.832 50.6226 112.756 50.5074 112.704 50.3807C112.651 50.254 112.625 50.1182 112.625 49.9812C112.623 49.878 112.638 49.7751 112.668 49.6766L116.832 40.597L108.258 21.499C108.227 21.4004 108.213 21.2976 108.215 21.1944C108.213 21.0574 108.238 20.9213 108.29 20.7944C108.341 20.6675 108.418 20.5525 108.515 20.4563C108.612 20.3581 108.727 20.2805 108.855 20.2282C108.982 20.1758 109.118 20.1498 109.256 20.1517H111.044C111.199 20.1465 111.354 20.1759 111.496 20.2379C111.638 20.2999 111.765 20.3928 111.867 20.51C112.053 20.7132 112.199 20.9488 112.3 21.2052L118.978 35.9748L125.741 21.2087C125.842 20.9524 125.989 20.7167 126.174 20.5136C126.278 20.3975 126.405 20.3053 126.548 20.2434C126.691 20.1816 126.845 20.1515 127.001 20.1553H128.789C128.926 20.1548 129.061 20.1815 129.188 20.2337C129.314 20.2859 129.429 20.3627 129.526 20.4596C129.623 20.5566 129.699 20.6717 129.752 20.7984C129.804 20.9251 129.83 21.0609 129.83 21.198C129.831 21.3014 129.815 21.4042 129.783 21.5026L116.714 49.9704Z" fill="#8C82FF"/>
<path d="M144.901 19.7307C146.201 19.7201 147.49 19.9636 148.696 20.4473C149.845 20.91 150.886 21.6053 151.755 22.4897C152.651 23.4183 153.357 24.5139 153.833 25.7145C154.376 27.0863 154.684 28.5399 154.745 30.0142C154.773 30.4514 154.788 30.9208 154.788 31.4475C154.788 31.9742 154.788 32.4221 154.745 32.8592C154.684 34.3336 154.376 35.7872 153.833 37.159C153.356 38.3686 152.65 39.4745 151.755 40.416C150.891 41.3115 149.849 42.0147 148.696 42.4799C147.49 42.9637 146.201 43.2071 144.901 43.1965C143.137 43.1965 141.72 42.9003 140.652 42.3079C139.69 41.8051 138.847 41.1013 138.181 40.244V41.5913C138.177 41.9015 138.052 42.1979 137.833 42.4169C137.613 42.636 137.317 42.7602 137.007 42.763H135.398C135.088 42.7602 134.792 42.636 134.573 42.4169C134.353 42.1979 134.228 41.9015 134.225 41.5913V13.084C134.226 12.7732 134.351 12.4758 134.571 12.2564C134.79 12.0369 135.088 11.9133 135.398 11.9124H137C137.31 11.9133 137.608 12.0369 137.828 12.2564C138.047 12.4758 138.172 12.7732 138.173 13.084V22.6832C138.842 21.8562 139.667 21.1704 140.602 20.6659C141.675 20.0424 143.109 19.7307 144.901 19.7307ZM138.181 33.3215C138.324 35.2038 138.959 36.6956 140.087 37.7968C141.215 38.898 142.675 39.4474 144.469 39.445C146.376 39.445 147.873 38.8371 148.958 37.6212C150.043 36.4053 150.657 34.7547 150.8 32.6693C150.828 31.8596 150.828 31.0462 150.8 30.2364C150.652 28.151 150.038 26.5004 148.958 25.2845C147.877 24.0687 146.381 23.4631 144.469 23.4679C142.644 23.4679 141.184 24.0245 140.087 25.1376C138.99 26.2508 138.355 27.8369 138.181 29.896C138.113 30.4655 138.083 31.0389 138.091 31.6123C138.083 32.1834 138.113 32.7544 138.181 33.3215Z" fill="#8C82FF"/>
<path d="M159.127 29.2886C159.231 27.9992 159.553 26.7369 160.078 25.555C160.576 24.4301 161.266 23.4007 162.117 22.513C162.972 21.6329 163.999 20.9378 165.132 20.4706C166.381 19.9632 167.719 19.7122 169.067 19.7325C170.498 19.7087 171.92 19.9668 173.252 20.4921C174.45 20.9785 175.525 21.7278 176.396 22.685C177.293 23.6931 177.973 24.8765 178.392 26.1606C178.871 27.6327 179.105 29.1736 179.086 30.7219V31.89C179.086 32.0447 179.055 32.1979 178.993 32.3398C178.932 32.4816 178.841 32.6091 178.728 32.7141C178.622 32.8275 178.494 32.9179 178.352 32.9795C178.21 33.0412 178.057 33.0728 177.902 33.0724H162.986V33.3232C163.043 35.2939 163.64 36.8072 164.775 37.863C165.938 38.9281 167.47 39.4964 169.045 39.4468C170.636 39.4468 171.828 39.2234 172.622 38.7767C173.343 38.385 173.996 37.8779 174.554 37.2754C174.731 37.0864 174.936 36.9257 175.162 36.7988C175.409 36.6976 175.675 36.6523 175.942 36.6663H177.247C177.57 36.6723 177.879 36.8002 178.113 37.0246C178.234 37.1214 178.327 37.2498 178.38 37.3958C178.434 37.5417 178.447 37.6997 178.417 37.8523C178.29 38.4686 178.039 39.0526 177.68 39.5686C177.211 40.2552 176.615 40.8451 175.924 41.3064C175.042 41.8964 174.078 42.3505 173.062 42.6537C171.76 43.0371 170.406 43.2195 169.049 43.1947C167.71 43.2153 166.381 42.9566 165.147 42.4351C164.014 41.9457 162.99 41.237 162.131 40.3497C161.262 39.4403 160.564 38.3805 160.071 37.2216C159.539 35.9694 159.218 34.6376 159.12 33.2802C158.976 31.9535 158.978 30.6149 159.127 29.2886ZM162.986 29.4212H175.173V29.2886C175.173 27.5234 174.616 26.1116 173.502 25.0534C172.389 23.9952 170.907 23.4673 169.056 23.4697C168.257 23.4622 167.462 23.6019 166.713 23.8817C166.009 24.1463 165.362 24.544 164.807 25.0534C164.25 25.5711 163.806 26.1996 163.505 26.8987C163.181 27.6547 163.005 28.4661 162.986 29.2886V29.4212Z" fill="#8C82FF"/>
<path d="M195.771 20.1636C196.08 20.1673 196.375 20.2919 196.594 20.5109C196.813 20.7298 196.937 21.0257 196.941 21.3353V22.7255C196.938 23.0357 196.814 23.3325 196.595 23.5522C196.377 23.7719 196.081 23.897 195.771 23.9008H193.267C189.946 23.9008 188.284 25.5657 188.281 28.8956V41.5834C188.277 41.893 188.153 42.1889 187.934 42.4078C187.716 42.6268 187.421 42.7514 187.112 42.7551H185.506C185.197 42.7514 184.901 42.6268 184.683 42.4078C184.464 42.1889 184.34 41.893 184.336 41.5834V21.3353C184.34 21.0257 184.464 20.7298 184.683 20.5109C184.901 20.2919 185.197 20.1673 185.506 20.1636H187.112C187.421 20.1673 187.716 20.2919 187.934 20.5109C188.153 20.7298 188.277 21.0257 188.281 21.3353V22.6825C188.793 21.8784 189.505 21.2224 190.349 20.7799C191.343 20.3366 192.426 20.1282 193.514 20.1707L195.771 20.1636Z" fill="#8C82FF"/>
<path d="M213.552 36.5024C213.57 36.0057 213.407 35.5193 213.094 35.1336C212.717 34.7202 212.249 34.4001 211.728 34.1984C210.975 33.8927 210.2 33.6459 209.41 33.4603C208.468 33.2214 207.376 32.9754 206.134 32.7222C203.806 32.2325 202.166 31.4144 201.212 30.2678C200.278 29.1408 199.778 27.7157 199.803 26.2511C199.8 25.3969 199.978 24.5519 200.325 23.7716C200.685 22.971 201.218 22.2601 201.884 21.6898C202.654 21.0397 203.547 20.5522 204.51 20.2565C205.71 19.8884 206.96 19.713 208.215 19.737C209.474 19.7116 210.73 19.871 211.942 20.21C212.888 20.4784 213.788 20.8891 214.611 21.4282C215.256 21.8453 215.814 22.383 216.256 23.012C216.601 23.4909 216.811 24.054 216.864 24.6423C216.88 24.7957 216.859 24.9507 216.802 25.0942C216.745 25.2376 216.655 25.3653 216.539 25.4664C216.428 25.579 216.297 25.6687 216.152 25.7302C216.007 25.7917 215.852 25.8238 215.694 25.8247H214.264C214.05 25.8185 213.838 25.7823 213.634 25.7172C213.363 25.627 213.127 25.4525 212.962 25.2192C212.517 24.6731 211.943 24.2469 211.291 23.9794C210.317 23.6049 209.276 23.4354 208.233 23.4813C207.113 23.4329 206.001 23.6879 205.014 24.2195C204.728 24.3758 204.477 24.5884 204.275 24.8445C204.073 25.1006 203.925 25.395 203.839 25.7099C203.754 26.0248 203.732 26.3538 203.777 26.677C203.822 27.0003 203.931 27.3113 204.098 27.5912C204.391 27.9753 204.78 28.2755 205.225 28.4619C205.89 28.75 206.583 28.9697 207.293 29.1176C208.144 29.3182 209.206 29.5643 210.479 29.8557C211.633 30.0863 212.754 30.4581 213.817 30.9629C214.619 31.3452 215.353 31.8586 215.988 32.4821C216.511 33.0109 216.911 33.6498 217.157 34.3525C217.395 35.0443 217.516 35.7708 217.515 36.5024C217.51 37.3771 217.294 38.2376 216.886 39.0106C216.453 39.8429 215.842 40.5696 215.097 41.1389C214.233 41.7993 213.263 42.3071 212.229 42.6403C211.002 43.0314 209.721 43.2214 208.434 43.2028C207.157 43.2235 205.884 43.0482 204.66 42.6833C203.668 42.3833 202.72 41.9519 201.841 41.4005C201.146 40.9687 200.539 40.4081 200.053 39.7487C199.676 39.2654 199.443 38.6854 199.381 38.0754C199.364 37.9238 199.383 37.7706 199.436 37.6276C199.489 37.4847 199.574 37.3559 199.685 37.2513C199.797 37.1354 199.931 37.0437 200.08 36.9821C200.229 36.9205 200.389 36.8901 200.55 36.8929H202.113C202.317 36.8962 202.521 36.9178 202.721 36.9574C202.995 37.0324 203.228 37.2127 203.369 37.4591C203.859 38.1163 204.52 38.6267 205.279 38.9353C206.289 39.3176 207.365 39.4942 208.444 39.4549C209.079 39.455 209.711 39.3828 210.329 39.2399C210.904 39.1122 211.458 38.9073 211.978 38.6308C212.421 38.4011 212.812 38.0828 213.126 37.6956C213.403 37.3597 213.553 36.9377 213.552 36.5024Z" fill="#8C82FF"/>
<path d="M225.563 32.9817C225.642 34.0026 225.898 35.0018 226.321 35.9342C226.667 36.6853 227.153 37.3638 227.752 37.9335C228.295 38.4435 228.938 38.8351 229.64 39.0837C230.323 39.3246 231.041 39.4458 231.765 39.442C232.996 39.4785 234.217 39.2102 235.32 38.6609C236.359 38.0785 237.17 37.1601 237.62 36.056C237.749 35.6966 237.965 35.3752 238.25 35.1208C238.484 34.9561 238.765 34.8719 239.051 34.8807H240.353C240.67 34.8849 240.973 35.0135 241.197 35.239C241.313 35.3408 241.404 35.4692 241.46 35.6132C241.517 35.7572 241.538 35.9128 241.522 36.0667C241.463 36.8658 241.234 37.6429 240.85 38.3456C240.386 39.2288 239.753 40.0117 238.986 40.6495C236.967 42.3471 234.4 43.2502 231.765 43.19C230.317 43.2167 228.88 42.951 227.537 42.4089C226.361 41.9227 225.298 41.1981 224.414 40.2805C223.549 39.3639 222.871 38.2867 222.419 37.1094C221.936 35.8603 221.665 34.539 221.617 33.2002C221.589 32.7344 221.567 32.1647 221.553 31.4839C221.531 30.8955 221.553 30.3063 221.617 29.721C221.72 28.3768 222.019 27.0549 222.504 25.7975C222.957 24.6253 223.627 23.5494 224.479 22.6265C225.346 21.7097 226.395 20.9847 227.558 20.4981C228.893 19.9546 230.324 19.6888 231.765 19.717C233.194 19.6888 234.616 19.9395 235.95 20.4551C237.05 20.8872 238.075 21.4919 238.986 22.2467C239.753 22.8845 240.386 23.6674 240.85 24.5506C241.24 25.2663 241.47 26.0587 241.522 26.8725C241.538 27.0264 241.517 27.182 241.46 27.326C241.404 27.47 241.313 27.5983 241.197 27.7002C240.974 27.927 240.67 28.0559 240.353 28.0585H239.051C238.765 28.0673 238.484 27.9831 238.25 27.8184C237.962 27.5625 237.745 27.2367 237.62 26.8725C237.17 25.7684 236.359 24.85 235.32 24.2675C234.217 23.7183 232.996 23.45 231.765 23.4864C231.034 23.4838 230.309 23.6049 229.619 23.8447C228.909 24.0909 228.259 24.4827 227.709 24.9949C227.11 25.5646 226.624 26.2431 226.278 26.9943C225.858 27.925 225.615 28.9265 225.563 29.9468C225.477 30.9566 225.477 31.9719 225.563 32.9817Z" fill="#8C82FF"/>
<path d="M255.962 19.7332C257.382 19.7087 258.794 19.9517 260.125 20.4499C261.288 20.8925 262.35 21.5652 263.248 22.4277C264.136 23.2956 264.838 24.3371 265.308 25.4877C265.828 26.7428 266.144 28.0737 266.241 29.4292C266.273 29.7387 266.287 30.0497 266.284 30.3608V32.6074C266.288 32.9042 266.273 33.2009 266.241 33.496C266.117 34.8495 265.796 36.1775 265.286 37.4374C264.825 38.5813 264.131 39.6161 263.248 40.4759C262.35 41.3384 261.288 42.0111 260.125 42.4538C257.431 43.4093 254.492 43.4093 251.798 42.4538C250.637 42.0099 249.577 41.3373 248.679 40.4759C247.794 39.6133 247.093 38.5796 246.619 37.4374C246.096 36.1833 245.78 34.852 245.685 33.496C245.657 33.2667 245.635 32.9693 245.621 32.6074C245.607 32.2455 245.6 31.8693 245.6 31.4787C245.6 31.0881 245.6 30.7119 245.621 30.3464C245.643 29.981 245.657 29.6728 245.685 29.4148C245.783 28.0593 246.099 26.7285 246.619 25.4734C247.089 24.3228 247.791 23.2813 248.679 22.4134C249.577 21.552 250.637 20.8794 251.798 20.4355C253.13 19.943 254.542 19.7047 255.962 19.7332ZM262.296 33.2882C262.358 32.6931 262.387 32.0949 262.382 31.4966C262.387 30.8792 262.358 30.262 262.296 29.6477C262.216 28.8153 262.026 27.9972 261.731 27.2148C261.459 26.4894 261.046 25.8256 260.515 25.262C259.978 24.6984 259.328 24.254 258.609 23.9577C256.902 23.3222 255.025 23.3222 253.318 23.9577C252.598 24.2548 251.948 24.699 251.408 25.262C250.886 25.8241 250.48 26.4841 250.214 27.204C249.917 27.9859 249.727 28.8043 249.649 29.637C249.587 30.2513 249.558 30.8685 249.563 31.4859C249.558 32.0842 249.586 32.6823 249.649 33.2774C249.726 34.1138 249.916 34.9359 250.214 35.7211C250.484 36.4463 250.897 37.1102 251.426 37.6739C251.966 38.2369 252.616 38.6811 253.336 38.9782C255.043 39.6137 256.92 39.6137 258.626 38.9782C259.346 38.6819 259.995 38.2375 260.533 37.6739C261.064 37.1103 261.477 36.4465 261.749 35.7211C262.038 34.938 262.222 34.1198 262.296 33.2882Z" fill="#8C82FF"/>
<path d="M282.405 43.1926C280.615 43.1926 279.184 42.8809 278.113 42.2574C277.179 41.7519 276.353 41.0663 275.684 40.2401V49.8393C275.685 49.9945 275.653 50.1481 275.592 50.2905C275.53 50.4329 275.44 50.5611 275.327 50.667C275.221 50.7793 275.093 50.869 274.952 50.9306C274.811 50.9921 274.658 51.0244 274.504 51.0253H272.898C272.588 51.0216 272.293 50.8965 272.074 50.6768C271.855 50.4571 271.731 50.1603 271.729 49.8501V21.3392C271.732 21.0296 271.857 20.7338 272.075 20.5148C272.294 20.2959 272.589 20.1713 272.898 20.1675H274.536C274.69 20.1685 274.843 20.2007 274.984 20.2623C275.126 20.3239 275.253 20.4135 275.359 20.5259C275.472 20.6314 275.562 20.759 275.623 20.9007C275.685 21.0425 275.717 21.1954 275.717 21.35V22.6972C276.384 21.8408 277.227 21.1372 278.188 20.6333C279.259 20.0433 280.675 19.7471 282.438 19.7447C283.737 19.7339 285.026 19.9773 286.233 20.4614C287.386 20.9256 288.428 21.6289 289.291 22.5252C290.177 23.4661 290.875 24.568 291.347 25.7715C291.887 27.1443 292.195 28.5973 292.259 30.0713C292.288 30.5048 292.302 30.9742 292.302 31.483C292.302 31.9918 292.302 32.4576 292.259 32.8948C292.195 34.3687 291.887 35.8217 291.347 37.1945C290.871 38.3958 290.164 39.4915 289.266 40.4193C288.398 41.3045 287.357 41.9999 286.207 42.4617C285 42.9515 283.708 43.1999 282.405 43.1926ZM275.695 29.5947C275.667 30.0283 275.652 30.6016 275.652 31.311C275.652 32.0205 275.652 32.5938 275.695 33.0273C275.781 35.084 276.395 36.6702 277.537 37.7857C278.679 38.9013 280.161 39.4578 281.983 39.4554C283.891 39.4554 285.394 38.8475 286.494 37.6316C287.593 36.4158 288.2 34.7651 288.314 32.6798C288.343 31.87 288.343 31.0566 288.314 30.2468C288.2 28.1615 287.593 26.5108 286.494 25.295C285.394 24.0791 283.891 23.4712 281.983 23.4712C280.349 23.4113 278.757 24.0042 277.559 25.1194C276.405 26.223 275.783 27.7148 275.695 29.5947Z" fill="#8C82FF"/>
<path d="M296.643 29.2886C296.747 27.9987 297.07 26.736 297.598 25.5549C298.093 24.4285 298.783 23.3987 299.636 22.5129C300.49 21.6326 301.515 20.9374 302.648 20.4705C303.897 19.9636 305.235 19.7126 306.583 19.7324C308.014 19.7092 309.435 19.9673 310.767 20.492C311.965 20.9803 313.039 21.7293 313.911 22.6849C314.808 23.6932 315.486 24.8766 315.904 26.1605C316.385 27.6322 316.619 29.1734 316.598 30.7218V31.8899C316.594 32.1995 316.47 32.4954 316.251 32.7143C316.032 32.9332 315.737 33.0579 315.428 33.0616H300.502V33.3231C300.559 35.2939 301.155 36.8071 302.29 37.8629C303.461 38.9304 305.001 39.4985 306.583 39.4467C308.171 39.4467 309.363 39.2233 310.159 38.7766C310.879 38.3849 311.531 37.8778 312.087 37.2753C312.265 37.0872 312.47 36.9266 312.695 36.7988C312.942 36.6979 313.209 36.6526 313.475 36.6662H314.777C315.101 36.672 315.412 36.7999 315.646 37.0245C315.767 37.1215 315.859 37.2501 315.912 37.3961C315.965 37.5421 315.977 37.6999 315.947 37.8522C315.822 38.469 315.571 39.0533 315.21 39.5685C314.741 40.2551 314.145 40.845 313.454 41.3063C312.572 41.8963 311.608 42.3504 310.592 42.6536C309.291 43.0372 307.939 43.2197 306.583 43.1946C305.242 43.2151 303.912 42.9564 302.677 42.435C301.545 41.9467 300.521 41.2378 299.665 40.3496C298.793 39.4421 298.094 38.3818 297.605 37.2216C297.07 35.9701 296.747 34.638 296.65 33.2801C296.505 31.9537 296.502 30.6155 296.643 29.2886ZM300.502 29.4211H312.688V29.2886C312.688 27.5233 312.131 26.1115 311.018 25.0533C309.904 23.9951 308.423 23.4672 306.575 23.4696C305.773 23.4609 304.977 23.6006 304.225 23.8816C303.52 24.147 302.872 24.5446 302.315 25.0533C301.759 25.5712 301.317 26.1997 301.017 26.8986C300.692 27.6544 300.514 28.4657 300.495 29.2886L300.502 29.4211Z" fill="#8C82FF"/>
</svg>
