<svg width="215" height="56" viewBox="0 0 215 56" fill="none" xmlns="http://www.w3.org/2000/svg">
<g clip-path="url(#clip0_198_1665)">
<path d="M59.6875 12.1754V12.099C59.6875 10.0366 61.1035 8.58521 62.9999 8.58521C64.5676 8.58521 65.7813 9.37453 65.933 10.9914H64.6434C64.5043 10.0747 63.9986 9.60369 63.0125 9.60369C61.8115 9.60369 61.0276 10.5458 61.0276 12.0863V12.1626C61.0276 13.7158 61.7609 14.6198 63.0252 14.6198C63.9734 14.6198 64.6434 14.136 64.7698 13.1684H66.0088C65.8065 14.8235 64.6434 15.6637 63.0252 15.6637C60.8886 15.6637 59.6875 14.2887 59.6875 12.1754Z" fill="#8C82FF"/>
<path d="M67.2832 12.1746V12.0982C67.2832 10.0867 68.7118 8.59717 70.7346 8.59717C72.7575 8.59717 74.1734 10.0485 74.1734 12.06V12.1364C74.1734 14.1479 72.808 15.6502 70.7346 15.6502C68.6486 15.6629 67.2832 14.1607 67.2832 12.1746ZM72.8586 12.1619V12.0855C72.8586 10.6723 72.0748 9.62839 70.7346 9.62839C69.3945 9.62839 68.6107 10.6214 68.6107 12.0982V12.1746C68.6107 13.6769 69.521 14.6444 70.7599 14.6444C72.0495 14.6317 72.8586 13.6514 72.8586 12.1619Z" fill="#8C82FF"/>
<path d="M75.7285 8.69873H77.2456L80.1155 13.6639V8.69873H81.266V15.5735H79.9512L76.879 10.3029V15.5735H75.7285V8.69873Z" fill="#8C82FF"/>
<path d="M82.8984 13.4323H84.1248C84.2133 14.1198 84.4914 14.7054 85.6419 14.7054C86.4005 14.7054 86.9314 14.2853 86.9314 13.6487C86.9314 13.0121 86.6154 12.7703 85.5155 12.592C83.8846 12.3756 83.1134 11.8663 83.1134 10.5805C83.1134 9.46016 84.0616 8.60718 85.4902 8.60718C86.9567 8.60718 87.8417 9.28193 87.9681 10.5932H86.805C86.6786 9.86756 86.274 9.56201 85.4902 9.56201C84.7063 9.56201 84.3144 9.93121 84.3144 10.4659C84.3144 11.0261 84.542 11.3062 85.7304 11.4717C87.336 11.6881 88.1704 12.1592 88.1704 13.5341C88.1704 14.7308 87.1717 15.6602 85.6545 15.6602C83.7708 15.6602 82.9869 14.7308 82.8984 13.4323Z" fill="#8C82FF"/>
<path d="M89.8008 8.69873H94.074V9.70449H91.0777V11.5887H93.4798V12.5563H91.0777V14.5678H94.2384V15.5735H89.8134L89.8008 8.69873Z" fill="#8C82FF"/>
<path d="M95.8574 8.69897H97.3745L100.244 13.6641V8.69897H101.395V15.5738H100.08L97.0079 10.3031V15.5738H95.8574V8.69897Z" fill="#8C82FF"/>
<path d="M103.023 13.4323H104.25C104.338 14.1198 104.616 14.7054 105.767 14.7054C106.525 14.7054 107.056 14.2853 107.056 13.6487C107.056 13.0121 106.74 12.7703 105.64 12.592C104.01 12.3756 103.238 11.8663 103.238 10.5805C103.238 9.46016 104.187 8.60718 105.615 8.60718C107.082 8.60718 107.967 9.28193 108.093 10.5932H106.93C106.804 9.86756 106.399 9.56201 105.615 9.56201C104.831 9.56201 104.439 9.93121 104.439 10.4659C104.439 11.0261 104.667 11.3062 105.855 11.4717C107.461 11.6881 108.283 12.1592 108.283 13.5341C108.283 14.7308 107.284 15.6602 105.78 15.6602C103.896 15.6602 103.112 14.7308 103.023 13.4323Z" fill="#8C82FF"/>
<path d="M111.244 12.5945L108.98 8.69873H110.384L111.926 11.5378L113.418 8.69873H114.657L112.52 12.5945V15.5608H111.244V12.5945Z" fill="#8C82FF"/>
<path d="M115.365 13.4325H116.592C116.68 14.12 116.958 14.7056 118.109 14.7056C118.867 14.7056 119.398 14.2855 119.398 13.6489C119.398 13.0124 119.082 12.7705 117.982 12.5923C116.351 12.3758 115.58 11.8666 115.58 10.5807C115.58 9.46041 116.528 8.60742 117.957 8.60742C119.424 8.60742 120.309 9.28217 120.435 10.5935H119.272C119.145 9.8678 118.741 9.56226 117.957 9.56226C117.173 9.56226 116.781 9.93146 116.781 10.4662C116.781 11.0263 117.009 11.3064 118.197 11.4719C119.803 11.6884 120.637 12.1594 120.637 13.5344C120.637 14.7311 119.638 15.6605 118.121 15.6605C116.25 15.6605 115.466 14.7311 115.365 13.4325Z" fill="#8C82FF"/>
<path d="M60.2031 21.1732C60.2031 20.9568 60.3801 20.7786 60.595 20.7786H68.6863C77.789 20.7786 82.2772 25.7437 82.2772 33.5479V33.8407C82.2772 41.6576 77.7511 46.8774 68.6484 46.8774H60.595C60.3801 46.8774 60.2031 46.6991 60.2031 46.4827V21.1732ZM68.4714 42.2687C73.6928 42.2687 76.1581 39.3151 76.1581 33.9171V33.6243C76.1581 28.2645 73.8698 25.3745 68.4082 25.3745H66.082V42.2687H68.4714Z" fill="#8C82FF"/>
<path d="M84.0996 22.3094C84.0996 20.667 85.4018 19.4321 87.0706 19.4321C88.7774 19.4321 90.0796 20.6798 90.0796 22.3094C90.0796 23.9389 88.7774 25.1866 87.0706 25.1866C85.4018 25.1993 84.0996 23.9517 84.0996 22.3094ZM84.8835 27.7837H89.321C89.5359 27.7837 89.7129 27.962 89.7129 28.1784V46.4857C89.7129 46.7022 89.5359 46.8804 89.321 46.8804H84.8835C84.6685 46.8804 84.4915 46.7022 84.4915 46.4857V28.1784C84.4915 27.962 84.6685 27.7837 84.8835 27.7837Z" fill="#8C82FF"/>
<path d="M93.7962 19.1365H98.2338C98.4487 19.1365 98.6257 19.3147 98.6257 19.5311V46.4829C98.6257 46.6993 98.4487 46.8776 98.2338 46.8776H93.7962C93.5813 46.8776 93.4043 46.6993 93.4043 46.4829V19.5311C93.4043 19.3147 93.5813 19.1365 93.7962 19.1365Z" fill="#8C82FF"/>
<path d="M101.887 22.3094C101.887 20.667 103.189 19.4321 104.858 19.4321C106.564 19.4321 107.867 20.6798 107.867 22.3094C107.867 23.9389 106.564 25.1866 104.858 25.1866C103.189 25.1993 101.887 23.9517 101.887 22.3094ZM102.671 27.7837H107.108C107.323 27.7837 107.5 27.962 107.5 28.1784V46.4857C107.5 46.7022 107.323 46.8804 107.108 46.8804H102.671C102.456 46.8804 102.279 46.7022 102.279 46.4857V28.1784C102.291 27.962 102.456 27.7837 102.671 27.7837Z" fill="#8C82FF"/>
<path d="M110.61 47.2733H115.06C115.237 47.2733 115.389 47.3879 115.439 47.5661C115.844 49.0811 117.057 50.0487 119.573 50.0487C122.759 50.0487 124.352 48.3682 124.352 45.3764V42.4991C123.088 44.6762 120.774 46.0257 118.259 46.0384C113.657 46.0384 109.99 42.5755 109.99 36.9102V36.6556C109.99 31.1812 113.619 27.3491 118.322 27.3491C121.407 27.3491 123.252 28.6986 124.34 30.6337V28.1766C124.34 27.9602 124.517 27.782 124.732 27.782H129.169C129.384 27.782 129.561 27.9602 129.561 28.1766V45.3764C129.523 51.029 125.794 53.919 119.561 53.919C113.682 53.919 110.875 51.4237 110.205 47.7444C110.167 47.5279 110.306 47.3242 110.521 47.286C110.559 47.2733 110.584 47.2733 110.61 47.2733ZM124.504 36.8338V36.5792C124.504 33.3327 122.797 31.3594 119.94 31.3594C117.007 31.3594 115.376 33.4728 115.376 36.6174V36.9102C115.376 40.0802 117.222 42.0536 119.839 42.0536C122.582 42.0536 124.504 40.0802 124.504 36.8338Z" fill="#8C82FF"/>
<path d="M131.434 37.5722V37.2794C131.434 31.2576 135.669 27.3491 141.181 27.3491C146.074 27.3491 150.423 30.2264 150.423 37.063V38.1324C150.423 38.3488 150.246 38.527 150.031 38.527H136.756C136.908 41.6971 138.602 43.5304 141.472 43.5304C143.748 43.5304 144.949 42.601 145.353 41.1496C145.404 40.9841 145.555 40.8696 145.72 40.8696H149.917C150.132 40.8696 150.309 41.0478 150.309 41.2642C150.309 41.2897 150.309 41.3152 150.296 41.3406C149.513 45.16 146.301 47.286 141.32 47.286C135.593 47.2733 131.434 43.6577 131.434 37.5722ZM145.303 35.2679C145.126 32.3906 143.672 31.003 141.168 31.003C138.817 31.003 137.224 32.5689 136.819 35.2679H145.303Z" fill="#8C82FF"/>
<path d="M152.722 27.782H157.197C157.412 27.782 157.589 27.9602 157.589 28.1766V30.812C158.525 28.915 160.598 27.3491 163.746 27.3491C167.476 27.3491 170.131 29.6153 170.131 34.7204V46.484C170.131 46.7004 169.954 46.8787 169.739 46.8787H165.263C165.049 46.8787 164.872 46.7004 164.872 46.484V35.497C164.872 32.8999 163.86 31.665 161.534 31.665C159.284 31.665 157.589 33.0527 157.589 35.8662V46.4967C157.589 46.7131 157.412 46.8914 157.197 46.8914H152.722C152.507 46.8914 152.33 46.7131 152.33 46.4967V28.1766C152.33 27.9602 152.507 27.782 152.722 27.782Z" fill="#8C82FF"/>
<path d="M171.801 37.5725V37.2796C171.801 31.1178 176.188 27.3494 181.586 27.3494C185.847 27.3494 189.804 29.1826 190.461 34.3133C190.487 34.5297 190.335 34.7334 190.12 34.7589C190.107 34.7589 190.082 34.7589 190.069 34.7589H185.859C185.682 34.7589 185.518 34.6316 185.48 34.4533C185.05 32.4418 183.735 31.5124 181.7 31.5124C178.982 31.5124 177.174 33.5622 177.174 37.2032V37.4961C177.174 41.3281 178.881 43.3015 181.814 43.3015C183.824 43.3015 185.467 42.1684 185.834 39.9404C185.859 39.7495 186.024 39.6222 186.213 39.6222H190.196C190.411 39.6222 190.588 39.8004 190.588 40.0168C190.588 40.0296 190.588 40.0423 190.588 40.055C190.12 44.3454 186.896 47.2863 181.561 47.2863C176.011 47.2736 171.801 43.8107 171.801 37.5725Z" fill="#8C82FF"/>
<path d="M191.916 37.5725V37.2796C191.916 31.2578 196.151 27.3494 201.663 27.3494C206.556 27.3494 210.905 30.2266 210.905 37.0632V38.1326C210.905 38.349 210.728 38.5273 210.513 38.5273H197.239C197.39 41.6973 199.084 43.5306 201.954 43.5306C204.23 43.5306 205.431 42.6012 205.836 41.1499C205.886 40.9844 206.038 40.8571 206.215 40.8698H210.412C210.627 40.8698 210.804 41.048 210.804 41.2645C210.804 41.2899 210.804 41.3154 210.791 41.3409C210.008 45.1602 206.796 47.2863 201.815 47.2863C196.088 47.2736 191.916 43.6579 191.916 37.5725ZM205.798 35.2681C205.621 32.3909 204.167 31.0032 201.663 31.0032C199.312 31.0032 197.719 32.5691 197.314 35.2681H205.798Z" fill="#8C82FF"/>
<path d="M27.3713 0.00268555C12.2634 0.00268555 0 12.3519 0 27.5656C0 42.7792 12.2634 55.1412 27.3713 55.1412C42.4793 55.1412 54.7553 42.792 54.7553 27.5656C54.7553 12.3391 42.4919 0.00268555 27.3713 0.00268555ZM20.2535 42.6647C20.2535 42.8047 20.1397 42.9193 20.0007 42.9193H14.6655C14.5264 42.9193 14.4126 42.8047 14.4126 42.6647V21.8238C14.4126 21.6838 14.5264 21.5692 14.6655 21.5692H20.0007C20.1397 21.5692 20.2535 21.6838 20.2535 21.8238V42.6647ZM17.3204 18.6665C15.462 18.6665 13.9954 17.2788 13.9954 15.4455C13.9954 13.6123 15.462 12.2246 17.3204 12.2246C19.2295 12.2246 20.6834 13.6123 20.6834 15.4455C20.6834 17.2788 19.2295 18.6665 17.3204 18.6665ZM30.3676 42.6519C30.3676 42.792 30.2539 42.9066 30.1148 42.9066H24.7796C24.6405 42.9066 24.5267 42.792 24.5267 42.6519V12.4792C24.5267 12.3391 24.6405 12.2246 24.7796 12.2246H30.1148C30.2539 12.2246 30.3676 12.3391 30.3676 12.4792V42.6519ZM40.4691 42.6647C40.4691 42.8047 40.3553 42.9193 40.2163 42.9193H34.8937C34.7546 42.9193 34.6409 42.8047 34.6409 42.6647V21.8238C34.6409 21.6838 34.7546 21.5692 34.8937 21.5692H40.2289C40.368 21.5692 40.4818 21.6838 40.4818 21.8238V42.6647H40.4691ZM40.7599 18.4246C40.7599 18.5647 40.6461 18.6792 40.507 18.6792H34.6156C34.4765 18.6792 34.3627 18.5647 34.3627 18.4246V12.4792C34.3627 12.3391 34.4765 12.2246 34.6156 12.2246H40.507C40.6461 12.2246 40.7599 12.3391 40.7599 12.4792V18.4246Z" fill="#8C82FF"/>
</g>
<defs>
<clipPath id="clip0_198_1665">
<rect width="214.2" height="56" fill="white" transform="translate(0 0.000244141)"/>
</clipPath>
</defs>
</svg>
