<svg width="209" height="99" viewBox="0 0 209 99" fill="none" xmlns="http://www.w3.org/2000/svg">
  <g clip-path="url(#clip0_2618_41687)">
    <path d="M81.2998 40.9799H84.3998L85.1298 42.8999H85.9698L83.3298 35.8999H82.4398L79.7798 42.8999H80.5798L81.2998 40.9799ZM82.4398 37.9799L82.6198 37.4799L82.7998 36.9699L82.8598 36.7699L82.9198 36.9299C82.9698 37.0999 83.0298 37.2799 83.0898 37.4599C83.1498 37.6399 83.2198 37.8199 83.2698 37.9799C83.3198 38.1399 83.3797 38.2999 83.4297 38.4299L84.1198 40.2699H81.5898L82.2598 38.4799L82.4398 37.9799Z" fill="white" />
    <path d="M90.01 35.9399H89.23V42.8999H93.35V42.1399H90.01V35.9399Z" fill="white" />
    <path d="M97.6198 40.1599H99.6198C99.9748 40.1663 100.323 40.0652 100.62 39.8699C100.912 39.6809 101.15 39.419 101.31 39.11C101.49 38.772 101.58 38.393 101.57 38.01C101.578 37.6399 101.488 37.2744 101.31 36.95C101.147 36.6482 100.909 36.3934 100.62 36.21C100.319 36.0255 99.9722 35.9318 99.6198 35.9399H96.8599V42.9399H97.6398L97.6198 40.1599ZM97.6198 36.7H99.6198C99.8158 36.7015 100.007 36.7606 100.17 36.8699C100.335 36.9934 100.469 37.1545 100.56 37.3399C100.663 37.5444 100.715 37.771 100.71 37.9999C100.714 38.2481 100.663 38.4942 100.56 38.7199C100.469 38.9141 100.336 39.0851 100.17 39.2199C100.01 39.3369 99.8176 39.4 99.6198 39.4H97.6198V36.7Z" fill="white" />
    <path d="M109.66 39.0499H105.79V35.9399H105.01V42.8999H105.79V39.7999H109.66V42.8999H110.44V35.9399H109.66V39.0499Z" fill="white" />
    <path d="M115.22 40.9799H118.32L119.04 42.8999H119.89L117.24 35.8999H116.36L113.7 42.8999H114.49L115.22 40.9799ZM116.36 37.9799L116.54 37.4799C116.6 37.3099 116.66 37.1399 116.71 36.9699C116.738 36.9048 116.761 36.838 116.78 36.7699C116.78 36.7699 116.78 36.8699 116.78 36.9299L116.96 37.4599C117.02 37.6399 117.08 37.8199 117.14 37.9799C117.2 38.1399 117.25 38.2999 117.29 38.4299L117.99 40.2699H115.45L116.13 38.4799L116.36 37.9799Z" fill="white" />
    <path d="M88.2601 49.01V51.94C88.2594 52.0209 88.2379 52.1001 88.1976 52.1702C88.1573 52.2403 88.0996 52.2988 88.0301 52.3401L83.1901 55.13C83.12 55.1705 83.0405 55.1918 82.9597 55.1917C82.8788 55.1916 82.7993 55.1702 82.7294 55.1296C82.6594 55.089 82.6014 55.0308 82.5611 54.9606C82.5208 54.8904 82.4998 54.8109 82.5001 54.73V49.01C82.5001 48.888 82.4516 48.7711 82.3654 48.6848C82.2791 48.5985 82.1621 48.55 82.0401 48.55H80.0401C79.9797 48.55 79.9199 48.5619 79.8641 48.5851C79.8083 48.6082 79.7575 48.6421 79.7148 48.6848C79.6721 48.7275 79.6382 48.7782 79.6151 48.834C79.592 48.8898 79.5801 48.9496 79.5801 49.01V61.94C79.5801 62.0004 79.592 62.0602 79.6151 62.1161C79.6382 62.1719 79.6721 62.2226 79.7148 62.2653C79.7575 62.308 79.8083 62.3419 79.8641 62.365C79.9199 62.3881 79.9797 62.4001 80.0401 62.4001H82.0401C82.1621 62.4001 82.2791 62.3516 82.3654 62.2653C82.4516 62.179 82.5001 62.062 82.5001 61.94V58.94C82.5017 58.8594 82.5236 58.7805 82.5638 58.7106C82.604 58.6407 82.6613 58.5821 82.7301 58.5401L87.5701 55.75C87.6401 55.7096 87.7196 55.6883 87.8005 55.6884C87.8814 55.6885 87.9608 55.7099 88.0308 55.7505C88.1007 55.791 88.1588 55.8493 88.199 55.9195C88.2393 55.9896 88.2604 56.0692 88.2601 56.1501V61.98C88.2601 62.102 88.3086 62.2191 88.3948 62.3053C88.4811 62.3916 88.5981 62.44 88.7201 62.44H90.7201C90.8421 62.44 90.9591 62.3916 91.0453 62.3053C91.1316 62.2191 91.1801 62.102 91.1801 61.98V49.01C91.1801 48.888 91.1316 48.7711 91.0453 48.6848C90.9591 48.5985 90.8421 48.55 90.7201 48.55H88.7201C88.5981 48.55 88.4811 48.5985 88.3948 48.6848C88.3086 48.7711 88.2601 48.888 88.2601 49.01Z" fill="white" />
    <path d="M101.96 62.6001C100.997 62.6096 100.043 62.4295 99.1499 62.0701C98.3086 61.7227 97.5441 61.213 96.8999 60.5701C96.2573 59.9219 95.7537 59.1495 95.4199 58.3C95.0736 57.3867 94.9007 56.4168 94.9099 55.4401C94.8969 54.463 95.0699 53.4924 95.4199 52.5801C95.7562 51.7319 96.2594 50.9599 96.8999 50.3101C97.5388 49.6608 98.3048 49.1502 99.1499 48.8101C100.958 48.0903 102.972 48.0903 104.78 48.8101C105.621 49.1574 106.384 49.6714 107.021 50.321C107.659 50.9706 108.158 51.7424 108.49 52.5901C109.17 54.4293 109.17 56.4509 108.49 58.2901C108.16 59.1415 107.656 59.9146 107.01 60.5601C106.374 61.2066 105.616 61.72 104.78 62.0701C103.884 62.4305 102.926 62.6107 101.96 62.6001ZM101.96 59.7901C102.513 59.7942 103.061 59.6853 103.57 59.4701C104.059 59.2667 104.497 58.9557 104.85 58.5601C105.21 58.1537 105.494 57.6864 105.69 57.18C106.103 56.0534 106.103 54.8167 105.69 53.6901C105.492 53.1879 105.208 52.7243 104.85 52.3201C104.492 51.9305 104.056 51.6205 103.57 51.4101C103.061 51.1922 102.513 51.0798 101.96 51.0798C101.406 51.0798 100.859 51.1922 100.35 51.4101C99.8685 51.6281 99.4339 51.9371 99.0698 52.3201C98.6985 52.714 98.4125 53.1804 98.2299 53.6901C97.8436 54.8213 97.8436 56.0488 98.2299 57.18C98.4099 57.6939 98.6961 58.1641 99.0698 58.5601C99.4285 58.9492 99.8645 59.2592 100.35 59.4701C100.859 59.6853 101.407 59.7942 101.96 59.7901V59.7901Z" fill="white" />
    <path d="M123.63 48.7701L119.95 54.6801C119.907 54.7461 119.849 54.8005 119.78 54.8381C119.711 54.8757 119.633 54.8954 119.555 54.8954C119.476 54.8954 119.399 54.8757 119.33 54.8381C119.261 54.8005 119.202 54.7461 119.16 54.6801L115.53 48.7701C115.49 48.7019 115.434 48.6455 115.365 48.6068C115.296 48.5681 115.219 48.5485 115.14 48.5501H113.14C113.079 48.5488 113.019 48.5597 112.962 48.5823C112.906 48.605 112.855 48.6388 112.812 48.6818C112.769 48.7248 112.735 48.776 112.712 48.8325C112.689 48.8889 112.678 48.9493 112.68 49.0101V61.9401C112.678 62.0009 112.689 62.0613 112.712 62.1178C112.735 62.1742 112.769 62.2254 112.812 62.2684C112.855 62.3114 112.906 62.3453 112.962 62.3679C113.019 62.3905 113.079 62.4015 113.14 62.4001H115.14C115.201 62.4015 115.261 62.3905 115.317 62.3679C115.374 62.3453 115.425 62.3114 115.468 62.2684C115.511 62.2254 115.545 62.1742 115.568 62.1178C115.59 62.0613 115.601 62.0009 115.6 61.9401V57.6501C115.6 56.3701 115.6 55.2701 115.52 54.3401C115.52 54.0501 115.52 53.7601 115.44 53.4801L118.71 58.6301C118.753 58.6939 118.811 58.7463 118.879 58.7828C118.947 58.8194 119.023 58.839 119.1 58.8401H119.91C119.986 58.84 120.06 58.8207 120.127 58.784C120.193 58.7473 120.249 58.6943 120.29 58.6301L123.64 53.4401C123.64 53.7801 123.57 54.1101 123.55 54.4401C123.49 55.3901 123.46 56.4401 123.46 57.6401V61.9301C123.46 61.9914 123.472 62.052 123.496 62.1085C123.52 62.165 123.554 62.2161 123.598 62.259C123.642 62.3018 123.694 62.3355 123.751 62.358C123.808 62.3805 123.869 62.3914 123.93 62.3901H125.93C125.991 62.3915 126.051 62.3805 126.107 62.3579C126.164 62.3353 126.215 62.3014 126.258 62.2584C126.301 62.2154 126.335 62.1642 126.358 62.1078C126.38 62.0513 126.391 61.9909 126.39 61.9301V49.0101C126.391 48.9493 126.38 48.8889 126.358 48.8325C126.335 48.776 126.301 48.7248 126.258 48.6818C126.215 48.6388 126.164 48.605 126.107 48.5823C126.051 48.5597 125.991 48.5488 125.93 48.5501H124.06C123.975 48.5444 123.89 48.5619 123.814 48.6007C123.739 48.6394 123.675 48.698 123.63 48.7701V48.7701Z" fill="white" />
    <path d="M137.09 62.6001C136.128 62.6088 135.173 62.4287 134.28 62.0701C133.439 61.7227 132.674 61.213 132.03 60.5701C131.387 59.9241 130.886 59.1509 130.56 58.3C130.21 57.3873 130.034 56.4174 130.04 55.4401C130.03 54.4624 130.207 53.4917 130.56 52.5801C130.89 51.731 131.39 50.9584 132.03 50.31C132.669 49.6616 133.435 49.1511 134.28 48.8101C136.088 48.0903 138.102 48.0903 139.91 48.8101C140.751 49.1529 141.513 49.6632 142.15 50.3101C142.793 50.9597 143.294 51.7362 143.62 52.5901C144.313 54.4268 144.313 56.4533 143.62 58.2901C143.293 59.1409 142.793 59.9141 142.15 60.5601C141.511 61.2069 140.749 61.7202 139.91 62.0701C139.014 62.4305 138.056 62.6107 137.09 62.6001V62.6001ZM137.09 59.7901C137.643 59.7942 138.191 59.6853 138.7 59.4701C139.189 59.2667 139.627 58.9557 139.98 58.5601C140.347 58.1589 140.632 57.6902 140.82 57.18C141.233 56.0534 141.233 54.8167 140.82 53.6901C140.63 53.1841 140.345 52.7192 139.98 52.3201C139.622 51.9305 139.186 51.6205 138.7 51.4101C138.193 51.187 137.644 51.0745 137.09 51.0801C136.539 51.0743 135.993 51.1869 135.49 51.4101C135.004 51.6247 134.565 51.934 134.2 52.3201C133.829 52.714 133.543 53.1804 133.36 53.6901C132.974 54.8213 132.974 56.0488 133.36 57.18C133.54 57.6939 133.826 58.1641 134.2 58.5601C134.56 58.9517 135 59.262 135.49 59.4701C135.996 59.6856 136.54 59.7945 137.09 59.7901V59.7901Z" fill="white" />
    <path d="M158.31 62.4201C158.392 62.4201 158.472 62.3987 158.544 62.3579C158.615 62.3171 158.674 62.2584 158.716 62.1877C158.757 62.1169 158.779 62.0365 158.78 61.9544C158.781 61.8724 158.76 61.7917 158.72 61.7201L155.98 56.9901C156.08 56.9401 156.19 56.9001 156.29 56.8401C156.98 56.4559 157.554 55.8928 157.952 55.2101C158.35 54.5274 158.556 53.7502 158.55 52.9601C158.565 52.1674 158.353 51.3869 157.94 50.7101C157.539 50.0474 156.969 49.5023 156.29 49.1301C155.573 48.7375 154.767 48.5376 153.95 48.5501H148.28C148.219 48.5501 148.16 48.562 148.104 48.5851C148.048 48.6082 147.997 48.6421 147.955 48.6848C147.912 48.7276 147.878 48.7783 147.855 48.8341C147.832 48.8899 147.82 48.9497 147.82 49.0101V61.9401C147.82 62.0005 147.832 62.0603 147.855 62.1161C147.878 62.1719 147.912 62.2226 147.955 62.2654C147.997 62.3081 148.048 62.342 148.104 62.3651C148.16 62.3882 148.219 62.4001 148.28 62.4001H150.28C150.402 62.4001 150.519 62.3516 150.605 62.2654C150.691 62.1791 150.74 62.0621 150.74 61.9401V57.9401C150.74 57.8181 150.788 57.7011 150.875 57.6148C150.961 57.5286 151.078 57.4801 151.2 57.4801H152.66C152.741 57.4808 152.82 57.5023 152.89 57.5426C152.96 57.5829 153.019 57.6406 153.06 57.7101L155.59 62.2101C155.633 62.2797 155.694 62.3373 155.765 62.3775C155.837 62.4177 155.918 62.4392 156 62.4401L158.31 62.4201ZM150.69 51.5801C150.692 51.4589 150.742 51.3434 150.827 51.2577C150.913 51.1719 151.029 51.1226 151.15 51.1201H153.44C153.838 51.1095 154.232 51.1953 154.59 51.3701C154.903 51.5159 155.164 51.7529 155.34 52.0501C155.513 52.3549 155.602 52.6997 155.6 53.0501C155.602 53.3956 155.526 53.7372 155.38 54.0501C155.246 54.3363 155.03 54.5764 154.76 54.7401C154.477 54.9111 154.151 54.9978 153.82 54.9901H151.15C151.029 54.9875 150.913 54.9383 150.827 54.8526C150.742 54.7669 150.692 54.6513 150.69 54.5301V51.5801Z" fill="white" />
    <path d="M171.77 62.4001H173.77C173.845 62.4005 173.92 62.3824 173.986 62.3474C174.053 62.3124 174.11 62.2616 174.153 62.1994C174.195 62.1372 174.222 62.0655 174.23 61.9906C174.238 61.9158 174.228 61.84 174.2 61.7701L169.2 48.84C169.166 48.7541 169.107 48.6804 169.03 48.6287C168.953 48.5769 168.863 48.5495 168.77 48.5501H166.77C166.678 48.5495 166.587 48.5769 166.51 48.6287C166.434 48.6804 166.374 48.7541 166.34 48.84L161.28 61.7701C161.252 61.84 161.242 61.9158 161.25 61.9906C161.259 62.0655 161.285 62.1372 161.328 62.1994C161.37 62.2616 161.427 62.3124 161.494 62.3474C161.561 62.3824 161.635 62.4005 161.71 62.4001H163.64C163.734 62.3998 163.825 62.3709 163.902 62.3173C163.979 62.2637 164.038 62.1879 164.07 62.1001L164.94 59.7901C164.974 59.7014 165.035 59.6253 165.114 59.5717C165.192 59.5181 165.285 59.4897 165.38 59.49H170.05C170.145 59.4897 170.238 59.5181 170.317 59.5717C170.395 59.6253 170.456 59.7014 170.49 59.7901L171.35 62.1001C171.382 62.1863 171.439 62.261 171.514 62.3145C171.589 62.368 171.678 62.3978 171.77 62.4001ZM166.62 57.1001C166.545 57.1005 166.471 57.0824 166.404 57.0474C166.337 57.0124 166.28 56.9616 166.238 56.8994C166.195 56.8372 166.169 56.7655 166.16 56.6906C166.152 56.6158 166.162 56.5401 166.19 56.4701L166.74 55L167.08 54.07C167.2 53.75 167.31 53.43 167.41 53.07C167.51 52.71 167.62 52.41 167.72 52.07L168.03 53.07L168.37 54.07C168.49 54.4 168.58 54.67 168.66 54.88L169.23 56.4101C169.258 56.4801 169.268 56.5558 169.26 56.6307C169.252 56.7055 169.225 56.7772 169.183 56.8394C169.14 56.9016 169.083 56.9524 169.016 56.9874C168.95 57.0224 168.875 57.0405 168.8 57.0401L166.62 57.1001Z" fill="white" />
    <path d="M193.77 48.5501C193.675 48.5497 193.582 48.5782 193.503 48.6317C193.425 48.6853 193.364 48.7614 193.33 48.85L190.71 56.05C190.51 56.58 190.35 57.05 190.22 57.42C190.09 57.79 189.97 58.16 189.86 58.51V58.63C189.79 58.42 189.73 58.21 189.66 58C189.59 57.79 189.48 57.44 189.37 57.13C189.26 56.82 189.12 56.46 188.96 56.05L186.18 48.84C186.144 48.7548 186.085 48.6819 186.008 48.6304C185.932 48.5788 185.842 48.5509 185.75 48.5501H183.6C183.524 48.5496 183.45 48.5677 183.383 48.6027C183.317 48.6377 183.26 48.6885 183.217 48.7507C183.175 48.8129 183.148 48.8846 183.14 48.9594C183.132 49.0343 183.142 49.1101 183.17 49.1801L188.33 62.11C188.364 62.196 188.423 62.2697 188.5 62.3214C188.577 62.3732 188.667 62.4006 188.76 62.4001H190.76C190.851 62.3999 190.94 62.3721 191.015 62.3204C191.09 62.2686 191.147 62.1952 191.18 62.11L196.38 49.1801C196.408 49.1101 196.418 49.0343 196.41 48.9594C196.401 48.8846 196.375 48.8129 196.332 48.7507C196.29 48.6885 196.233 48.6377 196.166 48.6027C196.099 48.5677 196.025 48.5496 195.95 48.5501H193.77Z" fill="white" />
    <path d="M204 59.7299C203.911 59.7299 203.824 59.704 203.749 59.6553C203.674 59.6067 203.615 59.5373 203.579 59.4557C203.543 59.3741 203.532 59.2838 203.546 59.1957C203.56 59.1077 203.6 59.0258 203.66 58.9599L204.98 57.5099C205.38 57.0799 205.73 56.6599 206.04 56.2599C206.325 55.8922 206.589 55.5082 206.83 55.1099C207.033 54.7898 207.214 54.4556 207.37 54.1099C207.499 53.8039 207.596 53.4857 207.66 53.1599C207.727 52.8643 207.763 52.5628 207.77 52.2599C207.793 51.5481 207.609 50.8449 207.242 50.2347C206.875 49.6245 206.339 49.1333 205.7 48.8199C205.023 48.4938 204.281 48.3245 203.53 48.3245C202.779 48.3245 202.037 48.4938 201.36 48.8199C200.691 49.1288 200.098 49.5792 199.62 50.1399C199.199 50.6208 198.861 51.1682 198.62 51.7599C198.581 51.8658 198.581 51.982 198.619 52.0881C198.658 52.1941 198.732 52.2833 198.83 52.3399L200.26 53.1399C200.315 53.1704 200.376 53.1892 200.439 53.1951C200.502 53.201 200.566 53.194 200.626 53.1743C200.686 53.1546 200.741 53.1227 200.788 53.0806C200.836 53.0386 200.874 52.9873 200.9 52.9299C201.036 52.6507 201.201 52.3861 201.39 52.1399C201.622 51.8287 201.91 51.564 202.24 51.3599C202.541 51.1775 202.888 51.0839 203.24 51.0899C203.562 51.0808 203.881 51.1494 204.17 51.2899C204.41 51.4121 204.611 51.5992 204.75 51.8299C204.882 52.0791 204.947 52.358 204.94 52.6399C204.929 52.9443 204.858 53.2435 204.73 53.5199C204.567 53.872 204.369 54.207 204.14 54.5199C203.9 54.8499 203.65 55.1799 203.39 55.5199C203.13 55.8599 202.89 56.1099 202.67 56.3499L198.77 60.5699C198.713 60.6344 198.676 60.7136 198.661 60.7985C198.647 60.8833 198.657 60.9704 198.69 61.0499L199.12 62.1099C199.154 62.1958 199.214 62.2696 199.29 62.3213C199.367 62.373 199.458 62.4004 199.55 62.3999H207.92C208.042 62.3999 208.159 62.3514 208.245 62.2651C208.332 62.1789 208.38 62.0619 208.38 61.9399V60.1899C208.377 60.0687 208.328 59.9532 208.242 59.8674C208.157 59.7817 208.041 59.7324 207.92 59.7299H204Z" fill="white" />
    <path d="M58.49 70.3099L11.37 97.5099C10.218 98.175 8.9113 98.5253 7.58112 98.5255C6.25093 98.5256 4.9441 98.1758 3.79193 97.511C2.63976 96.8463 1.68282 95.8901 1.01721 94.7384C0.351608 93.5867 0.000784741 92.2801 0 90.95V34.8C0.000239813 33.4751 0.348655 32.1735 1.01031 31.0257C1.67198 29.8779 2.62366 28.9241 3.77002 28.2599L50.89 1.04996C52.0427 0.384439 53.3504 0.0341816 54.6814 0.034424C56.0124 0.0346664 57.3199 0.385392 58.4724 1.05133C59.6249 1.71727 60.5817 2.67493 61.2466 3.828C61.9115 4.98108 62.261 6.2889 62.26 7.61993V63.7599C62.2595 65.0861 61.9111 66.389 61.2496 67.5383C60.588 68.6877 59.6365 69.6434 58.49 70.3099V70.3099Z" fill="#0D285A" />
    <path d="M38.7701 35.3501V39.6501C38.7705 39.8892 38.7079 40.1242 38.5885 40.3314C38.4691 40.5385 38.2972 40.7106 38.0901 40.8301L25.5201 48.0901C25.3144 48.1998 25.0839 48.2549 24.8508 48.2499C24.6176 48.2449 24.3897 48.18 24.1889 48.0615C23.9881 47.943 23.8211 47.7749 23.704 47.5732C23.5869 47.3716 23.5236 47.1432 23.5201 46.9101V32.5101C23.5185 32.2709 23.4543 32.0363 23.3339 31.8296C23.2134 31.6229 23.0409 31.4514 22.8336 31.3321C22.6263 31.2127 22.3914 31.1498 22.1522 31.1494C21.913 31.1491 21.6778 31.2114 21.4702 31.3301L16.5502 34.1701C16.3438 34.2904 16.1724 34.4626 16.0531 34.6696C15.9338 34.8766 15.8707 35.1112 15.8701 35.3501V66.0301C15.8735 66.2633 15.9368 66.4916 16.054 66.6933C16.1711 66.8949 16.3381 67.063 16.5389 67.1815C16.7398 67.3 16.9677 67.3648 17.2008 67.3698C17.4339 67.3749 17.6644 67.3199 17.8701 67.2101L22.7902 64.3701C22.9972 64.2505 23.1691 64.0785 23.2885 63.8714C23.4079 63.6642 23.4705 63.4292 23.4702 63.1901V58.8901C23.4698 58.651 23.5324 58.416 23.6518 58.2088C23.7712 58.0017 23.9431 57.8297 24.1501 57.7101L36.7701 50.4501C36.9762 50.3433 37.2061 50.2905 37.4382 50.2969C37.6702 50.3033 37.8969 50.3685 38.0968 50.4865C38.2967 50.6044 38.4634 50.7712 38.5812 50.9713C38.699 51.1713 38.764 51.398 38.7701 51.6301V66.0301C38.7736 66.2633 38.8369 66.4916 38.954 66.6933C39.0711 66.8949 39.2381 67.063 39.4389 67.1815C39.6397 67.3 39.8676 67.3648 40.1008 67.3698C40.3339 67.3749 40.5644 67.3199 40.7701 67.2101L45.6901 64.3701C45.8997 64.2526 46.0743 64.0813 46.1956 63.8739C46.3169 63.6664 46.3805 63.4304 46.3801 63.1901V32.5101C46.374 32.278 46.3089 32.0514 46.1912 31.8513C46.0734 31.6513 45.9067 31.4844 45.7068 31.3665C45.5069 31.2485 45.2802 31.1833 45.0482 31.1769C44.8161 31.1706 44.5862 31.2233 44.3801 31.3301L39.4601 34.1701C39.2519 34.2892 39.0785 34.4608 38.9575 34.6679C38.8364 34.875 38.7718 35.1102 38.7701 35.3501V35.3501Z" fill="#F87C71" />
  </g>
  <defs>
    <clipPath id="clip0_2618_41687">
      <rect width="208.33" height="98.54" fill="white" />
    </clipPath>
  </defs>
</svg>