<svg width="40" height="40" viewBox="0 0 40 40" fill="none" xmlns="http://www.w3.org/2000/svg">
<rect width="40" height="40" rx="20" fill="#8C82FF"/>
<path d="M18.7499 21.04C18.7499 20.47 18.2799 20 17.7099 20C17.1399 20 16.6699 20.47 16.6699 21.04C16.6699 21.3158 16.7795 21.5804 16.9745 21.7754C17.1696 21.9704 17.4341 22.08 17.7099 22.08C17.9857 22.08 18.2503 21.9704 18.4453 21.7754C18.6404 21.5804 18.7499 21.3158 18.7499 21.04ZM22.0899 23.41C21.6399 23.86 20.6799 24.02 19.9999 24.02C19.3199 24.02 18.3599 23.86 17.9099 23.41C17.8856 23.384 17.8562 23.3632 17.8235 23.349C17.7908 23.3348 17.7556 23.3275 17.7199 23.3275C17.6843 23.3275 17.649 23.3348 17.6163 23.349C17.5837 23.3632 17.5542 23.384 17.5299 23.41C17.5039 23.4343 17.4831 23.4637 17.4689 23.4964C17.4547 23.5291 17.4474 23.5644 17.4474 23.6C17.4474 23.6356 17.4547 23.6709 17.4689 23.7036C17.4831 23.7363 17.5039 23.7657 17.5299 23.79C18.2399 24.5 19.5999 24.56 19.9999 24.56C20.3999 24.56 21.7599 24.5 22.4699 23.79C22.496 23.7657 22.5167 23.7363 22.5309 23.7036C22.5451 23.6709 22.5524 23.6356 22.5524 23.6C22.5524 23.5644 22.5451 23.5291 22.5309 23.4964C22.5167 23.4637 22.496 23.4343 22.4699 23.41C22.3699 23.31 22.1999 23.31 22.0899 23.41ZM22.2899 20C21.7199 20 21.2499 20.47 21.2499 21.04C21.2499 21.61 21.7199 22.08 22.2899 22.08C22.8599 22.08 23.3299 21.61 23.3299 21.04C23.3299 20.47 22.8699 20 22.2899 20Z" fill="white"/>
<path d="M20 10C14.48 10 10 14.48 10 20C10 25.52 14.48 30 20 30C25.52 30 30 25.52 30 20C30 14.48 25.52 10 20 10ZM25.8 21.33C25.82 21.47 25.83 21.62 25.83 21.77C25.83 24.01 23.22 25.83 20 25.83C16.78 25.83 14.17 24.01 14.17 21.77C14.17 21.62 14.18 21.47 14.2 21.33C13.69 21.1 13.34 20.59 13.34 20C13.3385 19.7132 13.4218 19.4324 13.5794 19.1929C13.737 18.9533 13.9619 18.7656 14.2258 18.6534C14.4897 18.5413 14.7808 18.5096 15.0627 18.5623C15.3446 18.6151 15.6045 18.75 15.81 18.95C16.82 18.22 18.22 17.76 19.77 17.71L20.51 14.22C20.52 14.15 20.56 14.09 20.62 14.06C20.68 14.02 20.75 14.01 20.82 14.02L23.24 14.54C23.3221 14.3736 23.4472 14.2321 23.6023 14.1304C23.7575 14.0286 23.9371 13.9702 24.1224 13.9612C24.3077 13.9522 24.4921 13.993 24.6564 14.0793C24.8207 14.1656 24.9589 14.2943 25.0566 14.452C25.1544 14.6097 25.2082 14.7907 25.2125 14.9762C25.2167 15.1617 25.1712 15.345 25.0808 15.507C24.9903 15.669 24.8582 15.8039 24.698 15.8976C24.5379 15.9913 24.3556 16.0405 24.17 16.04C23.61 16.04 23.16 15.6 23.13 15.05L20.96 14.59L20.3 17.71C21.83 17.76 23.2 18.23 24.2 18.95C24.3533 18.8036 24.5367 18.6925 24.7375 18.6244C24.9382 18.5563 25.1514 18.5329 25.3621 18.5558C25.5728 18.5787 25.776 18.6474 25.9574 18.757C26.1388 18.8667 26.2941 19.0146 26.4123 19.1905C26.5306 19.3664 26.609 19.5661 26.642 19.7754C26.6751 19.9848 26.662 20.1989 26.6037 20.4027C26.5454 20.6064 26.4432 20.795 26.3044 20.9552C26.1656 21.1154 25.9934 21.2433 25.8 21.33Z" fill="white"/>
</svg>
