<svg width="40" height="40" viewBox="0 0 40 40" fill="none" xmlns="http://www.w3.org/2000/svg">
<rect width="40" height="40" rx="20" fill="#8C82FF"/>
<path d="M14.9414 13C14.9411 13.5305 14.7302 14.0391 14.3549 14.4139C13.9797 14.7888 13.4708 14.9993 12.9404 14.999C12.41 14.9988 11.9014 14.7878 11.5265 14.4125C11.1516 14.0373 10.9411 13.5285 10.9414 12.998C10.9417 12.4676 11.1526 11.959 11.5279 11.5841C11.9032 11.2092 12.412 10.9988 12.9424 10.999C13.4728 10.9993 13.9814 11.2103 14.3563 11.5855C14.7312 11.9608 14.9417 12.4696 14.9414 13ZM15.0014 16.48H11.0014V29H15.0014V16.48ZM21.3214 16.48H17.3414V29H21.2814V22.43C21.2814 18.77 26.0514 18.43 26.0514 22.43V29H30.0014V21.07C30.0014 14.9 22.9414 15.13 21.2814 18.16L21.3214 16.48Z" fill="white"/>
</svg>
