<svg width="197" height="33" viewBox="0 0 197 33" fill="none" xmlns="http://www.w3.org/2000/svg">
<path d="M16.0237 33.0004C22.112 33.0004 27.0475 28.3708 27.0475 22.6598C27.0475 16.9489 22.112 12.3193 16.0237 12.3193C9.93549 12.3193 5 16.9489 5 22.6598C5 28.3708 9.93549 33.0004 16.0237 33.0004Z" fill="#FFA459"/>
<mask id="mask0_237_1815" style="mask-type:luminance" maskUnits="userSpaceOnUse" x="5" y="12" width="23" height="22">
<path d="M16.0237 33.0004C22.112 33.0004 27.0475 28.3708 27.0475 22.6598C27.0475 16.9489 22.112 12.3193 16.0237 12.3193C9.93549 12.3193 5 16.9489 5 22.6598C5 28.3708 9.93549 33.0004 16.0237 33.0004Z" fill="white"/>
</mask>
<g mask="url(#mask0_237_1815)">
<path d="M4.08398 23.8828C9.57952 29.5636 16.9893 36.3868 28.4126 24.1299L28.9683 35.121C28.9683 35.121 10.0735 36.1708 9.57952 36.2941C9.08555 36.4177 4.08398 23.8828 4.08398 23.8828Z" fill="#FFF4BF"/>
</g>
<path d="M16.1799 32.0791C21.7051 32.0791 26.1841 27.8777 26.1841 22.695C26.1841 17.5124 21.7051 13.311 16.1799 13.311C10.6548 13.311 6.17578 17.5124 6.17578 22.695C6.17578 27.8777 10.6548 32.0791 16.1799 32.0791Z" fill="#512470"/>
<path d="M23.703 25.6854C23.2747 29.2824 20.1279 32.217 16.262 32.217C12.3961 32.217 8.95485 29.2129 8.65556 25.6027C7.99512 17.6366 15.6556 21.0278 16.317 21.0831C16.8251 21.1252 24.698 17.3276 23.703 25.6854Z" fill="#FFA459"/>
<mask id="mask1_237_1815" style="mask-type:luminance" maskUnits="userSpaceOnUse" x="8" y="20" width="16" height="13">
<path d="M23.703 25.6854C23.2747 29.2824 20.1279 32.217 16.262 32.217C12.3961 32.217 8.95485 29.2129 8.65556 25.6027C7.99512 17.6366 15.6556 21.0278 16.317 21.0831C16.8251 21.1252 24.698 17.3276 23.703 25.6854Z" fill="white"/>
</mask>
<g mask="url(#mask1_237_1815)">
<path d="M4.57812 25.2109C8.06695 27.9895 16.7734 35.6464 25.3871 26.0445L25.0167 33.5778C25.0167 33.5778 9.20927 36.4799 9.1476 36.1712C9.08593 35.8624 6.49253 31.6636 6.49253 31.6636L4.57812 25.2109Z" fill="#FFF4BF"/>
</g>
<path d="M19.8697 24.8545C20.406 24.8545 20.8409 24.4197 20.8409 23.8833C20.8409 23.3469 20.406 22.9121 19.8697 22.9121C19.3333 22.9121 18.8984 23.3469 18.8984 23.8833C18.8984 24.4197 19.3333 24.8545 19.8697 24.8545Z" fill="#660D3E"/>
<path d="M12.7284 24.8049C13.3054 24.8049 13.7731 24.3371 13.7731 23.7601C13.7731 23.1831 13.3054 22.7153 12.7284 22.7153C12.1514 22.7153 11.6836 23.1831 11.6836 23.7601C11.6836 24.3371 12.1514 24.8049 12.7284 24.8049Z" fill="#660D3E"/>
<path d="M23.4207 21.1013C22.9042 21.8324 21.7343 21.9231 21.1627 21.5194C20.5911 21.1158 20.5466 20.1955 21.0633 19.4644C21.5799 18.7332 22.462 18.4676 23.0336 18.8712C23.6051 19.2749 23.9373 20.3701 23.4207 21.1013Z" fill="#FFA459"/>
<path d="M16.0501 25.2082L15.5223 24.4317C15.3868 24.2323 15.5346 23.9637 15.7754 23.9714L16.321 23.9887L16.8714 24.006C17.1112 24.0137 17.242 24.2894 17.0961 24.4798L16.5281 25.2215C16.4058 25.3813 16.1632 25.3745 16.0501 25.2082Z" fill="#660D3E"/>
<path d="M16.2893 25.1479C16.2756 25.1893 16.2893 26.0436 16.2893 26.0436C16.2893 26.0436 16.8083 26.7004 17.3365 26.0573" stroke="#660D3E" stroke-width="0.368274" stroke-miterlimit="10" stroke-linecap="round" stroke-linejoin="round"/>
<path d="M12.0508 1.03076C13.0345 1.44492 14.484 3.15336 14.3806 5.48314" stroke="#FFA459" stroke-width="1.19689" stroke-miterlimit="10" stroke-linecap="round" stroke-linejoin="round"/>
<path d="M9.04194 21.0973C9.53913 21.8011 10.6651 21.8883 11.2151 21.4998C11.7651 21.1112 11.808 20.2256 11.3109 19.5219C10.8137 18.8181 9.96478 18.5626 9.41458 18.9511C8.86438 19.3397 8.54474 20.3935 9.04194 21.0973Z" fill="#FFA459"/>
<path d="M21.5192 11.1866C21.8983 11.4968 23.0952 11.0068 22.4402 10.0417C21.7852 9.0765 17.959 7.14617 17.3387 7.18063C16.7182 7.21509 11.3754 8.38704 11.2031 8.4215C11.0308 8.45596 10.6859 7.80097 9.85883 8.1458C9.03152 8.49043 9.1349 9.3522 9.37635 10.0072C9.61759 10.6622 9.61759 11.6274 9.58313 12.0754C9.54866 12.5234 9.2385 13.9368 8.5835 14.3503C7.9285 14.7639 5.89478 15.3155 5.58461 16.8667C5.27445 18.418 7.17031 19.0383 8.27333 18.1076C9.37635 17.1769 9.72098 15.2121 10.6517 15.3155C11.5824 15.4189 16.2704 16.3841 17.0977 16.3841C17.925 16.3841 22.1647 14.8673 22.4404 14.4537C22.7161 14.0402 22.3453 12.9517 21.4835 13.2963C20.6218 13.6409 11.8236 14.04 11.7202 14.0055C11.6168 13.9711 11.6168 9.97254 11.6168 9.97254L21.5192 11.1866Z" fill="#E64E91"/>
<path d="M14.6869 4.78906C13.6472 5.16191 12.365 6.38182 12.4865 7.62188C12.5133 7.89476 12.5818 8.15334 12.685 8.39236C12.0379 8.53162 11.5798 8.63138 11.5312 8.64106C11.3589 8.67552 11.0141 8.02052 10.187 8.36535C9.35964 8.70998 9.46303 9.57176 9.70447 10.2268C9.94571 10.8818 9.94571 11.8469 9.91125 12.2949C9.87679 12.743 9.56662 14.1563 8.91162 14.5699C8.25662 14.9835 6.2229 15.5351 5.91274 17.0863C5.60257 18.6375 7.49844 19.2579 8.60146 18.3272C9.70447 17.3965 10.0491 15.4317 10.9798 15.5351C11.9105 15.6385 16.5985 16.6036 17.4258 16.6036C18.2531 16.6036 22.4929 15.0868 22.7686 14.6733C22.9741 14.3651 22.8204 13.6823 22.3723 13.4969L22.3476 11.4757C22.7849 11.3727 23.2236 10.9317 22.7686 10.2612C22.1136 9.29606 18.2874 7.36573 17.667 7.40019C17.6527 7.40099 17.636 7.40241 17.6169 7.40442C17.6179 7.31091 17.614 7.21639 17.6048 7.12106C17.4663 5.70767 16.2085 4.67419 14.7951 4.81244C14.7542 4.81647 14.7135 4.82151 14.6732 4.82735" fill="#FFA459"/>
<path d="M14.6869 4.78906C13.6472 5.16191 12.365 6.38182 12.4865 7.62188C12.5133 7.89476 12.5818 8.15334 12.685 8.39236C12.0379 8.53162 11.5798 8.63138 11.5312 8.64106C11.3589 8.67552 11.0141 8.02052 10.187 8.36535C9.35964 8.70998 9.46303 9.57176 9.70447 10.2268C9.94571 10.8818 9.94572 11.8469 9.91125 12.2949C9.87679 12.743 9.56662 14.1563 8.91162 14.5699C8.25662 14.9835 6.2229 15.5351 5.91274 17.0863C5.60257 18.6375 7.49844 19.2579 8.60146 18.3272C9.70447 17.3965 10.0491 15.4317 10.9798 15.5351C11.9105 15.6385 16.5985 16.6036 17.4258 16.6036C18.2531 16.6036 22.4929 15.0868 22.7686 14.6733C22.9741 14.3651 22.8204 13.6823 22.3723 13.4969L22.3476 11.4757C22.7849 11.3727 23.2236 10.9317 22.7686 10.2612C22.1136 9.29606 18.2874 7.36573 17.667 7.40019C17.6527 7.40099 17.636 7.40241 17.6169 7.40442C17.6179 7.31091 17.614 7.21639 17.6048 7.12106C17.4663 5.70767 16.2085 4.67419 14.7951 4.81244C14.7542 4.81647 14.7135 4.82151 14.6732 4.82735" stroke="#FFA459" stroke-width="1.76772" stroke-miterlimit="10"/>
<path d="M17.2465 14.7132C17.2424 14.8668 17.0921 14.9833 16.9238 14.9629L10.5439 14.1926C10.4083 14.1763 10.3047 14.0749 10.297 13.9514L10.0415 9.87326C10.0332 9.74085 10.1368 9.62456 10.2815 9.60381C11.393 9.44318 15.8194 8.45564 17.101 8.20654" fill="#FFBD87"/>
<path d="M17.1012 8.20605L21.8011 10.61C21.9305 10.6697 22.0125 10.7886 22.0141 10.919L22.0437 13.3352C22.0457 13.4924 21.9309 13.6317 21.7628 13.6764L16.9102 14.9628L17.1012 8.20605Z" fill="#FFECD9"/>
<path d="M12.002 1C12.9857 1.41416 14.4351 3.1226 14.3317 5.45238" stroke="#6B002C" stroke-width="0.441929" stroke-miterlimit="10" stroke-linecap="round" stroke-linejoin="round"/>
<path d="M14.9638 9.84703C16.3838 9.84703 17.535 8.69586 17.535 7.27581C17.535 5.85576 16.3838 4.70459 14.9638 4.70459C13.5438 4.70459 12.3926 5.85576 12.3926 7.27581C12.3926 8.69586 13.5438 9.84703 14.9638 9.84703Z" fill="#D10031"/>
<path d="M21.7653 11.3106C22.1444 11.6208 23.3413 11.1309 22.6863 10.1657C22.0313 9.20052 18.2051 7.27019 17.5848 7.30465C16.9645 7.33912 11.6215 8.51106 11.4492 8.54552C11.2769 8.57999 10.932 7.92499 10.1049 8.26982C9.27761 8.61445 9.381 9.47623 9.62244 10.1312C9.86368 10.7862 9.86368 11.7514 9.82922 12.1994C9.79476 12.6474 9.48459 14.0608 8.82959 14.4744C8.17459 14.8879 6.14087 15.4395 5.83071 16.9908C5.52054 18.542 7.41641 19.1623 8.51942 18.2316C9.62244 17.3009 9.96707 15.3361 10.8978 15.4395C11.8285 15.5429 16.5165 16.5081 17.3438 16.5081C18.1711 16.5081 22.4108 14.9913 22.6865 14.5778C22.9622 14.1642 22.5914 13.0757 21.7296 13.4203C20.8679 13.765 12.0697 14.164 11.9663 14.1295C11.8629 14.0951 11.8629 10.0966 11.8629 10.0966L21.7653 11.3106Z" fill="#93359C"/>
<path d="M17.4945 14.8362C17.4905 14.9898 17.3401 15.1063 17.1718 15.086L10.792 14.3157C10.6563 14.2993 10.5527 14.198 10.5451 14.0744L10.2895 9.99631C10.2813 9.8639 10.3849 9.74761 10.5296 9.72685C11.641 9.56623 16.0674 8.57869 17.349 8.32959" fill="#FF9494"/>
<mask id="mask2_237_1815" style="mask-type:luminance" maskUnits="userSpaceOnUse" x="10" y="8" width="8" height="8">
<path d="M17.4945 14.8362C17.4905 14.9898 17.3401 15.1063 17.1718 15.086L10.792 14.3157C10.6563 14.2993 10.5527 14.198 10.5451 14.0744L10.2895 9.99631C10.2813 9.8639 10.3849 9.74761 10.5296 9.72685C11.641 9.56623 16.0674 8.57869 17.349 8.32959" fill="white"/>
</mask>
<g mask="url(#mask2_237_1815)">
<path d="M17.34 10.7925L10.0332 11.7393L10.1979 12.8095L19.0482 12.8713L17.34 10.7925Z" fill="#FFB5E6"/>
</g>
<path d="M17.3473 8.32959L22.0472 10.7335C22.1766 10.7932 22.2586 10.9121 22.2602 11.0425L22.2898 13.4587C22.2918 13.6159 22.177 13.7552 22.0089 13.7999L17.1562 15.0864L17.3473 8.32959Z" fill="#FFECD9"/>
<mask id="mask3_237_1815" style="mask-type:luminance" maskUnits="userSpaceOnUse" x="17" y="8" width="6" height="8">
<path d="M17.3473 8.32959L22.0472 10.7335C22.1766 10.7932 22.2586 10.9121 22.2602 11.0425L22.2898 13.4587C22.2918 13.6159 22.177 13.7552 22.0089 13.7999L17.1562 15.0864L17.3473 8.32959Z" fill="white"/>
</mask>
<g mask="url(#mask3_237_1815)">
<path d="M16.9489 10.7515L22.4033 11.6981L22.3828 12.5216L16.7637 12.9948L16.9489 10.7515Z" fill="white"/>
</g>
<path d="M15.1875 26.0985C15.1875 26.0985 15.8489 26.8149 16.2899 26.0435" stroke="#660D3E" stroke-width="0.368274" stroke-miterlimit="10" stroke-linecap="round" stroke-linejoin="round"/>
<path d="M23.2232 26.8385C23.5799 25.8675 23.2166 24.8406 22.4117 24.5448C21.6067 24.249 20.6649 24.7963 20.3081 25.7673C19.9513 26.7383 20.3147 27.7652 21.1196 28.061C21.9246 28.3568 22.8664 27.8094 23.2232 26.8385Z" fill="#FF8269"/>
<path d="M11.3278 28.0586C12.1609 27.7525 12.5469 26.7172 12.1902 25.7462C11.8334 24.7752 10.8688 24.2363 10.0357 24.5424C9.20267 24.8485 8.81658 25.8838 9.17337 26.8548C9.53017 27.8257 10.4947 28.3647 11.3278 28.0586Z" fill="#FF8269"/>
<path d="M42.4246 19.1725H53.8515V21.5011H42.4246V19.1725ZM53.4674 12.5708H56.1801V28.1268H53.4674V12.5708ZM40 12.5708H42.7367V28.1268H40V12.5708Z" fill="#010234"/>
<path d="M69.5294 24.1898H72.0981C71.97 25.006 71.6499 25.7342 71.1378 26.3743C70.6417 26.9985 69.9615 27.4946 69.0973 27.8627C68.2331 28.2148 67.2008 28.3909 66.0005 28.3909C64.6402 28.3909 63.4238 28.1428 62.3516 27.6467C61.2793 27.1345 60.4391 26.4143 59.8309 25.4861C59.2228 24.5579 58.9187 23.4536 58.9187 22.1733C58.9187 20.9089 59.2148 19.8047 59.8069 18.8604C60.3991 17.9162 61.2153 17.188 62.2555 16.6759C63.3118 16.1637 64.5281 15.9077 65.9045 15.9077C67.3288 15.9077 68.5131 16.1637 69.4574 16.6759C70.4176 17.172 71.1298 17.9242 71.5939 18.9324C72.058 19.9247 72.2501 21.181 72.1701 22.7014H61.6314C61.7114 23.3736 61.9275 23.9817 62.2796 24.5259C62.6476 25.054 63.1438 25.4701 63.7679 25.7742C64.3921 26.0623 65.1203 26.2063 65.9525 26.2063C66.8807 26.2063 67.6569 26.0222 68.2811 25.6542C68.9212 25.2861 69.3373 24.7979 69.5294 24.1898ZM65.8325 18.0682C64.7442 18.0682 63.8479 18.3403 63.1438 18.8844C62.4396 19.4126 61.9835 20.0927 61.7754 20.9249H69.4814C69.4174 20.0287 69.0573 19.3325 68.4011 18.8364C67.7449 18.3243 66.8887 18.0682 65.8325 18.0682Z" fill="#010234"/>
<path d="M79.876 28.3909C78.7718 28.3909 77.7635 28.1268 76.8513 27.5986C75.955 27.0705 75.2429 26.3423 74.7147 25.4141C74.1866 24.4699 73.9225 23.3896 73.9225 22.1733C73.9225 20.9249 74.1786 19.8367 74.6907 18.9084C75.2188 17.9642 75.923 17.228 76.8032 16.6999C77.6995 16.1717 78.7237 15.9077 79.876 15.9077C80.8843 15.9077 81.7325 16.0757 82.4207 16.4118C83.1089 16.7319 83.653 17.18 84.0531 17.7561C84.4532 18.3163 84.7413 18.9725 84.9173 19.7246C85.1094 20.4768 85.2054 21.293 85.2054 22.1733C85.2054 22.8294 85.1094 23.5256 84.9173 24.2618C84.7253 24.982 84.4212 25.6542 84.0051 26.2783C83.605 26.9025 83.0608 27.4146 82.3727 27.8147C81.7005 28.1988 80.8683 28.3909 79.876 28.3909ZM80.6922 26.1823C81.5885 26.1823 82.3487 26.0142 82.9728 25.6782C83.613 25.3261 84.0931 24.8459 84.4132 24.2378C84.7493 23.6296 84.9173 22.9415 84.9173 22.1733C84.9173 21.3251 84.7493 20.6049 84.4132 20.0127C84.0771 19.4046 83.597 18.9324 82.9728 18.5964C82.3487 18.2603 81.5885 18.0922 80.6922 18.0922C79.4119 18.0922 78.4197 18.4763 77.7155 19.2445C77.0113 19.9967 76.6592 20.973 76.6592 22.1733C76.6592 22.9575 76.8273 23.6536 77.1633 24.2618C77.5154 24.87 77.9956 25.3421 78.6037 25.6782C79.2119 26.0142 79.908 26.1823 80.6922 26.1823ZM84.9173 11.3705H87.606V28.1268H85.1094C85.0774 27.7587 85.0373 27.3026 84.9893 26.7584C84.9413 26.2143 84.9173 25.7262 84.9173 25.2941V11.3705Z" fill="#010234"/>
<path d="M96.3334 26.2783C95.2131 26.2783 94.1968 26.0783 93.2846 25.6782C92.3883 25.2781 91.6762 24.6939 91.148 23.9257C90.6359 23.1575 90.3798 22.2373 90.3798 21.165C90.3798 20.0927 90.6279 19.1645 91.124 18.3803C91.6362 17.5961 92.3403 16.9879 93.2366 16.5558C94.1488 16.1237 95.1811 15.9077 96.3334 15.9077C96.6694 15.9077 96.9895 15.9317 97.2936 15.9797C97.6137 16.0277 97.9178 16.0917 98.2058 16.1717L103.799 16.1957V18.4283C103.031 18.4443 102.255 18.3403 101.471 18.1162C100.702 17.8762 100.022 17.6281 99.4301 17.372L99.3581 17.228C99.9023 17.5001 100.39 17.8362 100.822 18.2363C101.271 18.6204 101.623 19.0605 101.879 19.5566C102.135 20.0527 102.263 20.6129 102.263 21.237C102.263 22.2933 102.007 23.1975 101.495 23.9497C100.999 24.7019 100.302 25.2781 99.4061 25.6782C98.5259 26.0783 97.5016 26.2783 96.3334 26.2783ZM100.174 33V32.4479C100.174 31.6637 99.9423 31.1115 99.4781 30.7915C99.014 30.4714 98.3659 30.3113 97.5337 30.3113H94.2928C93.6527 30.3113 93.1005 30.2553 92.6364 30.1433C92.1883 30.0473 91.8282 29.8952 91.5561 29.6872C91.2841 29.4951 91.084 29.2631 90.956 28.991C90.8279 28.7349 90.7639 28.4469 90.7639 28.1268C90.7639 27.4866 90.956 27.0065 91.3401 26.6864C91.7402 26.3663 92.2603 26.1583 92.9005 26.0623C93.5566 25.9662 94.2448 25.9502 94.965 26.0142L96.3334 26.2783C95.3891 26.3103 94.6689 26.3983 94.1728 26.5424C93.6927 26.6704 93.4526 26.9345 93.4526 27.3346C93.4526 27.5746 93.5486 27.7667 93.7407 27.9107C93.9327 28.0548 94.2048 28.1268 94.5569 28.1268H97.9658C98.942 28.1268 99.7982 28.2388 100.534 28.4629C101.271 28.7029 101.839 29.095 102.239 29.6392C102.655 30.1993 102.863 30.9595 102.863 31.9198V33H100.174ZM96.3334 24.1898C96.9735 24.1898 97.5417 24.0697 98.0378 23.8297C98.5339 23.5896 98.926 23.2455 99.2141 22.7974C99.5022 22.3493 99.6462 21.8052 99.6462 21.165C99.6462 20.5248 99.5022 19.9727 99.2141 19.5086C98.926 19.0445 98.5339 18.6924 98.0378 18.4523C97.5417 18.2123 96.9735 18.0922 96.3334 18.0922C95.7092 18.0922 95.141 18.2123 94.6289 18.4523C94.1328 18.6924 93.7407 19.0445 93.4526 19.5086C93.1645 19.9567 93.0205 20.5088 93.0205 21.165C93.0205 21.8052 93.1645 22.3493 93.4526 22.7974C93.7407 23.2455 94.1328 23.5896 94.6289 23.8297C95.125 24.0697 95.6932 24.1898 96.3334 24.1898Z" fill="#010234"/>
<path d="M115.783 24.1898H118.352C118.224 25.006 117.904 25.7342 117.392 26.3743C116.896 26.9985 116.215 27.4946 115.351 27.8627C114.487 28.2148 113.455 28.3909 112.254 28.3909C110.894 28.3909 109.678 28.1428 108.606 27.6467C107.533 27.1345 106.693 26.4143 106.085 25.4861C105.477 24.5579 105.173 23.4536 105.173 22.1733C105.173 20.9089 105.469 19.8047 106.061 18.8604C106.653 17.9162 107.469 17.188 108.51 16.6759C109.566 16.1637 110.782 15.9077 112.158 15.9077C113.583 15.9077 114.767 16.1637 115.711 16.6759C116.672 17.172 117.384 17.9242 117.848 18.9324C118.312 19.9247 118.504 21.181 118.424 22.7014H107.885C107.965 23.3736 108.181 23.9817 108.534 24.5259C108.902 25.054 109.398 25.4701 110.022 25.7742C110.646 26.0623 111.374 26.2063 112.206 26.2063C113.135 26.2063 113.911 26.0222 114.535 25.6542C115.175 25.2861 115.591 24.7979 115.783 24.1898ZM112.086 18.0682C110.998 18.0682 110.102 18.3403 109.398 18.8844C108.694 19.4126 108.237 20.0927 108.029 20.9249H115.735C115.671 20.0287 115.311 19.3325 114.655 18.8364C113.999 18.3243 113.143 18.0682 112.086 18.0682Z" fill="#010234"/>
<path d="M128.483 28.3909C127.506 28.3909 126.674 28.1988 125.986 27.8147C125.314 27.4306 124.77 26.9265 124.354 26.3023C123.953 25.6622 123.657 24.982 123.465 24.2618C123.273 23.5256 123.177 22.8294 123.177 22.1733C123.177 21.293 123.265 20.4768 123.441 19.7246C123.633 18.9725 123.929 18.3163 124.33 17.7561C124.746 17.18 125.29 16.7319 125.962 16.4118C126.65 16.0757 127.49 15.9077 128.483 15.9077C129.603 15.9077 130.611 16.1797 131.507 16.7239C132.404 17.252 133.116 17.9882 133.644 18.9324C134.172 19.8607 134.436 20.941 134.436 22.1733C134.436 23.4056 134.164 24.4939 133.62 25.4381C133.092 26.3663 132.38 27.0945 131.483 27.6227C130.587 28.1348 129.587 28.3909 128.483 28.3909ZM127.69 26.1823C128.491 26.1823 129.195 26.0142 129.803 25.6782C130.411 25.3421 130.883 24.87 131.219 24.2618C131.555 23.6536 131.723 22.9575 131.723 22.1733C131.723 20.973 131.371 19.9967 130.667 19.2445C129.963 18.4763 128.971 18.0922 127.69 18.0922C126.89 18.0922 126.17 18.2603 125.53 18.5964C124.89 18.9324 124.386 19.4046 124.017 20.0127C123.649 20.6049 123.465 21.3251 123.465 22.1733C123.465 22.9415 123.633 23.6296 123.969 24.2378C124.306 24.8459 124.786 25.3261 125.41 25.6782C126.034 26.0142 126.794 26.1823 127.69 26.1823ZM120.801 16.1717H123.345L123.465 19.1005V32.928H120.801V16.1717Z" fill="#010234"/>
<path d="M139.933 11.1064V13.6751H136.741V11.1064H139.933ZM136.981 16.1717H139.669V28.1268H136.981V16.1717Z" fill="#010234"/>
<path d="M152.847 24.1898H155.416C155.288 25.006 154.968 25.7342 154.456 26.3743C153.96 26.9985 153.28 27.4946 152.415 27.8627C151.551 28.2148 150.519 28.3909 149.319 28.3909C147.958 28.3909 146.742 28.1428 145.67 27.6467C144.597 27.1345 143.757 26.4143 143.149 25.4861C142.541 24.5579 142.237 23.4536 142.237 22.1733C142.237 20.9089 142.533 19.8047 143.125 18.8604C143.717 17.9162 144.533 17.188 145.574 16.6759C146.63 16.1637 147.846 15.9077 149.223 15.9077C150.647 15.9077 151.831 16.1637 152.775 16.6759C153.736 17.172 154.448 17.9242 154.912 18.9324C155.376 19.9247 155.568 21.181 155.488 22.7014H144.949C145.03 23.3736 145.246 23.9817 145.598 24.5259C145.966 25.054 146.462 25.4701 147.086 25.7742C147.71 26.0623 148.438 26.2063 149.271 26.2063C150.199 26.2063 150.975 26.0222 151.599 25.6542C152.239 25.2861 152.655 24.7979 152.847 24.1898ZM149.151 18.0682C148.062 18.0682 147.166 18.3403 146.462 18.8844C145.758 19.4126 145.302 20.0927 145.094 20.9249H152.799C152.735 20.0287 152.375 19.3325 151.719 18.8364C151.063 18.3243 150.207 18.0682 149.151 18.0682Z" fill="#010234"/>
</svg>
