<svg width="61" height="72" viewBox="0 0 61 72" fill="none" xmlns="http://www.w3.org/2000/svg">
<g clip-path="url(#clip0_198_1565)">
<path d="M23.9234 15.9289C23.1622 15.8205 23.126 15.7844 23.4884 15.7483C24.1771 15.6399 25.7718 15.7844 26.8954 16.0372C29.5051 16.6512 31.861 18.2405 34.3619 21.0217L35.0143 21.7802L35.9566 21.6358C39.9798 20.9856 44.1117 21.4913 47.555 23.0806C48.4973 23.514 49.9834 24.3809 50.1646 24.5976C50.2371 24.6698 50.3458 25.1394 50.4183 25.6089C50.672 27.3066 50.5633 28.5707 50.0196 29.546C49.7297 30.0878 49.7297 30.2323 49.9109 30.7018C50.0559 31.063 50.4908 31.3158 50.8895 31.3158C51.7594 31.3158 52.6655 29.9433 53.1004 28.029L53.2816 27.2704L53.6078 27.6316C55.4563 29.6905 56.9061 32.5439 57.1236 34.5666L57.1961 35.1084L56.8699 34.6389C56.3262 33.8081 55.8188 33.2663 55.1301 32.7968C53.8978 31.966 52.593 31.7132 49.1497 31.5326C46.0327 31.352 44.2567 31.0991 42.5169 30.5212C39.5449 29.546 38.0226 28.2818 34.5068 23.6223C32.9483 21.5635 31.9697 20.4438 30.9911 19.5047C28.8526 17.4459 26.7142 16.3623 23.9234 15.9289Z" fill="#B0A9FC"/>
<path d="M50.9225 20.516C50.995 19.1435 51.1762 18.2405 51.5749 17.4098C51.7199 17.0847 51.8649 16.7957 51.9011 16.7957C51.9374 16.7957 51.8649 17.0486 51.7561 17.3375C51.4662 18.1321 51.4299 19.2519 51.6111 20.516C51.8649 22.1414 51.9736 22.3582 53.7133 24.128C54.5107 24.9588 55.4531 26.0062 55.8155 26.4397L56.4317 27.2343L55.8155 26.6564C55.0544 25.934 53.3147 24.5615 52.916 24.3809C52.6623 24.2364 52.626 24.2364 52.4448 24.417C52.2998 24.5615 52.2636 24.7782 52.2636 25.8256C52.2273 27.451 52.0098 28.4624 51.4662 29.5099C51.1762 30.0516 51.14 29.9433 51.3937 29.3293C51.5749 28.8597 51.6111 28.643 51.6111 27.0898C51.6111 23.9474 51.2487 23.1889 49.0378 21.9247C48.4941 21.5996 47.5517 21.1301 47.0081 20.8772C46.4281 20.6244 45.9932 20.4077 46.0295 20.4077C46.1019 20.3354 48.2404 20.9495 49.074 21.3107C50.3426 21.8164 50.5601 21.8525 50.705 21.8164C50.8138 21.708 50.8863 21.419 50.9225 20.516Z" fill="#B0A9FC"/>
<path d="M25.4073 25.8972C23.8851 23.8023 22.9064 20.5515 23.1239 18.1315L23.1964 17.373L23.5589 17.4452C24.2113 17.5536 25.3348 17.987 25.8785 18.3121C27.3283 19.179 27.9807 20.3709 28.5969 23.3327C28.7781 24.1996 29.0318 25.211 29.1406 25.536C29.3218 26.0778 30.0104 27.342 30.5903 28.1367C30.989 28.7146 30.7353 29.0035 29.8292 28.9313C28.4519 28.7868 26.6034 27.5226 25.4073 25.8972Z" fill="#B0A9FC"/>
<path d="M49.0769 41.61C41.9004 38.7204 39.3633 36.2282 39.3633 32.0022C39.3633 31.3881 39.3995 30.8824 39.3995 30.8824C39.4358 30.8824 39.6895 31.0992 40.0157 31.352C41.4655 32.5078 43.0965 33.0135 47.6271 33.6637C50.273 34.061 51.7952 34.3499 53.1725 34.8195C57.5582 36.2643 60.2765 39.2261 60.9289 43.2354C61.1102 44.3912 61.0014 46.5945 60.7115 47.7503C60.4578 48.6533 59.7329 50.3148 59.5516 50.351C59.5154 50.351 59.4429 50.1704 59.4429 49.8814C59.3704 48.3644 58.6093 46.9196 57.3407 45.7999C55.8184 44.4996 53.8612 43.5243 49.0769 41.61Z" fill="#B0A9FC"/>
<path d="M44.0011 42.8023C43.9286 42.2605 43.7474 41.5742 43.6387 41.2853L43.4575 40.7435L43.7837 41.1408C44.2548 41.6826 44.6173 42.3327 44.9435 43.2357C45.1972 43.922 45.1972 44.1387 45.1972 45.2584C45.1972 46.342 45.161 46.5949 44.9435 47.2089C44.581 48.1841 44.1461 48.8704 43.4212 49.6289C42.1164 50.9653 40.4129 51.6877 37.9845 52.0128C37.5496 52.0489 36.3172 52.1573 35.2299 52.2295C32.5115 52.374 30.6993 52.663 29.0683 53.2409C28.8508 53.3131 28.6333 53.3854 28.5971 53.3492C28.5246 53.277 29.6482 52.6269 30.5543 52.1934C31.8229 51.5794 33.1277 51.2543 35.991 50.7486C37.4046 50.5319 38.8544 50.2429 39.2168 50.0985C42.805 48.9788 44.581 46.1975 44.0011 42.8023Z" fill="#B0A9FC"/>
<path d="M47.2997 48.6171C46.3573 46.5583 46.1398 44.6078 46.6473 42.7657C46.7197 42.5851 46.7922 42.4045 46.8647 42.4045C46.9372 42.4045 47.1547 42.5129 47.3722 42.6574C47.8071 42.9463 48.7132 43.452 51.0329 44.7162C53.9687 46.3055 55.636 47.5335 56.7958 48.9422C57.8107 50.1703 58.4268 51.5789 58.7168 53.3127C58.898 54.2879 58.7893 56.6357 58.5356 57.6109C57.7382 60.6811 55.9259 63.1373 53.2801 64.5459C52.8814 64.7626 52.5552 64.9071 52.5189 64.9071C52.4827 64.9071 52.6277 64.5459 52.8451 64.1125C53.715 62.2704 53.8237 60.5005 53.1713 58.5139C52.7726 57.2859 51.939 55.805 50.2717 53.3127C48.2783 50.4231 47.8071 49.6646 47.2997 48.6171Z" fill="#B0A9FC"/>
<path d="M20.2963 59.6697C22.9784 57.4302 26.2767 55.841 29.3213 55.3353C30.6261 55.1186 32.8008 55.1908 33.9968 55.5159C35.9178 56.0216 37.6576 57.1052 38.5637 58.4416C39.4336 59.7419 39.8322 60.8616 40.2309 63.3539C40.3759 64.3291 40.5571 65.3405 40.5934 65.5572C40.8833 66.8575 41.4633 67.8688 42.1882 68.4106C43.3117 69.2414 45.269 69.2775 47.1899 68.5551C47.5161 68.4468 47.8061 68.3384 47.8061 68.3745C47.8786 68.4468 46.9 69.0969 46.2476 69.422C45.3415 69.8915 44.6166 70.036 43.6379 70.036C41.8982 70.036 40.4122 69.133 39.2161 67.327C38.9624 66.9658 38.4549 65.9184 38.02 64.9431C36.7514 62.0175 36.099 61.1506 34.613 60.1753C33.3082 59.3446 31.6409 59.164 30.3724 59.778C28.7051 60.5727 28.2702 62.7037 29.43 64.004C29.9012 64.5458 30.771 64.9793 31.4959 65.0876C32.837 65.2682 33.9968 64.2208 33.9968 62.8843C33.9968 62.0175 33.6706 61.5118 32.8008 61.1145C31.6409 60.6088 30.3724 61.1867 30.4086 62.3064C30.4086 62.776 30.6261 63.0649 31.0972 63.2816C31.3872 63.4261 31.3872 63.4261 31.1697 63.39C30.1186 63.1733 29.8649 61.873 30.6986 61.0422C31.7134 60.0309 33.8519 60.4643 34.5767 61.873C34.8667 62.4509 34.903 63.6067 34.6492 64.3291C34.0331 65.9184 32.2933 66.7491 30.5173 66.2796C29.3213 65.9545 28.8138 65.6294 27.364 64.1485C24.8269 61.5479 23.8483 61.0422 20.2238 60.5004L19.5352 60.3921L20.2963 59.6697Z" fill="#B0A9FC"/>
<path fill-rule="evenodd" clip-rule="evenodd" d="M1.23198 1.55315C9.67702 11.775 22.6889 27.6677 23.3413 28.5346C23.885 29.257 23.6675 29.9432 22.7614 30.4489C22.254 30.7379 21.2029 31.0268 20.6954 31.0268C20.1155 31.0268 19.4269 30.7379 18.9557 30.2683C18.6295 29.9432 17.2159 27.8844 14.0264 22.936C11.598 19.1434 9.53204 16.001 9.4958 15.9649C9.35082 15.8927 9.35082 15.8927 13.7727 23.7668C16.5635 28.7152 17.4697 30.485 17.4697 30.7018C17.4697 31.1713 17.3247 31.4242 16.7448 32.0743C15.7661 33.1579 15.3312 34.386 15.005 36.9505C14.6426 39.8039 13.6639 41.8266 10.8731 45.258C9.24208 47.2807 8.98837 47.6419 8.58968 48.4727C8.08225 49.484 7.93727 50.0619 7.86478 51.3622C7.79229 52.7348 7.93727 53.6017 8.33596 54.902C8.69841 56.0578 9.0971 56.8163 10.0757 58.2972C10.9093 59.5975 11.4168 60.5728 11.4168 60.934C11.4168 61.2229 11.4893 61.2229 12.7941 60.934C15.9111 60.2116 18.4845 58.9835 19.8981 57.4665C20.7679 56.5274 20.9854 56.0217 20.9854 54.7214C20.9854 53.8906 20.9492 53.71 20.7317 53.2043C20.3692 52.4097 19.6806 51.7596 18.1945 50.7482C16.2373 49.4118 15.4037 48.3282 15.1862 46.8834C15.005 45.6553 15.2225 44.8246 16.3098 42.549C17.4334 40.2012 17.7234 39.226 17.9046 36.8421C18.0133 35.3251 18.1945 34.711 18.6295 34.2415C19.1007 33.7358 19.4994 33.5552 20.6229 33.4107C22.4714 33.1579 23.6675 32.6883 24.6099 31.7853C25.4435 31.0268 25.806 30.2683 25.8422 29.1486L25.8784 28.3179L25.4073 27.8122C23.7038 25.8617 0.108393 0 -0.000340939 0C-0.0365857 0 0.543331 0.686275 1.23198 1.55315ZM12.3591 52.9154C12.7578 52.2291 12.5404 51.3622 11.888 50.9288C11.2718 50.5315 10.3294 50.7121 10.3294 51.2539C10.3294 51.3983 10.4019 51.5428 10.6194 51.6151C10.9456 51.7957 10.9818 51.9763 10.7281 52.3736C10.4744 52.7709 10.4744 53.1321 10.8006 53.3849C11.308 53.7823 11.9967 53.5655 12.3591 52.9154Z" fill="#B0A9FC"/>
<path fill-rule="evenodd" clip-rule="evenodd" d="M27.0389 33.9162C26.169 34.169 25.3354 35.1081 25.0817 36.0472C24.9367 36.6252 25.0092 37.6726 25.2629 37.9977C25.6616 38.5034 26.0241 38.6479 27.0389 38.6479C29.0324 38.6479 30.7359 37.781 30.9171 36.7335C31.0983 35.8666 30.3372 34.6747 29.2861 34.1329C28.7424 33.8439 27.6188 33.7356 27.0389 33.9162ZM29.3586 35.7222C29.6486 35.2887 29.5398 34.8192 28.9961 34.4941C28.0175 33.8801 26.5315 34.3857 26.5315 35.3248C26.5315 35.7944 27.2926 36.3001 28.0175 36.3001C28.4887 36.3001 29.1411 36.0111 29.3586 35.7222Z" fill="#B0A9FC"/>
</g>
<defs>
<clipPath id="clip0_198_1565">
<rect width="61" height="70" fill="white"/>
</clipPath>
</defs>
</svg>
