<svg width="56" height="57" viewBox="0 0 56 57" fill="none" xmlns="http://www.w3.org/2000/svg">
<g clip-path="url(#clip0_198_1587)">
<path fill-rule="evenodd" clip-rule="evenodd" d="M28 0.996216C43.4616 0.996216 56 13.5346 56 28.9962C56 44.4578 43.4616 56.9962 28 56.9962C12.5384 56.9962 0 44.4578 0 28.9962C0 13.5346 12.5384 0.996216 28 0.996216Z" fill="#B0A9FC"/>
<path d="M28.419 40.6996C19.4646 40.6996 12.207 38.1124 12.207 34.646C12.207 32.8372 14.1838 31.2076 17.3478 30.0596C19.8174 31.6444 23.9614 32.4564 28.6598 32.4564C33.2462 32.4564 37.3006 31.4652 39.7926 29.9476C42.7774 31.0844 44.631 32.6692 44.631 34.4164C44.631 37.8884 37.3734 40.6996 28.419 40.6996Z" fill="#EBEAF7"/>
<path d="M28.5166 31.6781C21.7294 31.6781 16.2246 29.5501 16.2246 26.9237C16.2246 25.4677 17.9214 24.1629 20.5814 23.2949C22.4798 24.2861 25.3246 24.9189 28.5166 24.9189C31.7086 24.9189 34.5534 24.2861 36.4518 23.2949C39.1174 24.1685 40.8086 25.4677 40.8086 26.9237C40.8142 29.5501 35.3094 31.6781 28.5166 31.6781Z" fill="#EBEAF7"/>
<path d="M28.47 24.1296C23.2228 24.1296 18.9668 22.3712 18.9668 20.2096C18.9668 18.048 23.2228 16.2896 28.47 16.2896C33.7172 16.2896 37.9732 18.048 37.9732 20.2096C37.9732 22.3712 33.7172 24.1296 28.47 24.1296Z" fill="#EBEAF7"/>
</g>
<defs>
<clipPath id="clip0_198_1587">
<rect y="0.996216" width="56" height="56" fill="white"/>
</clipPath>
</defs>
</svg>
