<svg width="56" height="57" viewBox="0 0 56 57" fill="none" xmlns="http://www.w3.org/2000/svg">
<g clip-path="url(#clip0_198_1562)">
<path d="M28 56.9962C43.4644 56.9962 56 44.4606 56 28.9962C56 13.5318 43.4644 0.996216 28 0.996216C12.5356 0.996216 0 13.5318 0 28.9962C0 44.4606 12.5356 56.9962 28 56.9962Z" fill="#B0A9FC"/>
<path fill-rule="evenodd" clip-rule="evenodd" d="M16.1758 38.3843C15.3386 37.8719 14.8262 36.9619 14.8262 35.9819V30.5107C14.8262 29.8611 15.3554 29.3347 16.005 29.3375C16.2122 29.3375 16.4166 29.3935 16.5958 29.4971L28.941 36.6959C29.6634 37.1159 30.1086 37.8887 30.1086 38.7259V44.3931C30.1114 45.1715 29.4814 45.8043 28.703 45.8043C28.4426 45.8043 28.185 45.7315 27.9638 45.5971L16.1758 38.3843ZM34.5774 27.9991C35.2998 28.4191 35.7422 29.1947 35.745 30.0291V41.5315C35.745 41.8703 35.563 42.1839 35.2662 42.3491L32.5642 43.8695C32.5306 43.8891 32.4942 43.9031 32.455 43.9143V37.5275C32.455 36.7015 32.021 35.9343 31.3098 35.5087L20.4682 29.0239V21.8139C20.4682 21.1643 20.9974 20.6379 21.647 20.6407C21.8542 20.6407 22.0586 20.6967 22.2378 20.8003L34.5774 27.9991ZM39.9814 19.5039C40.7066 19.9239 41.1518 20.6995 41.1518 21.5367V38.3367C41.149 38.6811 40.9586 38.9975 40.6562 39.1627L38.0942 40.5459V28.8503C38.0942 28.0243 37.6602 27.2599 36.9546 26.8343L25.8722 20.1871V13.3495C25.8722 13.1423 25.9282 12.9379 26.029 12.7587C26.3566 12.1987 27.0762 12.0083 27.6362 12.3331L39.9814 19.5039Z" fill="#EBEAF7"/>
</g>
<defs>
<clipPath id="clip0_198_1562">
<rect width="56" height="56" fill="white" transform="translate(0 0.996216)"/>
</clipPath>
</defs>
</svg>
