<svg width="1440" height="72" viewBox="0 0 1440 72" fill="none" xmlns="http://www.w3.org/2000/svg">
<g clip-path="url(#clip0_198_1545)">
<path d="M7.00179 63.1556C22.0018 63.1556 34.1618 50.9956 34.1618 35.9956C34.1618 20.9955 22.0018 8.83557 7.00179 8.83557C-7.99826 8.83557 -20.1582 20.9955 -20.1582 35.9956C-20.1582 50.9956 -7.99826 63.1556 7.00179 63.1556Z" fill="#B0A9FC"/>
<path d="M18.8889 46.8173L9.70489 24.6133C9.18689 23.4653 8.41689 22.9053 7.40189 22.9053H6.58989C5.57489 22.9053 4.80489 23.4653 4.28689 24.6133L0.28989 34.2873H-2.73411C-3.63711 34.2943 -4.37211 35.0223 -4.37911 35.9323V35.9533C-4.37211 36.8563 -3.63711 37.5913 -2.73411 37.5983H-1.11011L-4.92511 46.8173C-4.99511 47.0203 -5.03711 47.2303 -5.03711 47.4473C-5.03711 47.9653 -4.87611 48.3713 -4.58911 48.6863C-4.30211 49.0013 -3.88911 49.1553 -3.37111 49.1553C-3.02811 49.1483 -2.69911 49.0433 -2.42611 48.8403C-2.13211 48.6373 -1.92911 48.3433 -1.76811 48.0073L2.43189 37.5913H5.34389C6.24689 37.5843 6.98189 36.8563 6.98889 35.9463V35.9043C6.98189 35.0013 6.24689 34.2663 5.34389 34.2593H3.78989L6.99589 26.2723L15.7319 48.0003C15.8929 48.3363 16.0959 48.6303 16.3899 48.8333C16.6629 49.0363 16.9989 49.1413 17.3349 49.1483C17.8529 49.1483 18.2589 48.9943 18.5529 48.6793C18.8469 48.3643 19.0009 47.9583 19.0009 47.4403C19.0079 47.2303 18.9729 47.0133 18.8889 46.8173Z" fill="#EBEAF7"/>
</g>
<g clip-path="url(#clip1_198_1545)">
<path d="M143.875 10.8584L132.19 28.2184C131.382 29.4007 132.936 30.8318 134.054 29.8362L145.553 19.8184C145.863 19.5695 146.299 19.7562 146.299 20.1918V51.4896C146.299 51.9251 145.739 52.1118 145.491 51.8007L110.685 10.1118C109.566 8.74288 107.95 7.99622 106.148 7.99622H104.905C101.673 7.99622 99 10.6718 99 13.9695V58.0229C99 61.3207 101.673 63.9962 104.967 63.9962C107.018 63.9962 108.945 62.9384 110.063 61.134L121.748 43.774C122.556 42.5918 121.002 41.1607 119.883 42.1562L108.385 52.1118C108.074 52.3607 107.639 52.174 107.639 51.7384V20.5029C107.639 20.0673 108.199 19.8807 108.447 20.1918L143.253 61.8807C144.372 63.2495 146.05 63.9962 147.79 63.9962H149.033C152.327 63.9962 155 61.3207 155 58.0229V13.9695C155 10.6718 152.327 7.99622 149.033 7.99622C146.92 7.99622 144.993 9.05399 143.875 10.8584Z" fill="#B0A9FC"/>
</g>
<g clip-path="url(#clip2_198_1545)">
<path d="M247 63.9962C262.464 63.9962 275 51.4606 275 35.9962C275 20.5318 262.464 7.99622 247 7.99622C231.536 7.99622 219 20.5318 219 35.9962C219 51.4606 231.536 63.9962 247 63.9962Z" fill="#B0A9FC"/>
<path fill-rule="evenodd" clip-rule="evenodd" d="M235.176 45.3843C234.339 44.8719 233.826 43.9619 233.826 42.9819V37.5107C233.826 36.8611 234.355 36.3347 235.005 36.3375C235.212 36.3375 235.417 36.3935 235.596 36.4971L247.941 43.6959C248.663 44.1159 249.109 44.8887 249.109 45.7259V51.3931C249.111 52.1715 248.481 52.8043 247.703 52.8043C247.443 52.8043 247.185 52.7315 246.964 52.5971L235.176 45.3843ZM253.577 34.9991C254.3 35.4191 254.742 36.1947 254.745 37.0291V48.5315C254.745 48.8703 254.563 49.1839 254.266 49.3491L251.564 50.8695C251.531 50.8891 251.494 50.9031 251.455 50.9143V44.5275C251.455 43.7015 251.021 42.9343 250.31 42.5087L239.468 36.0239V28.8139C239.468 28.1643 239.997 27.6379 240.647 27.6407C240.854 27.6407 241.059 27.6967 241.238 27.8003L253.577 34.9991ZM258.981 26.5039C259.707 26.9239 260.152 27.6995 260.152 28.5367V45.3367C260.149 45.6811 259.959 45.9975 259.656 46.1627L257.094 47.5459V35.8503C257.094 35.0243 256.66 34.2599 255.955 33.8343L244.872 27.1871V20.3495C244.872 20.1423 244.928 19.9379 245.029 19.7587C245.357 19.1987 246.076 19.0083 246.636 19.3331L258.981 26.5039Z" fill="#EBEAF7"/>
</g>
<g clip-path="url(#clip3_198_1545)">
<path d="M362.923 15.9289C362.162 15.8205 362.126 15.7844 362.488 15.7483C363.177 15.6399 364.772 15.7844 365.895 16.0372C368.505 16.6512 370.861 18.2405 373.362 21.0217L374.014 21.7802L374.957 21.6358C378.98 20.9856 383.112 21.4913 386.555 23.0806C387.497 23.514 388.983 24.3809 389.165 24.5976C389.237 24.6698 389.346 25.1394 389.418 25.6089C389.672 27.3066 389.563 28.5707 389.02 29.546C388.73 30.0878 388.73 30.2323 388.911 30.7018C389.056 31.063 389.491 31.3158 389.889 31.3158C390.759 31.3158 391.665 29.9433 392.1 28.029L392.282 27.2704L392.608 27.6316C394.456 29.6905 395.906 32.5439 396.124 34.5666L396.196 35.1084L395.87 34.6389C395.326 33.8081 394.819 33.2663 394.13 32.7968C392.898 31.966 391.593 31.7132 388.15 31.5326C385.033 31.352 383.257 31.0991 381.517 30.5212C378.545 29.546 377.023 28.2818 373.507 23.6223C371.948 21.5635 370.97 20.4438 369.991 19.5047C367.853 17.4459 365.714 16.3623 362.923 15.9289Z" fill="#B0A9FC"/>
<path d="M389.923 20.516C389.995 19.1435 390.176 18.2405 390.575 17.4098C390.72 17.0847 390.865 16.7957 390.901 16.7957C390.937 16.7957 390.865 17.0486 390.756 17.3375C390.466 18.1321 390.43 19.2519 390.611 20.516C390.865 22.1414 390.974 22.3582 392.713 24.128C393.511 24.9588 394.453 26.0062 394.816 26.4397L395.432 27.2343L394.816 26.6564C394.054 25.934 392.315 24.5615 391.916 24.3809C391.662 24.2364 391.626 24.2364 391.445 24.417C391.3 24.5615 391.264 24.7782 391.264 25.8256C391.227 27.451 391.01 28.4624 390.466 29.5099C390.176 30.0516 390.14 29.9433 390.394 29.3293C390.575 28.8597 390.611 28.643 390.611 27.0898C390.611 23.9474 390.249 23.1889 388.038 21.9247C387.494 21.5996 386.552 21.1301 386.008 20.8772C385.428 20.6244 384.993 20.4077 385.029 20.4077C385.102 20.3354 387.24 20.9495 388.074 21.3107C389.343 21.8164 389.56 21.8525 389.705 21.8164C389.814 21.708 389.886 21.419 389.923 20.516Z" fill="#B0A9FC"/>
<path d="M364.407 25.8972C362.885 23.8023 361.906 20.5515 362.124 18.1315L362.196 17.373L362.559 17.4452C363.211 17.5536 364.335 17.987 364.879 18.3121C366.328 19.179 366.981 20.3709 367.597 23.3327C367.778 24.1996 368.032 25.211 368.141 25.536C368.322 26.0778 369.01 27.342 369.59 28.1367C369.989 28.7146 369.735 29.0035 368.829 28.9313C367.452 28.7868 365.603 27.5226 364.407 25.8972Z" fill="#B0A9FC"/>
<path d="M388.077 41.61C380.9 38.7204 378.363 36.2282 378.363 32.0022C378.363 31.3881 378.4 30.8824 378.4 30.8824C378.436 30.8824 378.689 31.0992 379.016 31.352C380.465 32.5078 382.096 33.0135 386.627 33.6637C389.273 34.061 390.795 34.3499 392.173 34.8195C396.558 36.2643 399.277 39.2261 399.929 43.2354C400.11 44.3912 400.001 46.5945 399.711 47.7503C399.458 48.6533 398.733 50.3148 398.552 50.351C398.515 50.351 398.443 50.1704 398.443 49.8814C398.37 48.3644 397.609 46.9196 396.341 45.7999C394.818 44.4996 392.861 43.5243 388.077 41.61Z" fill="#B0A9FC"/>
<path d="M383.001 42.8023C382.929 42.2605 382.747 41.5742 382.639 41.2853L382.457 40.7435L382.784 41.1408C383.255 41.6826 383.617 42.3327 383.943 43.2357C384.197 43.922 384.197 44.1387 384.197 45.2584C384.197 46.342 384.161 46.5949 383.943 47.2089C383.581 48.1841 383.146 48.8704 382.421 49.6289C381.116 50.9653 379.413 51.6877 376.984 52.0128C376.55 52.0489 375.317 52.1573 374.23 52.2295C371.512 52.374 369.699 52.663 368.068 53.2409C367.851 53.3131 367.633 53.3854 367.597 53.3492C367.525 53.277 368.648 52.6269 369.554 52.1934C370.823 51.5794 372.128 51.2543 374.991 50.7486C376.405 50.5319 377.854 50.2429 378.217 50.0985C381.805 48.9788 383.581 46.1975 383.001 42.8023Z" fill="#B0A9FC"/>
<path d="M386.3 48.6171C385.357 46.5583 385.14 44.6078 385.647 42.7657C385.72 42.5851 385.792 42.4045 385.865 42.4045C385.937 42.4045 386.155 42.5129 386.372 42.6574C386.807 42.9463 387.713 43.452 390.033 44.7162C392.969 46.3055 394.636 47.5335 395.796 48.9422C396.811 50.1703 397.427 51.5789 397.717 53.3127C397.898 54.2879 397.789 56.6357 397.536 57.6109C396.738 60.6811 394.926 63.1373 392.28 64.5459C391.881 64.7626 391.555 64.9071 391.519 64.9071C391.483 64.9071 391.628 64.5459 391.845 64.1125C392.715 62.2704 392.824 60.5005 392.171 58.5139C391.773 57.2859 390.939 55.805 389.272 53.3127C387.278 50.4231 386.807 49.6646 386.3 48.6171Z" fill="#B0A9FC"/>
<path d="M359.296 59.6697C361.978 57.4302 365.277 55.841 368.321 55.3353C369.626 55.1186 371.801 55.1908 372.997 55.5159C374.918 56.0216 376.658 57.1052 377.564 58.4416C378.434 59.7419 378.832 60.8616 379.231 63.3539C379.376 64.3291 379.557 65.3405 379.593 65.5572C379.883 66.8575 380.463 67.8688 381.188 68.4106C382.312 69.2414 384.269 69.2775 386.19 68.5551C386.516 68.4468 386.806 68.3384 386.806 68.3745C386.879 68.4468 385.9 69.0969 385.248 69.422C384.341 69.8915 383.617 70.036 382.638 70.036C380.898 70.036 379.412 69.133 378.216 67.327C377.962 66.9658 377.455 65.9184 377.02 64.9431C375.751 62.0175 375.099 61.1506 373.613 60.1753C372.308 59.3446 370.641 59.164 369.372 59.778C367.705 60.5727 367.27 62.7037 368.43 64.004C368.901 64.5458 369.771 64.9793 370.496 65.0876C371.837 65.2682 372.997 64.2208 372.997 62.8843C372.997 62.0175 372.671 61.5118 371.801 61.1145C370.641 60.6088 369.372 61.1867 369.409 62.3064C369.409 62.776 369.626 63.0649 370.097 63.2816C370.387 63.4261 370.387 63.4261 370.17 63.39C369.119 63.1733 368.865 61.873 369.699 61.0422C370.713 60.0309 372.852 60.4643 373.577 61.873C373.867 62.4509 373.903 63.6067 373.649 64.3291C373.033 65.9184 371.293 66.7491 369.517 66.2796C368.321 65.9545 367.814 65.6294 366.364 64.1485C363.827 61.5479 362.848 61.0422 359.224 60.5004L358.535 60.3921L359.296 59.6697Z" fill="#B0A9FC"/>
<path fill-rule="evenodd" clip-rule="evenodd" d="M340.232 1.55315C348.677 11.775 361.689 27.6677 362.341 28.5346C362.885 29.257 362.668 29.9432 361.761 30.4489C361.254 30.7379 360.203 31.0268 359.695 31.0268C359.116 31.0268 358.427 30.7379 357.956 30.2683C357.629 29.9432 356.216 27.8844 353.026 22.936C350.598 19.1434 348.532 16.001 348.496 15.9649C348.351 15.8927 348.351 15.8927 352.773 23.7668C355.564 28.7152 356.47 30.485 356.47 30.7018C356.47 31.1713 356.325 31.4242 355.745 32.0743C354.766 33.1579 354.331 34.386 354.005 36.9505C353.643 39.8039 352.664 41.8266 349.873 45.258C348.242 47.2807 347.988 47.6419 347.59 48.4727C347.082 49.484 346.937 50.0619 346.865 51.3622C346.792 52.7348 346.937 53.6017 347.336 54.902C347.698 56.0578 348.097 56.8163 349.076 58.2972C349.909 59.5975 350.417 60.5728 350.417 60.934C350.417 61.2229 350.489 61.2229 351.794 60.934C354.911 60.2116 357.485 58.9835 358.898 57.4665C359.768 56.5274 359.985 56.0217 359.985 54.7214C359.985 53.8906 359.949 53.71 359.732 53.2043C359.369 52.4097 358.681 51.7596 357.195 50.7482C355.237 49.4118 354.404 48.3282 354.186 46.8834C354.005 45.6553 354.222 44.8246 355.31 42.549C356.433 40.2012 356.723 39.226 356.905 36.8421C357.013 35.3251 357.195 34.711 357.629 34.2415C358.101 33.7358 358.499 33.5552 359.623 33.4107C361.471 33.1579 362.668 32.6883 363.61 31.7853C364.444 31.0268 364.806 30.2683 364.842 29.1486L364.878 28.3179L364.407 27.8122C362.704 25.8617 339.108 0 339 0C338.963 0 339.543 0.686275 340.232 1.55315ZM351.359 52.9154C351.758 52.2291 351.54 51.3622 350.888 50.9288C350.272 50.5315 349.329 50.7121 349.329 51.2539C349.329 51.3983 349.402 51.5428 349.619 51.6151C349.946 51.7957 349.982 51.9763 349.728 52.3736C349.474 52.7709 349.474 53.1321 349.801 53.3849C350.308 53.7823 350.997 53.5655 351.359 52.9154Z" fill="#B0A9FC"/>
<path fill-rule="evenodd" clip-rule="evenodd" d="M366.039 33.9162C365.169 34.169 364.335 35.1081 364.082 36.0472C363.937 36.6252 364.009 37.6726 364.263 37.9977C364.662 38.5034 365.024 38.6479 366.039 38.6479C368.032 38.6479 369.736 37.781 369.917 36.7335C370.098 35.8666 369.337 34.6747 368.286 34.1329C367.742 33.8439 366.619 33.7356 366.039 33.9162ZM368.359 35.7222C368.649 35.2887 368.54 34.8192 367.996 34.4941C367.018 33.8801 365.531 34.3857 365.531 35.3248C365.531 35.7944 366.293 36.3001 367.018 36.3001C367.489 36.3001 368.141 36.0111 368.359 35.7222Z" fill="#B0A9FC"/>
</g>
<g clip-path="url(#clip4_198_1545)">
<path d="M487.923 15.9289C487.162 15.8205 487.126 15.7844 487.488 15.7483C488.177 15.6399 489.772 15.7844 490.895 16.0372C493.505 16.6512 495.861 18.2405 498.362 21.0217L499.014 21.7802L499.957 21.6358C503.98 20.9856 508.112 21.4913 511.555 23.0806C512.497 23.514 513.983 24.3809 514.165 24.5976C514.237 24.6698 514.346 25.1394 514.418 25.6089C514.672 27.3066 514.563 28.5707 514.02 29.546C513.73 30.0878 513.73 30.2323 513.911 30.7018C514.056 31.063 514.491 31.3158 514.889 31.3158C515.759 31.3158 516.665 29.9433 517.1 28.029L517.282 27.2704L517.608 27.6316C519.456 29.6905 520.906 32.5439 521.124 34.5666L521.196 35.1084L520.87 34.6389C520.326 33.8081 519.819 33.2663 519.13 32.7968C517.898 31.966 516.593 31.7132 513.15 31.5326C510.033 31.352 508.257 31.0991 506.517 30.5212C503.545 29.546 502.023 28.2818 498.507 23.6223C496.948 21.5635 495.97 20.4438 494.991 19.5047C492.853 17.4459 490.714 16.3623 487.923 15.9289Z" fill="#B0A9FC"/>
<path d="M514.923 20.516C514.995 19.1435 515.176 18.2405 515.575 17.4098C515.72 17.0847 515.865 16.7957 515.901 16.7957C515.937 16.7957 515.865 17.0486 515.756 17.3375C515.466 18.1321 515.43 19.2519 515.611 20.516C515.865 22.1414 515.974 22.3582 517.713 24.128C518.511 24.9588 519.453 26.0062 519.816 26.4397L520.432 27.2343L519.816 26.6564C519.054 25.934 517.315 24.5615 516.916 24.3809C516.662 24.2364 516.626 24.2364 516.445 24.417C516.3 24.5615 516.264 24.7782 516.264 25.8256C516.227 27.451 516.01 28.4624 515.466 29.5099C515.176 30.0516 515.14 29.9433 515.394 29.3293C515.575 28.8597 515.611 28.643 515.611 27.0898C515.611 23.9474 515.249 23.1889 513.038 21.9247C512.494 21.5996 511.552 21.1301 511.008 20.8772C510.428 20.6244 509.993 20.4077 510.029 20.4077C510.102 20.3354 512.24 20.9495 513.074 21.3107C514.343 21.8164 514.56 21.8525 514.705 21.8164C514.814 21.708 514.886 21.419 514.923 20.516Z" fill="#B0A9FC"/>
<path d="M489.407 25.8972C487.885 23.8023 486.906 20.5515 487.124 18.1315L487.196 17.373L487.559 17.4452C488.211 17.5536 489.335 17.987 489.879 18.3121C491.328 19.179 491.981 20.3709 492.597 23.3327C492.778 24.1996 493.032 25.211 493.141 25.536C493.322 26.0778 494.01 27.342 494.59 28.1367C494.989 28.7146 494.735 29.0035 493.829 28.9313C492.452 28.7868 490.603 27.5226 489.407 25.8972Z" fill="#B0A9FC"/>
<path d="M513.077 41.61C505.9 38.7204 503.363 36.2282 503.363 32.0022C503.363 31.3881 503.4 30.8824 503.4 30.8824C503.436 30.8824 503.689 31.0992 504.016 31.352C505.465 32.5078 507.096 33.0135 511.627 33.6637C514.273 34.061 515.795 34.3499 517.173 34.8195C521.558 36.2643 524.277 39.2261 524.929 43.2354C525.11 44.3912 525.001 46.5945 524.711 47.7503C524.458 48.6533 523.733 50.3148 523.552 50.351C523.515 50.351 523.443 50.1704 523.443 49.8814C523.37 48.3644 522.609 46.9196 521.341 45.7999C519.818 44.4996 517.861 43.5243 513.077 41.61Z" fill="#B0A9FC"/>
<path d="M508.001 42.8023C507.929 42.2605 507.747 41.5742 507.639 41.2853L507.457 40.7435L507.784 41.1408C508.255 41.6826 508.617 42.3327 508.943 43.2357C509.197 43.922 509.197 44.1387 509.197 45.2584C509.197 46.342 509.161 46.5949 508.943 47.2089C508.581 48.1841 508.146 48.8704 507.421 49.6289C506.116 50.9653 504.413 51.6877 501.984 52.0128C501.55 52.0489 500.317 52.1573 499.23 52.2295C496.512 52.374 494.699 52.663 493.068 53.2409C492.851 53.3131 492.633 53.3854 492.597 53.3492C492.525 53.277 493.648 52.6269 494.554 52.1934C495.823 51.5794 497.128 51.2543 499.991 50.7486C501.405 50.5319 502.854 50.2429 503.217 50.0985C506.805 48.9788 508.581 46.1975 508.001 42.8023Z" fill="#B0A9FC"/>
<path d="M511.3 48.6171C510.357 46.5583 510.14 44.6078 510.647 42.7657C510.72 42.5851 510.792 42.4045 510.865 42.4045C510.937 42.4045 511.155 42.5129 511.372 42.6574C511.807 42.9463 512.713 43.452 515.033 44.7162C517.969 46.3055 519.636 47.5335 520.796 48.9422C521.811 50.1703 522.427 51.5789 522.717 53.3127C522.898 54.2879 522.789 56.6357 522.536 57.6109C521.738 60.6811 519.926 63.1373 517.28 64.5459C516.881 64.7626 516.555 64.9071 516.519 64.9071C516.483 64.9071 516.628 64.5459 516.845 64.1125C517.715 62.2704 517.824 60.5005 517.171 58.5139C516.773 57.2859 515.939 55.805 514.272 53.3127C512.278 50.4231 511.807 49.6646 511.3 48.6171Z" fill="#B0A9FC"/>
<path d="M484.296 59.6697C486.978 57.4302 490.277 55.841 493.321 55.3353C494.626 55.1186 496.801 55.1908 497.997 55.5159C499.918 56.0216 501.658 57.1052 502.564 58.4416C503.434 59.7419 503.832 60.8616 504.231 63.3539C504.376 64.3291 504.557 65.3405 504.593 65.5572C504.883 66.8575 505.463 67.8688 506.188 68.4106C507.312 69.2414 509.269 69.2775 511.19 68.5551C511.516 68.4468 511.806 68.3384 511.806 68.3745C511.879 68.4468 510.9 69.0969 510.248 69.422C509.341 69.8915 508.617 70.036 507.638 70.036C505.898 70.036 504.412 69.133 503.216 67.327C502.962 66.9658 502.455 65.9184 502.02 64.9431C500.751 62.0175 500.099 61.1506 498.613 60.1753C497.308 59.3446 495.641 59.164 494.372 59.778C492.705 60.5727 492.27 62.7037 493.43 64.004C493.901 64.5458 494.771 64.9793 495.496 65.0876C496.837 65.2682 497.997 64.2208 497.997 62.8843C497.997 62.0175 497.671 61.5118 496.801 61.1145C495.641 60.6088 494.372 61.1867 494.409 62.3064C494.409 62.776 494.626 63.0649 495.097 63.2816C495.387 63.4261 495.387 63.4261 495.17 63.39C494.119 63.1733 493.865 61.873 494.699 61.0422C495.713 60.0309 497.852 60.4643 498.577 61.873C498.867 62.4509 498.903 63.6067 498.649 64.3291C498.033 65.9184 496.293 66.7491 494.517 66.2796C493.321 65.9545 492.814 65.6294 491.364 64.1485C488.827 61.5479 487.848 61.0422 484.224 60.5004L483.535 60.3921L484.296 59.6697Z" fill="#B0A9FC"/>
<path fill-rule="evenodd" clip-rule="evenodd" d="M465.232 1.55315C473.677 11.775 486.689 27.6677 487.341 28.5346C487.885 29.257 487.668 29.9432 486.761 30.4489C486.254 30.7379 485.203 31.0268 484.695 31.0268C484.116 31.0268 483.427 30.7379 482.956 30.2683C482.629 29.9432 481.216 27.8844 478.026 22.936C475.598 19.1434 473.532 16.001 473.496 15.9649C473.351 15.8927 473.351 15.8927 477.773 23.7668C480.564 28.7152 481.47 30.485 481.47 30.7018C481.47 31.1713 481.325 31.4242 480.745 32.0743C479.766 33.1579 479.331 34.386 479.005 36.9505C478.643 39.8039 477.664 41.8266 474.873 45.258C473.242 47.2807 472.988 47.6419 472.59 48.4727C472.082 49.484 471.937 50.0619 471.865 51.3622C471.792 52.7348 471.937 53.6017 472.336 54.902C472.698 56.0578 473.097 56.8163 474.076 58.2972C474.909 59.5975 475.417 60.5728 475.417 60.934C475.417 61.2229 475.489 61.2229 476.794 60.934C479.911 60.2116 482.485 58.9835 483.898 57.4665C484.768 56.5274 484.985 56.0217 484.985 54.7214C484.985 53.8906 484.949 53.71 484.732 53.2043C484.369 52.4097 483.681 51.7596 482.195 50.7482C480.237 49.4118 479.404 48.3282 479.186 46.8834C479.005 45.6553 479.222 44.8246 480.31 42.549C481.433 40.2012 481.723 39.226 481.905 36.8421C482.013 35.3251 482.195 34.711 482.629 34.2415C483.101 33.7358 483.499 33.5552 484.623 33.4107C486.471 33.1579 487.668 32.6883 488.61 31.7853C489.444 31.0268 489.806 30.2683 489.842 29.1486L489.878 28.3179L489.407 27.8122C487.704 25.8617 464.108 0 464 0C463.963 0 464.543 0.686275 465.232 1.55315ZM476.359 52.9154C476.758 52.2291 476.54 51.3622 475.888 50.9288C475.272 50.5315 474.329 50.7121 474.329 51.2539C474.329 51.3983 474.402 51.5428 474.619 51.6151C474.946 51.7957 474.982 51.9763 474.728 52.3736C474.474 52.7709 474.474 53.1321 474.801 53.3849C475.308 53.7823 475.997 53.5655 476.359 52.9154Z" fill="#B0A9FC"/>
<path fill-rule="evenodd" clip-rule="evenodd" d="M491.039 33.9162C490.169 34.169 489.335 35.1081 489.082 36.0472C488.937 36.6252 489.009 37.6726 489.263 37.9977C489.662 38.5034 490.024 38.6479 491.039 38.6479C493.032 38.6479 494.736 37.781 494.917 36.7335C495.098 35.8666 494.337 34.6747 493.286 34.1329C492.742 33.8439 491.619 33.7356 491.039 33.9162ZM493.359 35.7222C493.649 35.2887 493.54 34.8192 492.996 34.4941C492.018 33.8801 490.531 34.3857 490.531 35.3248C490.531 35.7944 491.293 36.3001 492.018 36.3001C492.489 36.3001 493.141 36.0111 493.359 35.7222Z" fill="#B0A9FC"/>
</g>
<g clip-path="url(#clip5_198_1545)">
<path fill-rule="evenodd" clip-rule="evenodd" d="M617 7.99622C632.462 7.99622 645 20.5346 645 35.9962C645 51.4578 632.462 63.9962 617 63.9962C601.538 63.9962 589 51.4578 589 35.9962C589 20.5346 601.538 7.99622 617 7.99622Z" fill="#B0A9FC"/>
<path d="M617.419 47.6996C608.465 47.6996 601.207 45.1124 601.207 41.646C601.207 39.8372 603.184 38.2076 606.348 37.0596C608.817 38.6444 612.961 39.4564 617.66 39.4564C622.246 39.4564 626.301 38.4652 628.793 36.9476C631.777 38.0844 633.631 39.6692 633.631 41.4164C633.631 44.8884 626.373 47.6996 617.419 47.6996Z" fill="#EBEAF7"/>
<path d="M617.517 38.6781C610.729 38.6781 605.225 36.5501 605.225 33.9237C605.225 32.4677 606.921 31.1629 609.581 30.2949C611.48 31.2861 614.325 31.9189 617.517 31.9189C620.709 31.9189 623.553 31.2861 625.452 30.2949C628.117 31.1685 629.809 32.4677 629.809 33.9237C629.814 36.5501 624.309 38.6781 617.517 38.6781Z" fill="#EBEAF7"/>
<path d="M617.47 31.1296C612.223 31.1296 607.967 29.3712 607.967 27.2096C607.967 25.048 612.223 23.2896 617.47 23.2896C622.717 23.2896 626.973 25.048 626.973 27.2096C626.973 29.3712 622.717 31.1296 617.47 31.1296Z" fill="#EBEAF7"/>
</g>
<g clip-path="url(#clip6_198_1545)">
<path d="M757.239 25.0469C756.075 24.3782 754.577 24.3782 753.247 25.0469L743.932 30.5633L737.611 34.0738L728.462 39.5902C727.298 40.2588 725.8 40.2588 724.47 39.5902L717.317 35.2439C716.153 34.5752 715.321 33.2379 715.321 31.7335V23.3752C715.321 22.0379 715.986 20.7006 717.317 19.8648L724.47 15.6857C725.634 15.017 727.131 15.017 728.462 15.6857L735.615 20.032C736.779 20.7006 737.611 22.0379 737.611 23.5424V29.0588L743.932 25.3812V19.6976C743.932 18.3603 743.266 17.023 741.936 16.1872L728.628 8.33047C727.464 7.66182 725.967 7.66182 724.636 8.33047L710.996 16.3544C709.665 17.023 709 18.3603 709 19.6976V35.4111C709 36.7484 709.665 38.0857 710.996 38.9215L724.47 46.7782C725.634 47.4469 727.131 47.4469 728.462 46.7782L737.611 41.429L743.932 37.7514L753.08 32.4021C754.245 31.7335 755.742 31.7335 757.073 32.4021L764.225 36.5812C765.39 37.2499 766.221 38.5872 766.221 40.0917V48.4499C766.221 49.7872 765.556 51.1245 764.225 51.9603L757.239 56.1394C756.075 56.8081 754.577 56.8081 753.247 56.1394L746.094 51.9603C744.93 51.2917 744.098 49.9543 744.098 48.4499V43.1006L737.777 46.7782V52.2946C737.777 53.632 738.442 54.9693 739.773 55.8051L753.247 63.6618C754.411 64.3305 755.908 64.3305 757.239 63.6618L770.713 55.8051C771.877 55.1364 772.709 53.7991 772.709 52.2946V36.414C772.709 35.0767 772.043 33.7394 770.713 32.9036L757.239 25.0469Z" fill="#B0A9FC"/>
</g>
<path d="M892.875 35.9963C892.875 51.4603 880.339 63.9962 864.875 63.9962C849.411 63.9962 836.875 51.4603 836.875 35.9963C836.875 20.5323 849.411 7.99622 864.875 7.99622C880.339 7.99622 892.875 20.5323 892.875 35.9963Z" stroke="#B0A9FC" stroke-width="2.40155"/>
<mask id="mask0_198_1545" style="mask-type:alpha" maskUnits="userSpaceOnUse" x="837" y="8" width="56" height="56">
<path d="M890.492 35.9957C890.492 50.1437 879.023 61.6129 864.875 61.6129C850.727 61.6129 839.258 50.1437 839.258 35.9957C839.258 21.8477 850.727 10.3784 864.875 10.3784C879.023 10.3784 890.492 21.8477 890.492 35.9957Z" fill="#31C77F" stroke="#31C77F" stroke-width="3.22408"/>
</mask>
<g mask="url(#mask0_198_1545)">
<path d="M852.428 62.7793C852.645 60.6648 855.297 56.7418 855.182 54.6274C855.169 54.2707 855.182 53.914 855.233 53.5575C855.45 52.0671 855.386 50.5769 855.271 49.0994C855.22 48.4879 855.271 47.8894 855.373 47.278C855.59 45.9661 855.718 44.6669 855.565 43.3295C855.424 42.0684 855.577 40.8074 855.832 39.5719C856.049 38.5275 856.024 37.483 855.858 36.4385C855.82 36.2093 855.781 35.9672 855.82 35.7507C855.96 34.9738 856.036 34.1841 856.062 33.3051C856.814 33.9675 857.618 34.0057 858.472 33.8145C859.173 33.6617 859.594 33.2033 859.875 32.5791C859.964 32.3754 860.002 32.1206 860.347 32.197C860.512 32.2352 860.704 32.2097 860.729 31.9805C860.755 31.764 860.589 31.7002 860.41 31.662C859.352 31.42 858.281 31.1652 857.222 30.936C856.878 30.8596 856.521 30.7704 856.177 30.7322C855.871 30.694 855.807 30.5538 855.832 30.2736C855.985 28.9745 856.228 27.7007 856.751 26.4907C857.261 25.3188 857.911 24.2107 858.842 23.3064C858.957 23.1918 859.097 23.0643 859.02 22.8733C858.944 22.6821 858.791 22.6312 858.612 22.695C858.421 22.7587 858.345 22.6568 858.255 22.5293C858.077 22.2492 857.885 21.969 857.72 21.676C857.159 20.7589 856.483 19.931 855.807 19.0903C855.667 18.912 855.488 18.7591 855.297 18.619C854.723 18.2114 854.213 18.4407 854.149 19.154C854.098 19.6125 854.137 20.0838 854.302 20.5169C854.902 22.0327 855.361 23.612 856.228 25.0131C856.445 25.3698 856.139 25.5353 856.024 25.79C855.807 25.6372 855.692 25.4207 855.59 25.2297C854.404 23.1407 853.41 20.9754 852.989 18.5808C852.874 17.9567 852.874 17.3198 852.9 16.6957C852.938 16.0078 853.244 15.8295 853.907 15.9951C854.392 16.1225 854.761 16.4282 855.118 16.7594C856.33 17.8802 857.363 19.1412 858.459 20.364C858.753 20.6952 859.046 21.0264 859.326 21.3575C859.505 21.5613 859.671 21.7524 859.696 22.058C859.722 22.402 859.964 22.504 860.283 22.3765C860.359 22.351 860.436 22.3128 860.512 22.2619C861.048 21.8926 861.647 21.7651 862.285 21.6632C864.032 21.3448 865.753 21.4722 867.475 21.8288C867.743 21.8926 867.972 22.0327 868.214 22.1727C868.737 22.4911 868.928 22.4147 869.082 21.8288C869.12 21.6632 869.222 21.5231 869.336 21.3957C870.752 19.8163 872.065 18.1477 873.621 16.6957C873.965 16.3772 874.31 16.0715 874.769 15.9314C875.521 15.6894 875.84 15.9187 875.891 16.6957C875.98 18.1732 875.623 19.5743 875.151 20.9499C874.68 22.3256 874.029 23.6248 873.341 24.8985C873.187 25.1788 872.996 25.4207 872.805 25.7392C872.18 24.8093 872.18 24.8221 872.652 23.9305C873.239 22.8351 873.838 21.7651 874.246 20.5805C874.412 20.0838 874.552 19.5743 874.539 19.0393C874.526 18.7082 874.463 18.4152 874.131 18.2496C873.812 18.0968 873.557 18.2369 873.328 18.4279C873.047 18.67 872.754 18.9247 872.499 19.2049C871.619 20.1602 870.65 21.0518 870.089 22.2492C869.987 22.4784 869.592 22.5804 869.745 22.9242C869.847 23.1536 870.089 23.2935 870.242 23.4847C871.147 24.5801 871.874 25.7774 872.32 27.1275C872.601 27.9809 872.792 28.8726 872.907 29.7641C872.958 30.2227 872.958 30.2227 872.486 30.3501C871.326 30.6558 870.178 30.9615 869.018 31.2672C868.916 31.2927 868.814 31.3054 868.712 31.3562C868.469 31.471 868.444 31.6876 868.674 31.8275C868.826 31.9168 868.916 31.9677 868.967 32.1715C869.158 32.9868 869.681 33.5089 870.51 33.6235C871.339 33.751 872.116 33.6109 872.601 32.8211C872.626 32.7702 872.639 32.7447 872.729 32.7956C872.703 33.7381 872.779 34.6935 872.958 35.6361C872.996 35.8144 872.971 36.0181 872.945 36.1964C872.703 37.3937 872.754 38.5783 872.996 39.7629C873.251 41.0748 873.328 42.3869 873.175 43.7115C873.06 44.6795 873.149 45.6476 873.328 46.5902C873.532 47.66 873.583 48.7173 873.468 49.7872C873.353 50.8827 873.391 51.9654 873.506 53.0607C873.583 53.7485 876.58 56.6144 876.541 57.315C877.115 58.3085 877.855 60.2064 878.569 61.1234L877.081 63.3769L866.006 65.3254L856.062 64.4024L852.428 62.7793Z" fill="#EBEAF7"/>
<path d="M921.4 38.6552C920.801 38.1968 920.113 37.8654 919.437 37.5216C917.294 36.4389 915.101 35.4964 912.908 34.5539C910.893 33.6877 909.108 32.5031 907.616 30.8854C907.386 30.6435 907.131 30.4141 906.876 30.1976C906.558 29.9175 906.201 29.892 905.818 30.083C905.282 30.3504 904.747 30.6307 904.237 30.9491C903.51 31.3949 902.286 32.0574 901.508 32.414C897.466 34.2991 893.283 35.8275 889.1 37.356C885.39 38.7189 881.794 40.3366 878.313 42.1962C877.025 42.884 875.851 43.7374 874.755 44.68C874.576 44.8328 874.398 45.0111 874.219 45.1513C874.206 45.1386 874.194 45.1386 874.181 45.1257C874.13 45.2786 874.015 45.4187 873.862 45.4824C873.798 45.7372 873.607 45.9537 873.263 45.9537C873.237 45.9537 873.212 45.9537 873.186 45.9537C873.161 47.4568 873.212 48.9597 873.378 50.4627C873.441 51.0104 873.301 51.3798 872.919 51.7875C871.031 53.7999 868.902 55.4939 866.721 57.1498C866.657 57.2007 866.568 57.2389 866.517 57.3026C866.313 57.6084 866.084 57.5829 865.778 57.4301C865.217 57.1498 864.655 57.3026 864.158 57.5956C863.878 57.7612 863.674 57.7484 863.419 57.6211C862.143 56.9715 860.881 56.3219 859.708 55.4813C858.127 54.3604 856.545 53.2522 855.155 51.9021C854.99 51.7491 854.875 51.5836 854.811 51.418C854.786 51.4053 854.747 51.3926 854.722 51.3798C854.709 51.3798 854.709 51.3798 854.696 51.3671C854.416 51.2525 854.875 50.8576 854.569 50.8066C854.505 50.8321 854.454 50.8448 854.39 50.8703C854.314 50.9467 853.74 51.0359 853.345 51.3798C853.319 51.4053 853.281 51.4308 853.243 51.4562C852.07 52.386 851.776 53.7235 852.465 55.0482C852.592 55.2901 852.554 55.4557 852.452 55.6723C851.916 56.7676 851.967 57.825 852.745 58.7929C852.949 59.0605 853.141 59.3405 853.421 59.5444L854.059 59.9902C854.428 60.194 854.964 60.3979 855.245 60.4743C856.431 60.7927 857.629 60.9964 858.853 61.0475C859.415 61.0728 859.988 60.9838 860.549 60.9329C861.633 60.8309 862.73 60.7417 863.801 60.5889C864.209 60.5252 864.592 60.6398 864.974 60.6526C865.319 60.6653 865.676 60.7035 865.956 60.5252C866.504 60.194 867.117 60.1813 867.703 60.1303C869.004 60.0157 870.279 59.7227 871.516 59.3279C872.778 58.933 874.041 58.551 875.252 57.9905C876.463 57.4301 877.522 56.7168 878.134 55.4813C878.198 55.3667 878.261 55.2901 878.364 55.2265C879.294 54.666 880.812 54.3857 881.641 54.0419C882.929 53.3286 884.204 52.6153 885.505 51.9274C887.341 50.9595 889.19 50.0041 891.179 49.3545C894.545 48.2337 898.027 47.6733 901.533 47.2402C902.821 47.0746 904.122 46.9726 905.397 46.6543C907.603 46.0938 909.733 45.3296 911.888 44.6418C912.602 44.4126 913.329 44.1832 914.017 43.8776C916.172 42.935 918.238 41.8013 920.304 40.6933C920.686 40.4894 921.056 40.2347 921.413 39.9673C922.025 39.4831 922.013 39.1265 921.4 38.6552Z" fill="#B0A9FC"/>
<path d="M876.607 16.517C876.556 15.549 875.893 15.0268 874.937 15.2178C874.503 15.307 874.095 15.4598 873.726 15.7273C872.82 16.3897 872.055 17.2048 871.328 18.0455C870.474 19.0263 869.607 20.0071 868.778 21.0133C868.523 21.319 868.293 21.3317 867.974 21.1916C867.477 20.9623 866.954 20.784 866.406 20.7458C864.493 20.6057 862.58 20.542 860.744 21.2553C860.362 21.4082 860.145 21.3317 859.89 21.026C859.074 20.0453 858.232 19.0772 857.378 18.1092C856.625 17.2558 855.86 16.4279 854.93 15.7655C854.483 15.4471 853.999 15.2942 853.463 15.2688C852.787 15.2433 852.341 15.5745 852.175 16.2368C852.124 16.4406 852.111 16.6571 852.111 16.8609C852.111 18.02 852.328 19.1537 852.558 20.2873C852.889 21.9304 853.642 23.4206 854.292 24.9363C854.547 25.5351 854.891 26.0954 855.338 26.5667C855.503 26.745 855.542 26.898 855.478 27.1272C855.376 27.4839 855.287 27.8532 855.197 28.2226C854.84 29.56 854.713 30.9229 854.917 32.2859C855.031 33.0119 855.006 33.6997 854.93 34.4129C854.84 35.1899 854.815 35.9541 854.993 36.7312C855.21 37.6482 855.159 38.5653 854.93 39.4825C854.687 40.4504 854.56 41.4184 854.611 42.412C854.674 43.4692 854.547 44.5137 854.509 45.5581C854.496 46.1695 854.509 46.7809 854.368 47.3795C854.19 48.1437 854.203 48.9208 854.317 49.6977C854.534 51.2134 854.394 50.4747 854.458 51.3918C854.738 51.3918 855.07 52.2706 855.363 52.2579C855.35 51.5446 855.274 49.8251 855.21 49.1118C855.159 48.5004 855.21 47.9018 855.312 47.2904C855.529 45.9784 855.656 44.6791 855.503 43.3417C855.363 42.0809 855.516 40.8199 855.771 39.5844C855.988 38.5399 855.962 37.4954 855.797 36.4509C855.758 36.2217 855.72 35.9797 855.758 35.7631C855.899 34.9861 855.975 34.1965 856.001 33.3175C856.753 33.98 857.556 34.0182 858.411 33.827C859.112 33.6742 859.533 33.2156 859.813 32.5915C859.903 32.3876 859.941 32.1329 860.285 32.2095C860.451 32.2477 860.642 32.2222 860.668 31.9929C860.693 31.7764 860.527 31.7127 860.349 31.6745C859.291 31.4324 858.219 31.1777 857.161 30.9485C856.817 30.8721 856.46 30.7828 856.115 30.7446C855.809 30.7064 855.746 30.5663 855.771 30.286C855.924 28.9868 856.166 27.7131 856.689 26.5031C857.199 25.3312 857.85 24.2232 858.781 23.3188C858.895 23.204 859.036 23.0768 858.959 22.8858C858.883 22.6946 858.729 22.6437 858.551 22.7074C858.36 22.771 858.283 22.6692 858.194 22.5418C858.015 22.2615 857.824 21.9814 857.658 21.6884C857.097 20.7713 856.421 19.9434 855.746 19.1027C855.605 18.9244 855.427 18.7715 855.235 18.6314C854.662 18.2238 854.152 18.4531 854.088 19.1664C854.037 19.6249 854.075 20.0962 854.241 20.5293C854.84 22.045 855.299 23.6244 856.166 25.0256C856.383 25.3823 856.077 25.5477 855.962 25.8025C855.746 25.6497 855.631 25.4331 855.529 25.2421C854.343 23.1532 853.348 20.9878 852.927 18.5932C852.813 17.9691 852.813 17.3322 852.838 16.7081C852.876 16.0203 853.183 15.842 853.846 16.0075C854.33 16.1349 854.7 16.4406 855.057 16.7718C856.268 17.8927 857.301 19.1537 858.398 20.3764C858.691 20.7076 858.985 21.0388 859.265 21.3699C859.444 21.5737 859.609 21.7648 859.635 22.0705C859.66 22.4145 859.903 22.5162 860.221 22.389C860.298 22.3634 860.375 22.3252 860.451 22.2743C860.987 21.905 861.586 21.7775 862.223 21.6757C863.97 21.3572 865.692 21.4846 867.413 21.8413C867.681 21.9048 867.911 22.045 868.153 22.1851C868.676 22.5036 868.867 22.4272 869.02 21.8413C869.058 21.6756 869.16 21.5355 869.275 21.4082C870.691 19.8287 872.004 18.1601 873.56 16.7081C873.904 16.3897 874.248 16.084 874.707 15.9439C875.46 15.7018 875.778 15.9311 875.83 16.7081C875.919 18.1856 875.562 19.5867 875.09 20.9623C874.618 22.3379 873.968 23.6371 873.279 24.911C873.126 25.1911 872.935 25.4331 872.744 25.7516C872.119 24.8217 872.119 24.8346 872.591 23.9429C873.177 22.8475 873.776 21.7775 874.184 20.593C874.35 20.0962 874.491 19.5867 874.478 19.0518C874.465 18.7206 874.401 18.4276 874.07 18.262C873.751 18.1092 873.496 18.2493 873.266 18.4404C872.986 18.6824 872.693 18.9371 872.438 19.2174C871.558 20.1726 870.589 21.0642 870.028 22.2615C869.925 22.4909 869.53 22.5928 869.683 22.9366C869.785 23.1658 870.028 23.306 870.181 23.4972C871.086 24.5925 871.813 25.7898 872.259 27.1399C872.54 27.9934 872.731 28.885 872.846 29.7765C872.897 30.2351 872.897 30.2351 872.425 30.3624C871.264 30.6682 870.117 30.9738 868.956 31.2796C868.854 31.3051 868.752 31.3178 868.65 31.3687C868.408 31.4833 868.382 31.6998 868.612 31.84C868.765 31.9292 868.854 31.9801 868.905 32.184C869.097 32.999 869.619 33.5214 870.448 33.636C871.277 33.7634 872.055 33.6233 872.54 32.8336C872.565 32.7825 872.578 32.7572 872.667 32.808C872.642 33.7506 872.718 34.706 872.897 35.6485C872.935 35.8269 872.909 36.0306 872.884 36.2089C872.642 37.4062 872.693 38.5908 872.935 39.7754C873.19 41.0873 873.266 42.3992 873.113 43.7239C872.999 44.692 873.088 45.6601 873.266 46.6026C873.47 47.6724 873.522 48.7298 873.407 49.7996C873.369 50.1563 873.343 50.5129 873.343 50.8696C873.636 50.8823 873.93 50.895 874.223 50.9078C874.236 50.7295 874.248 50.5385 874.274 50.3601C874.389 49.341 874.529 48.3349 874.338 47.2904C874.057 45.7618 874.095 44.1952 874.07 42.6412C874.057 41.5204 874.031 40.425 873.751 39.3296C873.534 38.4889 873.47 37.6227 873.662 36.7694C873.879 35.8269 873.853 34.897 873.726 33.9544C873.662 33.5214 873.572 33.0756 873.687 32.6425C873.904 31.7891 873.879 30.9356 873.84 30.0695C873.789 29.0505 873.509 28.0824 873.254 27.1145C873.177 26.8216 873.19 26.6177 873.419 26.3885C873.713 26.0954 873.955 25.7389 874.134 25.3567C875.205 23.1787 876.161 20.9751 876.442 18.5423C876.544 17.9054 876.646 17.2176 876.607 16.517Z" fill="#B0A9FC"/>
<path d="M920.636 39.4448C919.731 39.9287 918.928 40.3746 918.111 40.7949C916.734 41.5082 915.332 42.1833 913.916 42.8201C913.189 43.1512 912.437 43.406 911.672 43.6353C909.861 44.1957 908.063 44.7689 906.265 45.3166C904.595 45.8261 902.848 46.0044 901.126 46.2209C898.933 46.4885 896.753 46.7941 894.61 47.3165C892.736 47.7749 890.861 48.2462 889.063 48.9722C887.673 49.5327 886.36 50.2332 885.046 50.921C883.554 51.6981 882.101 52.5387 880.66 53.4048C880.099 53.7488 879.461 53.9016 878.849 54.1182C878.645 54.1819 878.492 54.1564 878.416 53.9143C878.199 53.2647 877.727 52.8189 877.115 52.526C876.885 52.4114 876.847 52.2584 876.86 52.0165C876.885 51.6599 876.873 51.3032 876.745 50.9592C876.592 50.5261 876.311 50.246 875.878 50.1186C875.47 49.9913 875.062 49.8894 874.641 49.9402C874.36 49.9784 874.258 49.8765 874.246 49.6218C874.233 49.4181 874.207 49.2016 874.195 48.9977C874.169 48.45 874.233 47.8897 874.131 47.3673C874.016 46.7304 874.22 46.3229 874.692 45.9026C876.286 44.4633 878.097 43.3933 880.009 42.4507C884.103 40.4255 888.362 38.8078 892.646 37.2667C896.408 35.9165 900.081 34.3625 903.664 32.6049C904.493 32.1971 905.283 31.7132 906.074 31.2419C906.316 31.1018 906.469 31.1018 906.648 31.3438C908.114 33.2545 910.104 34.4517 912.259 35.3943C914.63 36.4259 916.964 37.5341 919.272 38.6677C919.705 38.8715 920.126 39.1518 920.636 39.4448Z" fill="#B0A9FC"/>
<path d="M853.245 56.0027C853.449 56.0918 853.589 56.1428 853.717 56.1937C853.946 56.2828 854.189 56.2956 854.342 56.0663C854.507 55.8244 854.354 55.6333 854.176 55.4677C853.972 55.2894 853.768 55.111 853.564 54.92C852.735 54.1558 853.092 52.7673 853.87 52.2834C854.061 52.1688 854.201 52.1177 854.354 52.3089C854.393 52.3598 854.444 52.398 854.482 52.4489C856.089 54.2576 858.103 55.5696 860.118 56.856C861.036 57.442 861.98 58.0024 863 58.4099C863.255 58.5119 863.37 58.6393 863.319 58.9194C863.268 59.1488 863.281 59.378 863.37 59.6072C863.459 59.8493 863.332 59.913 863.127 59.9257C862.796 59.9639 862.465 60.0149 862.12 60.0149C860.845 60.0403 859.57 60.3079 858.295 60.1933C856.994 60.0658 855.732 59.7856 854.546 59.1997C854.125 58.9958 853.755 58.7284 853.474 58.3464C852.926 57.6331 852.913 56.8688 853.245 56.0027Z" fill="#B0A9FC"/>
<path d="M867.904 59.2136C867.712 59.1881 867.457 59.3917 867.279 59.2263C867.151 59.0988 867.139 58.8441 867.062 58.6531C867.037 58.5767 866.998 58.4874 866.947 58.4238C866.769 58.2073 866.896 58.0927 867.075 57.9779C868.184 57.2901 869.166 56.4368 870.225 55.6726C871.512 54.7172 872.647 53.5963 873.718 52.4117C874.063 52.0424 874.318 51.5966 874.292 51.0616C874.28 50.8451 874.382 50.756 874.598 50.7814C874.802 50.8069 875.019 50.8324 875.223 50.8833C875.861 51.0361 876.128 51.5711 875.848 52.1698C875.733 52.4117 875.58 52.6411 875.453 52.883C875.363 53.0613 875.325 53.2397 875.504 53.3926C875.67 53.5326 875.848 53.5072 876.027 53.418C876.039 53.4053 876.065 53.4053 876.078 53.3926C876.231 53.3161 876.32 53.0742 876.473 53.125C876.702 53.2015 876.919 53.3544 877.11 53.5072C877.569 53.8766 877.735 54.3097 877.569 54.7683C877.378 55.2777 877.072 55.7362 876.664 56.1183C875.861 56.8699 874.904 57.3412 873.897 57.6978C872.214 58.2837 870.53 58.8569 868.758 59.1499C868.49 59.1881 868.21 59.2136 867.904 59.2136Z" fill="#B0A9FC"/>
<path d="M856.683 24.6695C856.058 24.0581 855.701 23.3447 855.433 22.6061C855.102 21.7017 854.783 20.7973 854.566 19.8547C854.515 19.651 854.503 19.4471 854.49 19.2306C854.49 19.0905 854.464 18.9249 854.63 18.8485C854.796 18.7848 854.923 18.8867 855.025 18.9886C855.561 19.4599 856.02 20.0076 856.39 20.619C856.836 21.345 857.282 22.071 857.754 22.7971C857.933 23.0773 857.933 23.281 857.665 23.4722C857.257 23.7651 857.04 24.2236 856.683 24.6695Z" fill="#EBEAF7"/>
<path d="M871.845 24.3373C871.552 23.8151 871.106 23.4456 870.672 23.0509C870.456 22.847 870.468 22.7069 870.609 22.4648C871.221 21.4586 871.986 20.567 872.764 19.6754C872.993 19.4079 873.197 19.1022 873.49 18.8984C873.809 18.6819 874 18.7711 874.052 19.1532C874.064 19.2551 874.064 19.3697 874.039 19.4716C873.847 20.2613 873.682 21.0765 873.274 21.7898C872.866 22.4777 872.509 23.1782 872.152 23.8915C872.075 24.0443 872.037 24.2226 871.845 24.3373Z" fill="#EBEAF7"/>
<path d="M865.167 59.8745C865.103 59.8618 864.988 59.8618 864.886 59.8489C864.44 59.7854 864.172 59.5688 864.121 59.2248C864.07 58.8809 864.351 58.4224 864.721 58.2823C865.409 58.002 866.047 58.2059 866.34 58.7918C866.531 59.1611 866.48 59.3523 866.161 59.607C865.919 59.7852 865.575 59.8871 865.167 59.8745Z" fill="#B0A9FC"/>
<path d="M857.339 32.3383C857.045 32.3512 856.841 32.1852 856.841 31.9171C856.828 31.6361 856.981 31.4574 857.224 31.4574C857.518 31.4445 857.71 31.6105 857.723 31.8915C857.723 32.1724 857.608 32.3256 857.339 32.3383Z" fill="#EBEAF7"/>
<path d="M870.818 31.9182C870.754 32.1225 870.716 32.3396 870.473 32.3906C870.243 32.4418 870.025 32.2247 870.025 31.982C870.038 31.7267 870.191 31.5989 870.422 31.5862C870.626 31.5735 870.78 31.7011 870.818 31.9182Z" fill="#EBEAF7"/>
<path d="M864.796 32.8204C865.115 32.4382 865.523 32.2725 866.007 32.2854C866.773 32.298 867.334 32.7948 867.397 33.5591C867.423 33.9284 867.448 34.3233 867.308 34.6799C867.181 34.9984 867.219 35.1767 867.525 35.4059C868.15 35.9027 868.468 36.565 868.417 37.393C868.392 37.7241 868.315 38.0426 868.086 38.2591C867.78 38.5394 867.614 38.9087 867.461 39.2527C867.104 40.0296 866.454 40.3736 865.689 40.5009C864.834 40.6283 864.018 40.4118 863.291 39.9405C862.909 39.6985 862.641 39.3418 862.513 38.9087C862.45 38.6922 862.36 38.5521 862.169 38.4248C861.442 37.928 861.251 37.1 861.684 36.3358C861.825 36.0811 861.991 35.8135 862.207 35.6352C862.539 35.3804 862.565 35.1257 862.45 34.7692C862.297 34.2851 862.399 33.8138 862.565 33.3552C862.896 32.4255 863.661 32.1579 864.516 32.6547C864.592 32.6929 864.681 32.7566 864.796 32.8204Z" fill="#B0A9FC"/>
<path d="M866.732 38.2464C866.248 38.2082 865.788 37.9152 865.444 37.4184C864.959 36.7051 864.959 36.7051 864.513 37.444C864.169 38.0043 863.646 38.2846 862.983 38.2464C862.103 38.1827 861.682 37.342 862.167 36.5905C862.345 36.3102 862.6 36.081 862.868 35.8772C863.289 35.5589 863.315 35.4951 863.136 34.9728C863.021 34.629 862.919 34.2979 862.945 33.9283C863.008 33.1259 863.633 32.7948 864.322 33.177C864.437 33.2405 864.526 33.3298 864.628 33.3935C864.883 33.5463 865.1 33.559 865.253 33.2534C865.444 32.884 865.776 32.8712 866.12 32.9094C866.502 32.9476 866.719 33.177 866.86 33.5208C866.936 33.7118 866.923 33.8901 866.847 34.0685C866.745 34.3232 866.63 34.5653 866.528 34.82C866.286 35.3423 866.311 35.4569 866.847 35.6862C867.293 35.8772 867.637 36.1574 867.829 36.616C868.173 37.4058 867.688 38.2209 866.732 38.2464Z" fill="#EBEAF7"/>
<path d="M863.125 38.8087C864.043 38.7069 864.094 38.6814 865.05 37.7642C865.56 38.4267 866.198 38.8342 867.065 38.7705C866.81 39.5347 866.249 39.9169 865.395 39.9424C864.451 39.9551 863.354 39.713 863.125 38.8087Z" fill="#EBEAF7"/>
<path d="M863.894 33.9415C863.933 33.967 864.035 33.9799 864.073 34.0309C864.239 34.2478 864.38 34.4902 864.405 34.7708C864.418 34.8985 864.354 35.0133 864.214 35.0644C864.099 35.1027 864.009 35.0516 863.933 34.975C863.728 34.7581 863.575 34.5029 863.613 34.1839C863.626 34.0564 863.703 33.967 863.894 33.9415Z" fill="#B0A9FC"/>
<path d="M865.411 34.4908C865.449 34.3887 865.501 34.1974 865.59 34.0314C865.654 33.8912 865.769 33.7891 865.948 33.8657C866.075 33.9295 866.126 34.0443 866.101 34.1718C866.063 34.3504 865.999 34.5291 865.935 34.7077C865.871 34.8736 865.756 35.0011 865.551 34.9246C865.373 34.8736 865.373 34.7077 865.411 34.4908Z" fill="#B0A9FC"/>
<path d="M853.027 58.6138L851.854 61.8236L852.644 62.2185C852.644 62.2185 853.741 59.5563 853.868 59.3016C853.983 59.0342 853.027 58.6138 853.027 58.6138Z" fill="#B0A9FC"/>
<path d="M876.465 56.5249L875.98 57.0471C875.98 57.0471 877.995 61.7598 878.595 61.7727C879.194 61.7727 878.811 60.8173 878.811 60.8173C878.811 60.8173 877.052 57.1363 876.746 56.4867C876.516 55.9644 876.465 56.5249 876.465 56.5249Z" fill="#B0A9FC"/>
</g>
<g clip-path="url(#clip7_198_1545)">
<path d="M956.875 36.913V35.1247C956.905 35.0516 956.926 34.9755 956.939 34.8977C956.994 33.1985 957.211 31.5084 957.588 29.8505C958.202 27.0778 959.241 24.4168 960.669 21.9621C964.025 16.2 969.312 11.8119 975.593 9.57563C978.362 8.59223 981.27 8.05897 984.208 7.99612C985.479 7.98036 986.75 8.03491 988.016 8.15952C989.438 8.30282 990.846 8.56702 992.223 8.94927C997.622 10.4069 1002.46 13.4486 1006.11 17.682C1008.72 20.6786 1010.66 24.2016 1011.79 28.0123C1012.42 30.0985 1012.8 32.2537 1012.91 34.4302C1012.97 35.5967 1012.91 36.7723 1012.87 37.9478C1012.81 39.3238 1012.62 40.6912 1012.31 42.0327C1011.76 44.5685 1010.85 47.0135 1009.61 49.2949C1006.74 54.6089 1002.24 58.8582 996.771 61.4135C995.115 62.1825 993.388 62.7904 991.615 63.229C989.95 63.6542 988.244 63.9052 986.527 63.978C985.13 64.031 983.731 63.9977 982.338 63.8781C981.023 63.761 979.717 63.5548 978.43 63.2608C976.032 62.7158 973.724 61.8357 971.572 60.6465C966.162 57.7013 961.866 53.0654 959.34 47.4476C957.882 44.2164 957.066 40.7324 956.939 37.1898C956.927 37.0957 956.905 37.0029 956.875 36.913V36.913ZM988.719 24.3359V22.3388C988.724 21.7869 988.841 21.2417 989.063 20.7362C989.284 20.2307 989.606 19.7754 990.008 19.3976C991.207 18.1676 992.732 17.8408 994.366 17.8635C995.214 17.8963 996.053 18.0491 996.857 18.3174L997.861 18.6033V14.6273C997.593 14.5683 997.334 14.4957 997.071 14.4549C995.588 14.2387 994.086 14.1855 992.591 14.296C992.135 14.3118 991.681 14.3512 991.229 14.414C989.959 14.6382 988.761 15.1661 987.739 15.9527C986.753 16.6402 985.954 17.5616 985.412 18.6341C984.87 19.7067 984.603 20.897 984.634 22.0982V23.9955C984.634 24.0908 984.634 24.1906 984.634 24.3359H981.811V27.9669H984.594V41.0705C984.109 40.777 983.609 40.5089 983.096 40.2671C980.876 39.3259 978.393 39.2069 976.092 39.9313C974 40.5375 972.181 41.8493 970.945 43.644C970.118 44.8226 969.56 46.1685 969.311 47.5866C969.061 49.0046 969.127 50.4602 969.502 51.8502C969.805 53.231 970.423 54.523 971.308 55.6253C972.193 56.7276 973.321 57.6104 974.604 58.2046C976.123 58.9295 977.796 59.2737 979.478 59.2077C980.606 59.1809 981.719 58.9502 982.764 58.5268C984.245 57.9278 985.55 56.9645 986.559 55.7264C987.805 54.2634 988.607 52.4743 988.869 50.5703C988.983 49.6048 989.036 48.6331 989.028 47.6609C989.028 44.7787 988.996 41.8966 988.992 39.0371C988.992 35.4469 988.992 31.8612 988.992 28.2756C988.992 28.1984 988.992 28.1167 988.992 27.9987H996.363V24.3359H988.719Z" fill="#B0A9FC"/>
<path d="M988.72 24.3361H996.363V27.9672H989.01C989.01 28.0852 989.01 28.1669 989.01 28.244C989.01 31.8297 989.01 35.4154 989.01 39.0056C989.01 41.8832 989.056 44.7653 989.047 47.6293C989.055 48.6015 989.002 49.5732 988.888 50.5387C988.629 52.4454 987.829 54.2379 986.582 55.7039C985.573 56.9421 984.268 57.9053 982.788 58.5044C981.742 58.9277 980.629 59.1584 979.502 59.1852C977.819 59.2512 976.146 58.907 974.627 58.1821C973.344 57.5879 972.216 56.7052 971.331 55.6029C970.446 54.5005 969.828 53.2085 969.525 51.8277C969.15 50.4427 969.083 48.9923 969.328 47.5785C969.574 46.1647 970.126 44.8218 970.946 43.6442C972.18 41.8504 973.997 40.5386 976.088 39.9315C978.388 39.2071 980.871 39.3262 983.092 40.2674C983.605 40.5091 984.105 40.7772 984.59 41.0707V27.9672H981.812V24.3361H984.594C984.594 24.1909 984.594 24.091 984.594 23.9957V22.0985C984.567 20.8935 984.841 19.7009 985.39 18.628C985.939 17.5551 986.746 16.6358 987.74 15.9529C988.775 15.1596 989.989 14.6314 991.275 14.4142C991.727 14.3514 992.181 14.312 992.637 14.2962C994.131 14.1857 995.634 14.2389 997.117 14.4551C997.38 14.4959 997.639 14.5685 997.906 14.6276V18.5854L996.863 18.2995C996.058 18.0312 995.219 17.8784 994.371 17.8456C992.741 17.8456 991.194 18.1497 990.013 19.3797C989.61 19.757 989.288 20.2122 989.065 20.7178C988.843 21.2233 988.725 21.7686 988.72 22.3209V24.3361ZM973.524 49.1544C973.526 50.2943 973.869 51.4076 974.509 52.3514C975.148 53.2953 976.054 54.0267 977.112 54.452C978.17 54.8773 979.33 54.9771 980.445 54.7386C981.56 54.5 982.578 53.934 983.369 53.1132C984.16 52.2923 984.688 51.2539 984.885 50.1311C985.082 49.0083 984.939 47.8522 984.475 46.811C984.01 45.7699 983.246 44.8911 982.279 44.2872C981.312 43.6834 980.187 43.3821 979.048 43.4218C977.565 43.4793 976.162 44.1081 975.132 45.1766C974.103 46.2451 973.526 47.6705 973.524 49.1544Z" fill="#EBEAF7"/>
<path d="M973.523 49.1553C973.521 48.4037 973.666 47.6589 973.951 46.9635C974.236 46.268 974.656 45.6356 975.185 45.1022C976.255 44.025 977.709 43.4168 979.227 43.4114C980.744 43.406 982.202 44.0038 983.28 45.0733C984.357 46.1429 984.965 47.5965 984.97 49.1144C984.973 49.8661 984.828 50.6108 984.543 51.3063C984.257 52.0017 983.838 52.6342 983.308 53.1675C982.779 53.7009 982.149 54.1247 981.456 54.4148C980.763 54.7049 980.019 54.8556 979.267 54.8583C977.749 54.8637 976.291 54.2659 975.214 53.1964C974.137 52.1269 973.529 50.6732 973.523 49.1553Z" fill="#B0A9FC"/>
</g>
<g clip-path="url(#clip8_198_1545)">
<path d="M1121.79 10.8584L1110.1 28.2184C1109.3 29.4007 1110.85 30.8318 1111.97 29.8362L1123.47 19.8184C1123.78 19.5695 1124.21 19.7562 1124.21 20.1918V51.4896C1124.21 51.9251 1123.65 52.1118 1123.4 51.8007L1088.6 10.1118C1087.48 8.74288 1085.86 7.99622 1084.06 7.99622H1082.82C1079.59 7.99622 1076.91 10.6718 1076.91 13.9695V58.0229C1076.91 61.3207 1079.59 63.9962 1082.88 63.9962C1084.93 63.9962 1086.86 62.9384 1087.98 61.134L1099.66 43.774C1100.47 42.5918 1098.92 41.1607 1097.8 42.1562L1086.3 52.1118C1085.99 52.3607 1085.55 52.174 1085.55 51.7384V20.5029C1085.55 20.0673 1086.11 19.8807 1086.36 20.1918L1121.17 61.8807C1122.29 63.2495 1123.96 63.9962 1125.7 63.9962H1126.95C1130.24 63.9962 1132.91 61.3207 1132.91 58.0229V13.9695C1132.91 10.6718 1130.24 7.99622 1126.95 7.99622C1124.83 7.99622 1122.91 9.05399 1121.79 10.8584Z" fill="#B0A9FC"/>
</g>
<g clip-path="url(#clip9_198_1545)">
<path d="M1196.92 36.913V35.1247C1196.95 35.0516 1196.97 34.9755 1196.98 34.8977C1197.03 33.1985 1197.25 31.5084 1197.63 29.8505C1198.24 27.0778 1199.28 24.4168 1200.71 21.9621C1204.06 16.2 1209.34 11.8119 1215.62 9.57563C1218.39 8.59223 1221.29 8.05897 1224.23 7.99612C1225.5 7.98036 1226.77 8.03491 1228.03 8.15952C1229.46 8.30282 1230.86 8.56702 1232.24 8.94927C1237.63 10.4069 1242.47 13.4486 1246.12 17.682C1248.73 20.6786 1250.66 24.2016 1251.8 28.0123C1252.43 30.0985 1252.8 32.2537 1252.91 34.4302C1252.97 35.5967 1252.91 36.7723 1252.87 37.9478C1252.81 39.3238 1252.62 40.6912 1252.31 42.0327C1251.76 44.5685 1250.85 47.0135 1249.61 49.2949C1246.75 54.6089 1242.25 58.8582 1236.78 61.4135C1235.13 62.1825 1233.4 62.7904 1231.63 63.229C1229.97 63.6542 1228.26 63.9052 1226.55 63.978C1225.15 64.031 1223.75 63.9977 1222.36 63.8781C1221.05 63.761 1219.74 63.5548 1218.46 63.2608C1216.06 62.7158 1213.75 61.8357 1211.6 60.6465C1206.2 57.7013 1201.9 53.0654 1199.38 47.4476C1197.92 44.2164 1197.11 40.7324 1196.98 37.1898C1196.97 37.0957 1196.95 37.0029 1196.92 36.913V36.913ZM1228.74 24.3359V22.3388C1228.74 21.7869 1228.86 21.2417 1229.08 20.7362C1229.3 20.2307 1229.62 19.7754 1230.03 19.3976C1231.22 18.1676 1232.75 17.8408 1234.38 17.8635C1235.23 17.8963 1236.06 18.0491 1236.87 18.3174L1237.87 18.6033V14.6273C1237.6 14.5683 1237.35 14.4957 1237.08 14.4549C1235.6 14.2387 1234.1 14.1855 1232.61 14.296C1232.15 14.3118 1231.7 14.3512 1231.25 14.414C1229.98 14.6382 1228.78 15.1661 1227.76 15.9527C1226.77 16.6402 1225.97 17.5616 1225.43 18.6341C1224.89 19.7067 1224.62 20.897 1224.66 22.0982V23.9955C1224.66 24.0908 1224.66 24.1906 1224.66 24.3359H1221.83V27.9669H1224.61V41.0705C1224.13 40.777 1223.63 40.5089 1223.12 40.2671C1220.9 39.3259 1218.42 39.2069 1216.12 39.9313C1214.03 40.5375 1212.21 41.8493 1210.98 43.644C1210.15 44.8226 1209.59 46.1685 1209.34 47.5866C1209.09 49.0046 1209.16 50.4602 1209.53 51.8502C1209.84 53.231 1210.45 54.523 1211.34 55.6253C1212.22 56.7276 1213.35 57.6104 1214.63 58.2046C1216.15 58.9295 1217.82 59.2737 1219.5 59.2077C1220.63 59.1809 1221.74 58.9502 1222.79 58.5268C1224.27 57.9278 1225.57 56.9645 1226.58 55.7264C1227.82 54.2634 1228.62 52.4743 1228.89 50.5703C1229 49.6048 1229.05 48.6331 1229.05 47.6609C1229.05 44.7787 1229.01 41.8966 1229.01 39.0371C1229.01 35.4469 1229.01 31.8612 1229.01 28.2756C1229.01 28.1984 1229.01 28.1167 1229.01 27.9987H1236.37V24.3359H1228.74Z" fill="#B0A9FC"/>
<path d="M1228.74 24.3362H1236.37V27.9672H1229.03C1229.03 28.0852 1229.03 28.1669 1229.03 28.2441C1229.03 31.8298 1229.03 35.4154 1229.03 39.0056C1229.03 41.8832 1229.07 44.7654 1229.06 47.6294C1229.07 48.6016 1229.02 49.5733 1228.9 50.5388C1228.65 52.4455 1227.85 54.238 1226.6 55.704C1225.59 56.9421 1224.29 57.9054 1222.81 58.5044C1221.76 58.9278 1220.65 59.1584 1219.53 59.1852C1217.84 59.2513 1216.17 58.907 1214.65 58.1822C1213.37 57.588 1212.25 56.7052 1211.36 55.6029C1210.48 54.5006 1209.86 53.2086 1209.56 51.8278C1209.18 50.4428 1209.11 48.9924 1209.36 47.5786C1209.6 46.1648 1210.16 44.8219 1210.98 43.6443C1212.21 41.8504 1214.02 40.5387 1216.11 39.9316C1218.41 39.2071 1220.89 39.3262 1223.11 40.2674C1223.63 40.5092 1224.12 40.7773 1224.61 41.0708V27.9672H1221.83V24.3362H1224.61C1224.61 24.1909 1224.61 24.0911 1224.61 23.9957V22.0985C1224.59 20.8936 1224.86 19.7009 1225.41 18.6281C1225.96 17.5552 1226.76 16.6359 1227.76 15.953C1228.79 15.1597 1230.01 14.6315 1231.29 14.4143C1231.74 14.3514 1232.2 14.312 1232.65 14.2963C1234.14 14.1857 1235.65 14.239 1237.13 14.4551C1237.39 14.496 1237.65 14.5686 1237.92 14.6276V18.5855L1236.87 18.2995C1236.07 18.0312 1235.23 17.8784 1234.38 17.8456C1232.76 17.8456 1231.21 18.1497 1230.03 19.3798C1229.63 19.7571 1229.3 20.2123 1229.08 20.7178C1228.86 21.2233 1228.74 21.7687 1228.74 22.3209V24.3362ZM1213.55 49.1544C1213.55 50.2944 1213.9 51.4076 1214.54 52.3515C1215.17 53.2953 1216.08 54.0268 1217.14 54.4521C1218.19 54.8774 1219.35 54.9772 1220.47 54.7386C1221.58 54.5001 1222.6 53.9341 1223.39 53.1132C1224.18 52.2923 1224.71 51.2539 1224.9 50.1311C1225.1 49.0083 1224.96 47.8523 1224.49 46.8111C1224.03 45.7699 1223.27 44.8911 1222.3 44.2873C1221.33 43.6835 1220.21 43.3821 1219.07 43.4219C1217.59 43.4793 1216.19 44.1081 1215.16 45.1767C1214.13 46.2452 1213.55 47.6706 1213.55 49.1544Z" fill="#EBEAF7"/>
<path d="M1213.55 49.1553C1213.55 48.4037 1213.69 47.6589 1213.98 46.9635C1214.26 46.268 1214.68 45.6356 1215.21 45.1022C1216.28 44.025 1217.73 43.4168 1219.25 43.4114C1220.77 43.406 1222.22 44.0038 1223.3 45.0733C1224.38 46.1429 1224.98 47.5965 1224.99 49.1144C1224.99 49.8661 1224.85 50.6108 1224.56 51.3063C1224.28 52.0017 1223.86 52.6342 1223.33 53.1675C1222.8 53.7009 1222.17 54.1247 1221.48 54.4148C1220.78 54.7049 1220.04 54.8556 1219.29 54.8583C1217.77 54.8637 1216.32 54.2659 1215.24 53.1964C1214.16 52.1269 1213.56 50.6732 1213.55 49.1553Z" fill="#B0A9FC"/>
</g>
<g clip-path="url(#clip10_198_1545)">
<path d="M1361.79 10.8584L1350.1 28.2184C1349.3 29.4007 1350.85 30.8318 1351.97 29.8362L1363.47 19.8184C1363.78 19.5695 1364.21 19.7562 1364.21 20.1918V51.4896C1364.21 51.9251 1363.65 52.1118 1363.4 51.8007L1328.6 10.1118C1327.48 8.74288 1325.86 7.99622 1324.06 7.99622H1322.82C1319.59 7.99622 1316.91 10.6718 1316.91 13.9695V58.0229C1316.91 61.3207 1319.59 63.9962 1322.88 63.9962C1324.93 63.9962 1326.86 62.9384 1327.98 61.134L1339.66 43.774C1340.47 42.5918 1338.92 41.1607 1337.8 42.1562L1326.3 52.1118C1325.99 52.3607 1325.55 52.174 1325.55 51.7384V20.5029C1325.55 20.0673 1326.11 19.8807 1326.36 20.1918L1361.17 61.8807C1362.29 63.2495 1363.96 63.9962 1365.7 63.9962H1366.95C1370.24 63.9962 1372.91 61.3207 1372.91 58.0229V13.9695C1372.91 10.6718 1370.24 7.99622 1366.95 7.99622C1364.83 7.99622 1362.91 9.05399 1361.79 10.8584Z" fill="#B0A9FC"/>
</g>
<g clip-path="url(#clip11_198_1545)">
<path d="M1464.92 63.9962C1480.38 63.9962 1492.92 51.4606 1492.92 35.9962C1492.92 20.5318 1480.38 7.99622 1464.92 7.99622C1449.45 7.99622 1436.92 20.5318 1436.92 35.9962C1436.92 51.4606 1449.45 63.9962 1464.92 63.9962Z" fill="#B0A9FC"/>
</g>
<defs>
<clipPath id="clip0_198_1545">
<rect x="-21" y="7.99622" width="56" height="56" fill="white"/>
</clipPath>
<clipPath id="clip1_198_1545">
<rect x="99" y="7.99622" width="56" height="56" fill="white"/>
</clipPath>
<clipPath id="clip2_198_1545">
<rect width="56" height="56" fill="white" transform="translate(219 7.99622)"/>
</clipPath>
<clipPath id="clip3_198_1545">
<rect x="339" width="61" height="70" fill="white"/>
</clipPath>
<clipPath id="clip4_198_1545">
<rect x="464" width="61" height="70" fill="white"/>
</clipPath>
<clipPath id="clip5_198_1545">
<rect x="589" y="7.99622" width="56" height="56" fill="white"/>
</clipPath>
<clipPath id="clip6_198_1545">
<rect x="709" y="7.99622" width="63.875" height="56" fill="white"/>
</clipPath>
<clipPath id="clip7_198_1545">
<rect width="56.0408" height="56" fill="white" transform="translate(956.875 7.99622)"/>
</clipPath>
<clipPath id="clip8_198_1545">
<rect x="1076.92" y="7.99622" width="56" height="56" fill="white"/>
</clipPath>
<clipPath id="clip9_198_1545">
<rect width="56" height="56" fill="white" transform="translate(1196.92 7.99622)"/>
</clipPath>
<clipPath id="clip10_198_1545">
<rect x="1316.92" y="7.99622" width="56" height="56" fill="white"/>
</clipPath>
<clipPath id="clip11_198_1545">
<rect width="56" height="56" fill="white" transform="translate(1436.92 7.99622)"/>
</clipPath>
</defs>
</svg>
