<svg width="64" height="57" viewBox="0 0 64 57" fill="none" xmlns="http://www.w3.org/2000/svg">
<g clip-path="url(#clip0_198_1594)">
<path d="M48.2389 18.0469C47.0745 17.3782 45.5775 17.3782 44.2467 18.0469L34.9316 23.5633L28.6107 27.0738L19.4619 32.5902C18.2975 33.2588 16.8005 33.2588 15.4697 32.5902L8.31706 28.2439C7.15267 27.5752 6.32096 26.2379 6.32096 24.7335V16.3752C6.32096 15.0379 6.98633 13.7006 8.31706 12.8648L15.4697 8.68569C16.6341 8.01704 18.1312 8.01704 19.4619 8.68569L26.6146 13.032C27.779 13.7006 28.6107 15.0379 28.6107 16.5424V22.0588L34.9316 18.3812V12.6976C34.9316 11.3603 34.2663 10.023 32.9355 9.18719L19.6283 1.33047C18.4639 0.661815 16.9668 0.661815 15.6361 1.33047L1.99609 9.35435C0.665365 10.023 0 11.3603 0 12.6976V28.4111C0 29.7484 0.665365 31.0857 1.99609 31.9215L15.4697 39.7782C16.6341 40.4469 18.1312 40.4469 19.4619 39.7782L28.6107 34.429L34.9316 30.7514L44.0804 25.4021C45.2448 24.7335 46.7419 24.7335 48.0726 25.4021L55.2253 29.5812C56.3896 30.2499 57.2214 31.5872 57.2214 33.0917V41.4499C57.2214 42.7872 56.556 44.1245 55.2253 44.9603L48.2389 49.1394C47.0745 49.8081 45.5775 49.8081 44.2467 49.1394L37.0941 44.9603C35.9297 44.2917 35.098 42.9543 35.098 41.4499V36.1006L28.777 39.7782V45.2946C28.777 46.632 29.4424 47.9693 30.7731 48.8051L44.2467 56.6618C45.4111 57.3305 46.9082 57.3305 48.2389 56.6618L61.7126 48.8051C62.8769 48.1364 63.7087 46.7991 63.7087 45.2946V29.414C63.7087 28.0767 63.0433 26.7394 61.7126 25.9036L48.2389 18.0469Z" fill="#B0A9FC"/>
</g>
<defs>
<clipPath id="clip0_198_1594">
<rect y="0.996216" width="63.875" height="56" fill="white"/>
</clipPath>
</defs>
</svg>
