<svg width="60" height="60" viewBox="0 0 60 60" fill="none" xmlns="http://www.w3.org/2000/svg">
<path d="M57.8751 29.9963C57.8751 45.4603 45.339 57.9962 29.875 57.9962C14.411 57.9962 1.875 45.4603 1.875 29.9963C1.875 14.5323 14.411 1.99622 29.875 1.99622C45.339 1.99622 57.8751 14.5323 57.8751 29.9963Z" stroke="#B0A9FC" stroke-width="2.40155"/>
<mask id="mask0_198_1597" style="mask-type:alpha" maskUnits="userSpaceOnUse" x="2" y="2" width="56" height="56">
<path d="M55.4924 29.9957C55.4924 44.1437 44.023 55.6129 29.875 55.6129C15.727 55.6129 4.25781 44.1437 4.25781 29.9957C4.25781 15.8477 15.727 4.37842 29.875 4.37842C44.023 4.37842 55.4924 15.8477 55.4924 29.9957Z" fill="#31C77F" stroke="#31C77F" stroke-width="3.22408"/>
</mask>
<g mask="url(#mask0_198_1597)">
<path d="M17.4277 56.7793C17.6446 54.6648 20.297 50.7418 20.1822 48.6274C20.1693 48.2707 20.1822 47.914 20.2331 47.5575C20.4499 46.0671 20.3862 44.5769 20.2714 43.0994C20.2204 42.4879 20.2714 41.8894 20.3734 41.278C20.5902 39.9661 20.7177 38.6669 20.5647 37.3295C20.4244 36.0684 20.5774 34.8074 20.8325 33.5719C21.0492 32.5275 21.0238 31.483 20.858 30.4385C20.8198 30.2093 20.7814 29.9672 20.8198 29.7507C20.9599 28.9738 21.0365 28.1841 21.062 27.3051C21.8144 27.9675 22.6177 28.0057 23.4721 27.8145C24.1735 27.6617 24.5942 27.2033 24.8748 26.5791C24.9641 26.3754 25.0023 26.1206 25.3466 26.197C25.5124 26.2352 25.7036 26.2097 25.7291 25.9805C25.7547 25.764 25.5888 25.7002 25.4103 25.662C24.352 25.42 23.2808 25.1652 22.2225 24.936C21.8781 24.8596 21.5211 24.7704 21.1768 24.7322C20.8707 24.694 20.8069 24.5538 20.8325 24.2736C20.9854 22.9745 21.2278 21.7007 21.7507 20.4907C22.2607 19.3188 22.9109 18.2107 23.8418 17.3064C23.9566 17.1918 24.0969 17.0643 24.0203 16.8733C23.9439 16.6821 23.791 16.6312 23.6123 16.695C23.4211 16.7587 23.3445 16.6568 23.2553 16.5293C23.0768 16.2492 22.8854 15.969 22.7198 15.676C22.1587 14.7589 21.4828 13.931 20.8069 13.0903C20.6666 12.912 20.4881 12.7591 20.297 12.619C19.7231 12.2114 19.2129 12.4407 19.1492 13.154C19.0983 13.6125 19.1365 14.0838 19.3024 14.5169C19.9016 16.0327 20.3607 17.612 21.2278 19.0131C21.4446 19.3698 21.1386 19.5353 21.0238 19.79C20.8069 19.6372 20.6922 19.4207 20.5902 19.2297C19.4043 17.1407 18.4097 14.9754 17.9888 12.5808C17.8742 11.9567 17.8742 11.3198 17.8995 10.6957C17.9379 10.0078 18.2438 9.82953 18.907 9.99512C19.3916 10.1225 19.7613 10.4282 20.1185 10.7594C21.3298 11.8802 22.3628 13.1412 23.4593 14.364C23.7526 14.6952 24.0459 15.0264 24.3265 15.3575C24.505 15.5613 24.6708 15.7524 24.6963 16.058C24.7217 16.402 24.9641 16.504 25.2829 16.3765C25.3593 16.351 25.4358 16.3128 25.5124 16.2619C26.0479 15.8926 26.6473 15.7651 27.2848 15.6632C29.0318 15.3448 30.7532 15.4722 32.4747 15.8288C32.7426 15.8926 32.9722 16.0327 33.2144 16.1727C33.7372 16.4911 33.9284 16.4147 34.0816 15.8288C34.1198 15.6632 34.2217 15.5231 34.3365 15.3957C35.752 13.8163 37.0654 12.1477 38.621 10.6957C38.9654 10.3772 39.3097 10.0715 39.7688 9.93143C40.521 9.68942 40.8398 9.9187 40.8909 10.6957C40.9801 12.1732 40.6231 13.5743 40.1513 14.9499C39.6796 16.3256 39.0291 17.6248 38.3406 18.8985C38.1875 19.1788 37.9963 19.4207 37.8049 19.7392C37.1802 18.8093 37.1802 18.8221 37.652 17.9305C38.2385 16.8351 38.8379 15.7651 39.246 14.5805C39.4116 14.0838 39.5519 13.5743 39.5393 13.0393C39.5264 12.7082 39.4627 12.4152 39.1312 12.2496C38.8124 12.0968 38.5573 12.2369 38.3278 12.4279C38.0473 12.67 37.7541 12.9247 37.499 13.2049C36.6191 14.1602 35.6499 15.0518 35.0889 16.2492C34.9869 16.4784 34.5916 16.5804 34.7445 16.9242C34.8466 17.1536 35.0889 17.2935 35.2418 17.4847C36.1472 18.5801 36.8741 19.7774 37.3205 21.1275C37.6009 21.9809 37.7923 22.8726 37.907 23.7641C37.9581 24.2227 37.9581 24.2227 37.4861 24.3501C36.3259 24.6558 35.1781 24.9615 34.0177 25.2672C33.9157 25.2927 33.8136 25.3054 33.7117 25.3562C33.4695 25.471 33.444 25.6876 33.6735 25.8275C33.8265 25.9168 33.9157 25.9677 33.9668 26.1715C34.158 26.9868 34.6808 27.5089 35.5098 27.6235C36.3385 27.751 37.1165 27.6109 37.6009 26.8211C37.6264 26.7702 37.6393 26.7447 37.7285 26.7956C37.703 27.7381 37.7794 28.6935 37.9581 29.6361C37.9963 29.8144 37.9708 30.0181 37.9452 30.1964C37.703 31.3937 37.7541 32.5783 37.9963 33.7629C38.2514 35.0748 38.3278 36.3869 38.1748 37.7115C38.06 38.6795 38.1493 39.6476 38.3278 40.5902C38.5318 41.66 38.5828 42.7173 38.4681 43.7872C38.3533 44.8827 38.3915 45.9654 38.5063 47.0607C38.5828 47.7485 41.5795 50.6144 41.5413 51.315C42.115 52.3085 42.8547 54.2064 43.5688 55.1234L42.0809 57.3769L31.0056 59.3254L21.062 58.4024L17.4277 56.7793Z" fill="#EBEAF7"/>
<path d="M86.4005 32.6552C85.8013 32.1968 85.1126 31.8654 84.4368 31.5216C82.2944 30.4389 80.1012 29.4964 77.9079 28.5539C75.8932 27.6877 74.1078 26.5031 72.6159 24.8854C72.3863 24.6435 72.1314 24.4141 71.8763 24.1976C71.5575 23.9175 71.2005 23.892 70.8178 24.083C70.2823 24.3504 69.7468 24.6307 69.2367 24.9491C68.5098 25.3949 67.2856 26.0574 66.5079 26.414C62.4656 28.2991 58.2829 29.8275 54.1004 31.356C50.3898 32.7189 46.7937 34.3366 43.3125 36.1962C42.0246 36.884 40.8514 37.7374 39.7548 38.68C39.5763 38.8328 39.3978 39.0111 39.2191 39.1513C39.2065 39.1386 39.1938 39.1386 39.1809 39.1257C39.1299 39.2786 39.0151 39.4187 38.8621 39.4824C38.7984 39.7372 38.6071 39.9537 38.2629 39.9537C38.2374 39.9537 38.2118 39.9537 38.1863 39.9537C38.1608 41.4568 38.2118 42.9597 38.3777 44.4627C38.4414 45.0104 38.3011 45.3798 37.9186 45.7875C36.0313 47.7999 33.9017 49.4939 31.7212 51.1498C31.6574 51.2007 31.5682 51.2389 31.5171 51.3026C31.3131 51.6084 31.0836 51.5829 30.7776 51.4301C30.2166 51.1498 29.6554 51.3026 29.1581 51.5956C28.8776 51.7612 28.6736 51.7484 28.4185 51.6211C27.1433 50.9715 25.881 50.3219 24.7078 49.4813C23.1265 48.3604 21.5453 47.2522 20.1553 45.9021C19.9897 45.7491 19.8749 45.5836 19.8112 45.418C19.7857 45.4053 19.7473 45.3926 19.7219 45.3798C19.7091 45.3798 19.7091 45.3798 19.6964 45.3671C19.4158 45.2525 19.8749 44.8576 19.5688 44.8066C19.5051 44.8321 19.454 44.8448 19.3903 44.8703C19.3139 44.9467 18.74 45.0359 18.3446 45.3798C18.3191 45.4053 18.2809 45.4308 18.2427 45.4562C17.0696 46.386 16.7761 47.7235 17.4648 49.0482C17.5922 49.2901 17.554 49.4557 17.4521 49.6723C16.9164 50.7676 16.9675 51.825 17.7454 52.7929C17.9494 53.0605 18.1406 53.3405 18.4212 53.5444L19.0588 53.9902C19.4285 54.194 19.9642 54.3979 20.2446 54.4743C21.4306 54.7927 22.6292 54.9964 23.8534 55.0475C24.4146 55.0728 24.9883 54.9838 25.5493 54.9329C26.6333 54.8309 27.7299 54.7417 28.8011 54.5889C29.2091 54.5252 29.5917 54.6398 29.9742 54.6526C30.3185 54.6653 30.6755 54.7035 30.9561 54.5252C31.5045 54.194 32.1166 54.1813 32.7031 54.1303C34.0037 54.0157 35.2789 53.7227 36.5159 53.3279C37.7783 52.933 39.0406 52.551 40.2521 51.9905C41.4634 51.4301 42.5219 50.7168 43.134 49.4813C43.1978 49.3667 43.2615 49.2901 43.3636 49.2265C44.2945 48.666 45.8119 48.3857 46.6407 48.0419C47.9286 47.3286 49.2038 46.6153 50.5045 45.9274C52.3408 44.9595 54.1897 44.0041 56.1789 43.3545C59.5455 42.2337 63.0266 41.6733 66.5333 41.2402C67.8213 41.0746 69.1219 40.9726 70.3971 40.6543C72.6032 40.0938 74.7327 39.3296 76.8878 38.6418C77.6018 38.4126 78.3286 38.1832 79.0173 37.8776C81.1723 36.935 83.2382 35.8013 85.3038 34.6933C85.6865 34.4894 86.0562 34.2347 86.4132 33.9673C87.0254 33.4831 87.0126 33.1265 86.4005 32.6552Z" fill="#B0A9FC"/>
<path d="M41.6075 10.517C41.5564 9.549 40.8933 9.02676 39.9369 9.21782C39.5033 9.30699 39.0952 9.45983 38.7255 9.72732C37.8202 10.3897 37.055 11.2048 36.3281 12.0455C35.4738 13.0263 34.6066 14.0071 33.7778 15.0133C33.5228 15.319 33.2932 15.3317 32.9744 15.1916C32.4771 14.9623 31.9543 14.784 31.4061 14.7458C29.4933 14.6057 27.5804 14.542 25.7442 15.2553C25.3617 15.4082 25.145 15.3317 24.8899 15.026C24.0738 14.0453 23.2321 13.0772 22.3778 12.1092C21.6255 11.2558 20.8604 10.4279 19.9295 9.76554C19.4833 9.4471 18.9986 9.29425 18.4631 9.26877C17.7871 9.2433 17.3409 9.57447 17.1751 10.2368C17.1242 10.4406 17.1113 10.6571 17.1113 10.8609C17.1113 12.02 17.3282 13.1537 17.5578 14.2873C17.8892 15.9304 18.6416 17.4206 19.2919 18.9363C19.547 19.5351 19.8913 20.0954 20.3376 20.5667C20.5034 20.745 20.5416 20.898 20.4779 21.1272C20.3758 21.4839 20.2865 21.8532 20.1973 22.2226C19.8403 23.56 19.7126 24.9229 19.9167 26.2859C20.0314 27.0119 20.0061 27.6997 19.9295 28.4129C19.8403 29.1899 19.8147 29.9541 19.9932 30.7312C20.2101 31.6482 20.1591 32.5653 19.9295 33.4825C19.6873 34.4504 19.5597 35.4184 19.6107 36.412C19.6744 37.4692 19.547 38.5137 19.5086 39.5581C19.4959 40.1695 19.5086 40.7809 19.3685 41.3795C19.19 42.1437 19.2026 42.9208 19.3174 43.6977C19.5341 45.2134 19.394 44.4747 19.4577 45.3918C19.7382 45.3918 20.0698 46.2706 20.3631 46.2579C20.3502 45.5446 20.2738 43.8251 20.2101 43.1118C20.1591 42.5004 20.2101 41.9018 20.312 41.2904C20.5287 39.9784 20.6564 38.6791 20.5034 37.3417C20.3631 36.0809 20.5161 34.8199 20.7711 33.5844C20.9878 32.5399 20.9623 31.4954 20.7967 30.4509C20.7583 30.2217 20.7201 29.9797 20.7583 29.7631C20.8986 28.9861 20.9752 28.1965 21.0007 27.3175C21.7529 27.98 22.5563 28.0182 23.4106 27.827C24.112 27.6742 24.5329 27.2156 24.8133 26.5915C24.9027 26.3876 24.9409 26.1329 25.2853 26.2095C25.4509 26.2477 25.6423 26.2222 25.6678 25.9929C25.6933 25.7764 25.5275 25.7127 25.349 25.6745C24.2907 25.4324 23.2195 25.1777 22.161 24.9485C21.8168 24.8721 21.4596 24.7828 21.1155 24.7446C20.8093 24.7064 20.7456 24.5663 20.7711 24.286C20.9241 22.9868 21.1663 21.7131 21.6892 20.5031C22.1993 19.3312 22.8496 18.2232 23.7805 17.3188C23.8953 17.204 24.0356 17.0768 23.959 16.8858C23.8826 16.6946 23.7295 16.6437 23.551 16.7074C23.3598 16.771 23.2832 16.6692 23.1939 16.5418C23.0154 16.2615 22.8241 15.9814 22.6584 15.6884C22.0972 14.7713 21.4214 13.9434 20.7456 13.1027C20.6053 12.9244 20.4268 12.7715 20.2355 12.6314C19.6618 12.2238 19.1516 12.4531 19.0879 13.1664C19.0368 13.6249 19.0752 14.0962 19.2409 14.5293C19.8403 16.045 20.2994 17.6244 21.1663 19.0256C21.3832 19.3823 21.0771 19.5477 20.9623 19.8025C20.7456 19.6497 20.6308 19.4331 20.5287 19.2421C19.343 17.1532 18.3483 14.9878 17.9274 12.5932C17.8127 11.9691 17.8127 11.3322 17.8382 10.7081C17.8764 10.0203 18.1825 9.84196 18.8456 10.0075C19.3301 10.1349 19.7 10.4406 20.057 10.7718C21.2684 11.8927 22.3013 13.1537 23.398 14.3764C23.6913 14.7076 23.9845 15.0388 24.2651 15.3699C24.4436 15.5737 24.6093 15.7648 24.6348 16.0705C24.6603 16.4145 24.9027 16.5162 25.2214 16.389C25.2979 16.3634 25.3745 16.3252 25.4509 16.2743C25.9866 15.905 26.5858 15.7775 27.2234 15.6757C28.9704 15.3572 30.6919 15.4846 32.4134 15.8413C32.6811 15.9048 32.9107 16.045 33.1531 16.1851C33.6759 16.5036 33.8671 16.4272 34.0201 15.8413C34.0584 15.6756 34.1604 15.5355 34.2751 15.4082C35.6907 13.8287 37.0041 12.1601 38.5597 10.7081C38.904 10.3897 39.2484 10.084 39.7073 9.94385C40.4597 9.70184 40.7785 9.93112 40.8295 10.7081C40.9188 12.1856 40.5618 13.5867 40.09 14.9623C39.6181 16.3379 38.9678 17.6371 38.2791 18.911C38.1261 19.1911 37.935 19.4331 37.7436 19.7516C37.1188 18.8217 37.1188 18.8346 37.5906 17.9429C38.1772 16.8475 38.7764 15.7775 39.1845 14.593C39.3503 14.0962 39.4906 13.5867 39.4779 13.0518C39.4651 12.7206 39.4014 12.4276 39.0699 12.262C38.7511 12.1092 38.496 12.2493 38.2664 12.4404C37.9858 12.6824 37.6926 12.9371 37.4377 13.2174C36.5576 14.1726 35.5886 15.0642 35.0275 16.2615C34.9254 16.4909 34.5302 16.5928 34.6832 16.9366C34.7853 17.1658 35.0275 17.306 35.1805 17.4972C36.0859 18.5925 36.8127 19.7898 37.259 21.1399C37.5396 21.9934 37.7309 22.885 37.8457 23.7765C37.8966 24.2351 37.8966 24.2351 37.4248 24.3624C36.2644 24.6682 35.1168 24.9738 33.9563 25.2796C33.8544 25.3051 33.7523 25.3178 33.6504 25.3687C33.408 25.4833 33.3825 25.6998 33.612 25.84C33.7652 25.9292 33.8544 25.9801 33.9053 26.184C34.0966 26.999 34.6195 27.5214 35.4483 27.636C36.2772 27.7634 37.055 27.6233 37.5396 26.8336C37.5651 26.7825 37.5778 26.7572 37.667 26.808C37.6417 27.7506 37.7181 28.706 37.8966 29.6485C37.935 29.8269 37.9094 30.0306 37.8839 30.2089C37.6417 31.4062 37.6926 32.5908 37.935 33.7754C38.1899 35.0873 38.2664 36.3992 38.1135 37.7239C37.9987 38.692 38.0879 39.6601 38.2664 40.6026C38.4705 41.6724 38.5215 42.7298 38.4067 43.7996C38.3685 44.1563 38.343 44.5129 38.343 44.8696C38.6363 44.8823 38.9296 44.895 39.2229 44.9078C39.2355 44.7295 39.2484 44.5385 39.2739 44.3601C39.3885 43.341 39.5288 42.3349 39.3376 41.2904C39.057 39.7618 39.0952 38.1952 39.0699 36.6412C39.057 35.5204 39.0315 34.425 38.7511 33.3296C38.5342 32.4889 38.4705 31.6227 38.6618 30.7694C38.8785 29.8269 38.853 28.897 38.7255 27.9544C38.6618 27.5214 38.5724 27.0756 38.6872 26.6425C38.904 25.7891 38.8785 24.9356 38.8403 24.0695C38.7893 23.0505 38.5087 22.0824 38.2538 21.1145C38.1772 20.8216 38.1899 20.6177 38.4194 20.3885C38.7127 20.0954 38.9551 19.7389 39.1336 19.3567C40.2046 17.1787 41.161 14.9751 41.4416 12.5423C41.5436 11.9054 41.6457 11.2176 41.6075 10.517Z" fill="#B0A9FC"/>
<path d="M85.6364 33.4448C84.731 33.9287 83.9276 34.3746 83.1115 34.7949C81.7343 35.5082 80.3317 36.1833 78.9161 36.8201C78.1895 37.1512 77.4371 37.406 76.6719 37.6353C74.8611 38.1957 73.0633 38.7689 71.2652 39.3166C69.5948 39.8261 67.8478 40.0044 66.1263 40.2209C63.9329 40.4885 61.7525 40.7941 59.6101 41.3165C57.7357 41.7749 55.8611 42.2462 54.0632 42.9722C52.6732 43.5327 51.3598 44.2332 50.0464 44.921C48.5545 45.6981 47.1007 46.5387 45.6597 47.4048C45.0987 47.7488 44.4611 47.9016 43.849 48.1182C43.645 48.1819 43.492 48.1564 43.4156 47.9143C43.1987 47.2647 42.7269 46.8189 42.1148 46.526C41.8853 46.4114 41.8471 46.2584 41.8598 46.0165C41.8853 45.6599 41.8726 45.3032 41.745 44.9592C41.592 44.5261 41.3114 44.246 40.8778 44.1186C40.4698 43.9913 40.0617 43.8894 39.641 43.9402C39.3604 43.9784 39.2585 43.8765 39.2456 43.6218C39.2329 43.4181 39.2074 43.2016 39.1947 42.9977C39.1692 42.45 39.2329 41.8897 39.1308 41.3673C39.0162 40.7304 39.2202 40.3229 39.692 39.9026C41.2859 38.4633 43.0968 37.3933 45.0094 36.4507C49.1028 34.4255 53.3619 32.8078 57.6464 31.2667C61.4082 29.9165 65.0807 28.3625 68.6639 26.6049C69.4927 26.1971 70.2833 25.7132 71.0739 25.2419C71.3163 25.1018 71.4692 25.1018 71.6477 25.3438C73.1141 27.2545 75.1035 28.4517 77.2586 29.3943C79.6303 30.4259 81.9639 31.5341 84.2719 32.6677C84.7055 32.8715 85.1264 33.1518 85.6364 33.4448Z" fill="#B0A9FC"/>
<path d="M18.2449 50.0027C18.4489 50.0918 18.5892 50.1428 18.7167 50.1937C18.9462 50.2828 19.1886 50.2956 19.3416 50.0663C19.5075 49.8244 19.3543 49.6333 19.1758 49.4677C18.9718 49.2894 18.7677 49.111 18.5637 48.92C17.7349 48.1558 18.0919 46.7673 18.8698 46.2834C19.061 46.1688 19.2013 46.1177 19.3543 46.3089C19.3927 46.3598 19.4436 46.398 19.4819 46.4489C21.0886 48.2576 23.1034 49.5696 25.1181 50.856C26.0363 51.442 26.9799 52.0024 28 52.4099C28.2551 52.5119 28.3699 52.6393 28.3188 52.9194C28.2678 53.1488 28.2806 53.378 28.3699 53.6072C28.4591 53.8493 28.3315 53.913 28.1275 53.9257C27.796 53.9639 27.4645 54.0149 27.1202 54.0149C25.845 54.0403 24.5698 54.3079 23.2947 54.1933C21.994 54.0658 20.7316 53.7856 19.5457 53.1997C19.1248 52.9958 18.7551 52.7284 18.4745 52.3464C17.9261 51.6331 17.9134 50.8688 18.2449 50.0027Z" fill="#B0A9FC"/>
<path d="M32.9036 53.2136C32.7125 53.1881 32.4574 53.3917 32.2789 53.2263C32.1514 53.0988 32.1386 52.8441 32.062 52.6531C32.0366 52.5767 31.9983 52.4874 31.9474 52.4238C31.7687 52.2073 31.8963 52.0927 32.0748 51.9779C33.1842 51.2901 34.1662 50.4368 35.2245 49.6726C36.5124 48.7172 37.6473 47.5963 38.7185 46.4117C39.0628 46.0424 39.3177 45.5966 39.2924 45.0616C39.2795 44.8451 39.3816 44.756 39.5983 44.7814C39.8024 44.8069 40.0191 44.8324 40.2231 44.8833C40.8607 45.0361 41.1284 45.5711 40.848 46.1698C40.7332 46.4117 40.5803 46.6411 40.4526 46.883C40.3634 47.0613 40.3252 47.2397 40.5037 47.3926C40.6695 47.5326 40.848 47.5072 41.0265 47.418C41.0392 47.4053 41.0647 47.4053 41.0776 47.3926C41.2305 47.3161 41.3198 47.0742 41.4728 47.125C41.7023 47.2015 41.9192 47.3544 42.1104 47.5072C42.5695 47.8766 42.7353 48.3097 42.5695 48.7683C42.3781 49.2777 42.0722 49.7362 41.6641 50.1183C40.8607 50.8699 39.9045 51.3412 38.897 51.6978C37.2137 52.2837 35.5305 52.8569 33.7581 53.1499C33.4902 53.1881 33.2098 53.2136 32.9036 53.2136Z" fill="#B0A9FC"/>
<path d="M21.6829 18.6695C21.0582 18.0581 20.7012 17.3447 20.4333 16.6061C20.1018 15.7017 19.783 14.7973 19.5663 13.8547C19.5152 13.651 19.5025 13.4471 19.4897 13.2306C19.4897 13.0905 19.4642 12.9249 19.63 12.8485C19.7958 12.7848 19.9233 12.8867 20.0252 12.9886C20.5609 13.4599 21.02 14.0076 21.3897 14.619C21.8361 15.345 22.2824 16.071 22.7541 16.7971C22.9326 17.0773 22.9326 17.281 22.6649 17.4722C22.2568 17.7651 22.0401 18.2236 21.6829 18.6695Z" fill="#EBEAF7"/>
<path d="M36.8454 18.3373C36.5521 17.8151 36.1059 17.4456 35.6723 17.0509C35.4556 16.847 35.4683 16.7069 35.6086 16.4648C36.2206 15.4586 36.9857 14.567 37.7636 13.6754C37.9932 13.4079 38.1972 13.1022 38.4905 12.8984C38.8093 12.6819 39.0005 12.7711 39.0515 13.1532C39.0643 13.2551 39.0643 13.3697 39.0388 13.4716C38.8475 14.2613 38.6817 15.0765 38.2736 15.7898C37.8655 16.4777 37.5085 17.1782 37.1515 17.8915C37.075 18.0443 37.0368 18.2226 36.8454 18.3373Z" fill="#EBEAF7"/>
<path d="M30.1669 53.8745C30.1031 53.8618 29.9884 53.8618 29.8864 53.8489C29.44 53.7854 29.1723 53.5688 29.1212 53.2248C29.0703 52.8809 29.3508 52.4224 29.7206 52.2823C30.4093 52.002 31.0467 52.2059 31.34 52.7918C31.5313 53.1611 31.4803 53.3523 31.1615 53.607C30.9193 53.7852 30.5749 53.8871 30.1669 53.8745Z" fill="#B0A9FC"/>
<path d="M22.3391 26.3383C22.0451 26.3512 21.8406 26.1852 21.8406 25.9171C21.8279 25.6361 21.9812 25.4574 22.2242 25.4574C22.5182 25.4445 22.7099 25.6105 22.7227 25.8915C22.7227 26.1724 22.6077 26.3256 22.3391 26.3383Z" fill="#EBEAF7"/>
<path d="M35.8179 25.9182C35.754 26.1225 35.7156 26.3396 35.4727 26.3906C35.2426 26.4418 35.0254 26.2247 35.0254 25.982C35.0381 25.7267 35.1915 25.5989 35.4216 25.5862C35.6261 25.5735 35.7796 25.7011 35.8179 25.9182Z" fill="#EBEAF7"/>
<path d="M29.796 26.8204C30.1148 26.4382 30.5228 26.2725 31.0074 26.2854C31.7725 26.298 32.3335 26.7948 32.3973 27.5591C32.4228 27.9284 32.4483 28.3233 32.308 28.6799C32.1806 28.9984 32.2188 29.1767 32.5249 29.4059C33.1496 29.9027 33.4684 30.565 33.4174 31.393C33.3919 31.7241 33.3155 32.0426 33.0859 32.2591C32.78 32.5394 32.6141 32.9087 32.4612 33.2527C32.104 34.0296 31.4537 34.3736 30.6886 34.5009C29.8342 34.6283 29.018 34.4118 28.2912 33.9405C27.9087 33.6985 27.6409 33.3418 27.5135 32.9087C27.4497 32.6922 27.3605 32.5521 27.1691 32.4248C26.4423 31.928 26.2511 31.1 26.6845 30.3358C26.8248 30.0811 26.9906 29.8135 27.2073 29.6352C27.539 29.3804 27.5645 29.1257 27.4497 28.7692C27.2966 28.2851 27.3987 27.8138 27.5645 27.3552C27.896 26.4255 28.661 26.1579 29.5155 26.6547C29.5919 26.6929 29.6812 26.7566 29.796 26.8204Z" fill="#B0A9FC"/>
<path d="M31.732 32.2464C31.2475 32.2082 30.7884 31.9152 30.4441 31.4184C29.9595 30.7051 29.9595 30.7051 29.5132 31.444C29.1689 32.0043 28.6461 32.2846 27.9831 32.2464C27.1031 32.1827 26.6824 31.342 27.167 30.5905C27.3455 30.3102 27.6004 30.081 27.8683 29.8772C28.289 29.5589 28.3146 29.4951 28.1361 28.9728C28.0213 28.629 27.9192 28.2979 27.9447 27.9283C28.0084 27.1259 28.6334 26.7948 29.322 27.177C29.4366 27.2405 29.5259 27.3298 29.628 27.3935C29.8831 27.5463 30.0998 27.559 30.2527 27.2534C30.4441 26.884 30.7756 26.8712 31.1199 26.9094C31.5024 26.9476 31.7193 27.177 31.8596 27.5208C31.936 27.7118 31.9233 27.8901 31.8468 28.0685C31.7448 28.3232 31.6301 28.5653 31.528 28.82C31.2857 29.3423 31.3113 29.4569 31.8468 29.6862C32.293 29.8772 32.6373 30.1574 32.8287 30.616C33.173 31.4058 32.6884 32.2209 31.732 32.2464Z" fill="#EBEAF7"/>
<path d="M28.125 32.8087C29.043 32.7069 29.0941 32.6814 30.0505 31.7642C30.5605 32.4267 31.1981 32.8342 32.0652 32.7705C31.8102 33.5347 31.2491 33.9169 30.3947 33.9424C29.4511 33.9551 28.3544 33.713 28.125 32.8087Z" fill="#EBEAF7"/>
<path d="M28.8944 27.9415C28.9327 27.967 29.0348 27.9799 29.0732 28.0309C29.2391 28.2478 29.3797 28.4902 29.4052 28.7708C29.4179 28.8985 29.3541 29.0133 29.2136 29.0644C29.0988 29.1027 29.0092 29.0516 28.9326 28.975C28.7283 28.7581 28.575 28.5029 28.6133 28.1839C28.626 28.0564 28.7027 27.967 28.8944 27.9415Z" fill="#B0A9FC"/>
<path d="M30.4111 28.4908C30.4494 28.3887 30.5005 28.1974 30.5899 28.0314C30.6538 27.8912 30.7687 27.7891 30.9475 27.8657C31.0752 27.9295 31.1263 28.0443 31.1008 28.1718C31.0625 28.3504 30.9987 28.5291 30.9347 28.7077C30.8708 28.8736 30.7559 29.0011 30.5515 28.9246C30.3727 28.8736 30.3727 28.7077 30.4111 28.4908Z" fill="#B0A9FC"/>
<path d="M18.0266 52.6138L16.8535 55.8236L17.6441 56.2185C17.6441 56.2185 18.7408 53.5563 18.8683 53.3016C18.983 53.0342 18.0266 52.6138 18.0266 52.6138Z" fill="#B0A9FC"/>
<path d="M41.4651 50.5249L40.9805 51.0471C40.9805 51.0471 42.9952 55.7598 43.5946 55.7727C44.1939 55.7727 43.8113 54.8173 43.8113 54.8173C43.8113 54.8173 42.0517 51.1363 41.7455 50.4867C41.5161 49.9644 41.4651 50.5249 41.4651 50.5249Z" fill="#B0A9FC"/>
</g>
</svg>
