<svg width="57" height="57" viewBox="0 0 57 57" fill="none" xmlns="http://www.w3.org/2000/svg">
<g clip-path="url(#clip0_198_1621)">
<path d="M0.875 29.913V28.1247C0.904534 28.0516 0.925847 27.9755 0.938544 27.8977C0.993586 26.1985 1.21092 24.5084 1.5876 22.8505C2.20168 20.0778 3.24128 17.4168 4.66946 14.9621C8.02462 9.19998 13.3115 4.8119 19.5931 2.57563C22.3618 1.59223 25.2703 1.05897 28.2078 0.996119C29.4792 0.98036 30.7505 1.03491 32.0159 1.15952C33.4382 1.30282 34.8458 1.56702 36.2234 1.94927C41.6216 3.40685 46.4592 6.44856 50.1122 10.682C52.7244 13.6786 54.6624 17.2016 55.7948 21.0123C56.4247 23.0985 56.7981 25.2537 56.9068 27.4302C56.9658 28.5967 56.9068 29.7723 56.8705 30.9478C56.8082 32.3238 56.6198 33.6912 56.3076 35.0327C55.7561 37.5685 54.8484 40.0135 53.6116 42.2949C50.7444 47.6089 46.2421 51.8582 40.7713 54.4135C39.1147 55.1825 37.388 55.7904 35.6152 56.229C33.9497 56.6542 32.2445 56.9052 30.5271 56.978C29.13 57.031 27.7308 56.9977 26.3378 56.8781C25.0227 56.761 23.717 56.5548 22.4299 56.2608C20.0324 55.7158 17.7236 54.8357 15.5717 53.6465C10.1619 50.7013 5.8655 46.0654 3.33958 40.4476C1.88163 37.2164 1.06613 33.7324 0.938544 30.1898C0.926518 30.0957 0.905234 30.0029 0.875 29.913H0.875ZM32.7194 17.3359V15.3388C32.7244 14.7869 32.8412 14.2417 33.0628 13.7362C33.2843 13.2307 33.606 12.7754 34.0084 12.3976C35.2067 11.1676 36.7317 10.8408 38.3657 10.8635C39.2136 10.8963 40.0525 11.0491 40.8575 11.3174L41.8606 11.6033V7.62734C41.5928 7.56833 41.3341 7.49571 41.0708 7.45486C39.5878 7.23873 38.0856 7.18546 36.591 7.296C36.1354 7.31177 35.6809 7.35116 35.2294 7.41401C33.9589 7.63822 32.7615 8.16608 31.739 8.95268C30.7535 9.64022 29.9539 10.5616 29.4121 11.6341C28.8703 12.7067 28.6031 13.897 28.6344 15.0982V16.9955C28.6344 17.0908 28.6344 17.1906 28.6344 17.3359H25.8113V20.9669H28.5936V34.0705C28.1085 33.777 27.6086 33.5089 27.0958 33.2671C24.8755 32.3259 22.3925 32.2069 20.0924 32.9313C17.9995 33.5375 16.1809 34.8493 14.9454 36.644C14.1183 37.8226 13.5603 39.1685 13.3109 40.5866C13.0614 42.0046 13.1267 43.4602 13.502 44.8502C13.8049 46.231 14.4231 47.523 15.3081 48.6253C16.1931 49.7276 17.321 50.6104 18.6036 51.2046C20.1231 51.9295 21.7961 52.2737 23.4783 52.2077C24.6058 52.1809 25.7191 51.9502 26.7644 51.5268C28.2449 50.9278 29.5501 49.9645 30.5589 48.7264C31.8054 47.2634 32.607 45.4743 32.8692 43.5703C32.9834 42.6048 33.0365 41.6331 33.028 40.6609C33.028 37.7787 32.9963 34.8966 32.9917 32.0371C32.9917 28.4469 32.9917 24.8612 32.9917 21.2756C32.9917 21.1984 32.9917 21.1167 32.9917 20.9987H40.3628V17.3359H32.7194Z" fill="#B0A9FC"/>
<path d="M32.7199 17.3361H40.3633V20.9672H33.0104C33.0104 21.0852 33.0104 21.1669 33.0104 21.244C33.0104 24.8297 33.0104 28.4154 33.0104 32.0056C33.0104 34.8832 33.0558 37.7653 33.0467 40.6293C33.0551 41.6015 33.0021 42.5732 32.8878 43.5387C32.6287 45.4454 31.8285 47.2379 30.5821 48.7039C29.5733 49.9421 28.2681 50.9053 26.7876 51.5044C25.7423 51.9277 24.629 52.1584 23.5015 52.1852C21.8193 52.2512 20.1463 51.907 18.6268 51.1821C17.3442 50.5879 16.2163 49.7052 15.3313 48.6029C14.4463 47.5005 13.8281 46.2085 13.5252 44.8277C13.1501 43.4427 13.083 41.9923 13.3284 40.5785C13.5738 39.1647 14.1259 37.8218 14.9459 36.6442C16.1803 34.8504 17.9971 33.5386 20.0883 32.9315C22.3885 32.2071 24.8715 32.3262 27.0917 33.2674C27.6046 33.5091 28.1045 33.7772 28.5896 34.0707V20.9672H25.8118V17.3361H28.5941C28.5941 17.1909 28.5941 17.091 28.5941 16.9957V15.0985C28.5673 13.8935 28.8407 12.7009 29.3898 11.628C29.9389 10.5551 30.7464 9.6358 31.7395 8.95289C32.7751 8.15961 33.9889 7.63141 35.2752 7.41423C35.7268 7.35138 36.1813 7.31199 36.6369 7.29622C38.1315 7.18567 39.6337 7.23894 41.1167 7.45508C41.38 7.49593 41.6387 7.56855 41.9065 7.62755V11.5854L40.8625 11.2995C40.0576 11.0312 39.2186 10.8784 38.3707 10.8456C36.7413 10.8456 35.1935 11.1497 34.0135 12.3797C33.6102 12.757 33.2877 13.2122 33.0654 13.7178C32.843 14.2233 32.7255 14.7686 32.7199 15.3209V17.3361ZM17.5239 42.1544C17.5264 43.2943 17.8693 44.4076 18.5085 45.3514C19.1478 46.2953 20.0544 47.0267 21.112 47.452C22.1697 47.8773 23.3303 47.9771 24.445 47.7386C25.5597 47.5 26.5778 46.934 27.3688 46.1132C28.1598 45.2923 28.6876 44.2539 28.8847 43.1311C29.0817 42.0083 28.939 40.8522 28.4747 39.811C28.0105 38.7699 27.2459 37.8911 26.279 37.2872C25.3121 36.6834 24.1869 36.3821 23.0477 36.4218C21.5649 36.4793 20.1619 37.1081 19.1323 38.1766C18.1027 39.2451 17.5263 40.6705 17.5239 42.1544Z" fill="#EBEAF7"/>
<path d="M17.5235 42.1553C17.5208 41.4037 17.6662 40.6589 17.9513 39.9635C18.2365 39.268 18.6558 38.6356 19.1854 38.1022C20.2549 37.025 21.7085 36.4168 23.2265 36.4114C24.7445 36.406 26.2024 37.0038 27.2796 38.0733C28.3568 39.1429 28.965 40.5965 28.9704 42.1144C28.9731 42.8661 28.8277 43.6108 28.5425 44.3063C28.2574 45.0017 27.838 45.6342 27.3085 46.1675C26.7789 46.7009 26.1494 47.1247 25.4561 47.4148C24.7627 47.7049 24.019 47.8556 23.2674 47.8583C21.7494 47.8637 20.2915 47.2659 19.2143 46.1964C18.1371 45.1269 17.5289 43.6732 17.5235 42.1553Z" fill="#B0A9FC"/>
</g>
<defs>
<clipPath id="clip0_198_1621">
<rect width="56.0408" height="56" fill="white" transform="translate(0.875 0.996216)"/>
</clipPath>
</defs>
</svg>
