<svg width="40" height="40" viewBox="0 0 40 40" fill="none" xmlns="http://www.w3.org/2000/svg">
<rect width="40" height="40" rx="20" fill="#8C82FF"/>
<path d="M30 13.8C29.2483 14.1261 28.4534 14.3416 27.64 14.44C28.4982 13.9273 29.1413 13.1207 29.45 12.17C28.6436 12.65 27.7608 12.9883 26.84 13.17C26.2245 12.5025 25.405 12.0583 24.5098 11.9068C23.6147 11.7554 22.6945 11.9053 21.8938 12.3332C21.093 12.761 20.4569 13.4425 20.0852 14.2708C19.7135 15.0991 19.6273 16.0274 19.84 16.91C18.2094 16.8275 16.6144 16.4029 15.1587 15.6638C13.7029 14.9247 12.4188 13.8877 11.39 12.62C11.0291 13.2501 10.8395 13.9638 10.84 14.69C10.8387 15.3643 11.0042 16.0286 11.3218 16.6235C11.6393 17.2185 12.099 17.7257 12.66 18.1C12.008 18.0822 11.3699 17.9073 10.8 17.59V17.64C10.8049 18.5849 11.136 19.4991 11.7373 20.2279C12.3386 20.9568 13.1733 21.4556 14.1 21.64C13.7433 21.7485 13.3729 21.8058 13 21.81C12.7419 21.807 12.4844 21.7835 12.23 21.74C12.4939 22.5528 13.0046 23.2631 13.6911 23.7721C14.3775 24.2811 15.2056 24.5635 16.06 24.58C14.6172 25.7152 12.8359 26.3348 11 26.34C10.6657 26.3411 10.3317 26.321 10 26.28C11.8744 27.4902 14.0588 28.1327 16.29 28.13C17.8297 28.146 19.3571 27.855 20.7831 27.274C22.2091 26.6931 23.505 25.8338 24.5952 24.7465C25.6854 23.6591 26.548 22.3654 27.1326 20.9409C27.7172 19.5164 28.012 17.9897 28 16.45V15.92C28.7847 15.3348 29.4615 14.6174 30 13.8Z" fill="white"/>
</svg>
